<svg xmlns="http://www.w3.org/2000/svg" width="32" height="21.147" viewBox="0 0 32 21.147">
  <g id="Group_3150" data-name="Group 3150" transform="translate(-69.185 -79.2)">
    <path id="Path_228316" data-name="Path 228316" d="M131.363,85.845c-1.329-2.072-4.926-3.01-5.981-3.127-.86-.117-2.776-.117-3.284.86-.625,1.173.469,3.166.391,4.5-.078,1.134-.586,2.463-.313,3.6a2.274,2.274,0,0,0,2.033,1.564c.469,0,.938-.078,1.407-.117.43-.039.977.039,1.329-.235.469-.352.508-1.29.782-1.8a2.672,2.672,0,0,1,1.642-1.329c.782-.235,3.206-.039,2.971-1.368A5.237,5.237,0,0,0,131.363,85.845Z" transform="translate(-32.11 -2.111)" fill="#f09330"/>
    <path id="Path_228317" data-name="Path 228317" d="M132.284,87.747A7.972,7.972,0,0,0,129,87.435c-.313.078-.7.156-1.055.235a2.941,2.941,0,0,1-1.876.469,1.041,1.041,0,0,1-.469-.117,1.175,1.175,0,0,1-.782-.821,10.235,10.235,0,0,0-1.173-4.3,1.932,1.932,0,0,0-1.446.821c-.625,1.173.469,3.166.391,4.5-.078,1.134-.586,2.463-.313,3.6a2.274,2.274,0,0,0,2.033,1.564c.469,0,.938-.078,1.407-.117.43-.039.977.039,1.329-.235.469-.352.508-1.29.782-1.8a2.672,2.672,0,0,1,1.642-1.329c.782-.235,3.206-.039,2.971-1.368A5.535,5.535,0,0,0,132.284,87.747Z" transform="translate(-32.171 -2.254)" fill="#e58128"/>
    <path id="Path_228318" data-name="Path 228318" d="M132.625,95.072a6.3,6.3,0,0,0-4.066,0,2.358,2.358,0,0,0-1.6,2.033,6.123,6.123,0,0,1-.743,2.15,1.079,1.079,0,0,1-1.173.469c-.117,0-.235.039-.117.039a1.981,1.981,0,0,1-.508-.078h-.039a2.6,2.6,0,0,1-1.876-.821.235.235,0,0,0,.039.156,2.274,2.274,0,0,0,2.033,1.564c.469,0,.938-.078,1.407-.117.43-.039.977.039,1.329-.235.469-.352.508-1.29.782-1.8a2.672,2.672,0,0,1,1.642-1.329c.782-.235,3.206-.039,2.971-1.368A4.351,4.351,0,0,0,132.625,95.072Z" transform="translate(-32.473 -9.461)" fill="#d87319"/>
    <path id="Path_228319" data-name="Path 228319" d="M96.52,80.256a7.229,7.229,0,0,0-2.854-.782,25.732,25.732,0,0,0-4.261-.274,16.333,16.333,0,0,0-6.568,1.056c-.977.43-4.144,2.58-3.479,3.948l.274.352c.156.235.039.469.2.665.117.156.469.313.625.469a12.64,12.64,0,0,0,1.916,1.29,14.357,14.357,0,0,0,3.948,1.564,7.93,7.93,0,0,1,3.088,1.251c.625.508,1.055,1.29,1.759,1.681a3.559,3.559,0,0,0,1.564.391,13.22,13.22,0,0,0,3.049-.274,2.508,2.508,0,0,0,2.228-1.8,9.752,9.752,0,0,0,.469-4.5C98.2,83.3,98.357,81.467,96.52,80.256Z" transform="translate(-6.141)" fill="#f09330"/>
    <path id="Path_228320" data-name="Path 228320" d="M95.287,88.9c-2.267,1.6-3.87-3.44-5.317-4.652a6.043,6.043,0,0,0-4.847-1.6,21.313,21.313,0,0,1-4.73.43c-.821.743-1.407,1.6-1.056,2.267l.274.352c.156.235.039.469.2.665.117.156.469.313.625.469a12.64,12.64,0,0,0,1.916,1.29A14.357,14.357,0,0,0,86.3,89.679a7.93,7.93,0,0,1,3.088,1.251c.625.508,1.055,1.29,1.759,1.681A3.559,3.559,0,0,0,92.707,93a13.22,13.22,0,0,0,3.049-.274,2.508,2.508,0,0,0,2.228-1.8,9.752,9.752,0,0,0,.469-4.5c-.2-1.955-.039-3.792-1.837-4.965A4.166,4.166,0,0,0,95.561,81l.078.078A4.266,4.266,0,0,1,97.125,82.6a.686.686,0,0,0,.156.2,6.721,6.721,0,0,1,.625,2.346,4.181,4.181,0,0,1-.782,3.44C96.5,89.092,96.108,88.779,95.287,88.9Z" transform="translate(-6.12 -1.096)" fill="#e58128"/>
    <path id="Path_228321" data-name="Path 228321" d="M95.934,91.938A1.994,1.994,0,0,1,93,90.3c-.547-1.212-1.486-2.893-2.15-4.066a5.588,5.588,0,0,0-3.323-2.7,10,10,0,0,0-4.926-.117,9.85,9.85,0,0,1-2.932.625,1.593,1.593,0,0,0-.391,1.525l.274.352c.156.235.039.469.2.665.117.156.469.313.625.469a12.64,12.64,0,0,0,1.916,1.29A14.357,14.357,0,0,0,86.239,89.9a7.93,7.93,0,0,1,3.088,1.251c.625.508,1.055,1.29,1.759,1.681a3.559,3.559,0,0,0,1.564.391,13.22,13.22,0,0,0,3.049-.274,2.508,2.508,0,0,0,2.228-1.8,9.752,9.752,0,0,0,.469-4.5c-.2-1.955-.039-3.792-1.837-4.965-.117-.078-.235-.117-.352-.2.117.156.2.274.313.43a3.028,3.028,0,0,1,1.251,2.346,6.685,6.685,0,0,1,.313,1.837,6.02,6.02,0,0,1-.235,2.228C97.693,89.709,97.263,91.273,95.934,91.938Z" transform="translate(-6.102 -1.401)" fill="#d87319"/>
    <path id="Path_228322" data-name="Path 228322" d="M82.357,88.261c-3.284-2.267-7.349-.665-10.477,1.134a5.091,5.091,0,0,0-2.58,4.5,4.678,4.678,0,0,0,2.306,4.5l.039-.156a12.727,12.727,0,0,0,2.971.469,54.815,54.815,0,0,0,5.668-.743,3.438,3.438,0,0,1,2.072.235c.469.313.469.547,1.095.313a10.552,10.552,0,0,0,2.033-1.173c1.446-1.095,1.016-3.323.391-4.73A9.827,9.827,0,0,0,82.357,88.261Z" transform="translate(-0.07 -4.839)" fill="#f09330"/>
    <path id="Path_228323" data-name="Path 228323" d="M71.585,93.3A5.092,5.092,0,0,0,69.2,97.639a4.678,4.678,0,0,0,2.306,4.5l.039-.156a12.727,12.727,0,0,0,2.971.469,54.813,54.813,0,0,0,5.668-.743,3.438,3.438,0,0,1,2.072.235c.469.313.469.547,1.095.313a10.552,10.552,0,0,0,2.033-1.173c1.446-1.095,1.016-3.323.391-4.73a16.158,16.158,0,0,0-.86-1.642,2.132,2.132,0,0,1-.977,2.228c-.821.469-1.876-.039-2.58-.469a9.989,9.989,0,0,0-5.2-1.681c-.821.156-1.642.156-2.463.274C70.764,95.567,70.764,94.082,71.585,93.3Z" transform="translate(-0.009 -8.588)" fill="#e58128"/>
    <path id="Path_228324" data-name="Path 228324" d="M85.336,102.98c-1.564,1.055-3.01-1.759-3.675-2.7A6.759,6.759,0,0,0,78.1,97.976a8.416,8.416,0,0,0-5.082.508c-1.016.352-2.541,1.134-3.323-.078-.039-.039-.039-.078-.078-.117a4.361,4.361,0,0,0-.43,2.111,4.678,4.678,0,0,0,2.306,4.5l.039-.156a12.727,12.727,0,0,0,2.971.469,54.815,54.815,0,0,0,5.668-.743,3.438,3.438,0,0,1,2.072.235c.469.313.469.547,1.095.313a10.552,10.552,0,0,0,2.033-1.173,2.7,2.7,0,0,0,.977-2.306,2.249,2.249,0,0,1-.665,1.134.686.686,0,0,1-.2.156C85.492,102.9,85.414,102.94,85.336,102.98Z" transform="translate(0 -11.309)" fill="#d87319"/>
    <path id="Path_228325" data-name="Path 228325" d="M84.451,104.571a1.7,1.7,0,0,1-1.486-1.016,8,8,0,0,0-2.15-2.58c-1.916-1.486-4.222-2.58-6.489-1.955a5.147,5.147,0,0,0-2.971,1.681c-.586.547-1.055,2.385-1.955,1.368a4.407,4.407,0,0,0,2.228,3.479l.039-.156a12.727,12.727,0,0,0,2.971.469,54.815,54.815,0,0,0,5.668-.743,3.438,3.438,0,0,1,2.072.235c.469.313.469.547,1.095.313a10.553,10.553,0,0,0,2.033-1.173c.078-.078.2-.156.274-.235a1.223,1.223,0,0,1-.391.2,2.063,2.063,0,0,1-.469.117Z" transform="translate(-0.131 -11.963)" fill="#c66618"/>
    <path id="Path_228326" data-name="Path 228326" d="M82.252,99.9a.5.5,0,0,0-.235.039.144.144,0,0,0-.117.039Z" transform="translate(-7.744 -12.608)" fill="#f09330"/>
    <path id="Path_228327" data-name="Path 228327" d="M79.481,99.985a4.429,4.429,0,0,0-2.736-.274c.078,0,.156-.039.235-.039l-.352.039a.144.144,0,0,0,.117-.039,4.089,4.089,0,0,0-3.4,3.127,10.078,10.078,0,0,0,1.016,5.629,3.653,3.653,0,0,0,2.072,2.033c1.329.391,3.362-.391,4.73-.665,1.642-.352,4.5-.078,4.847-2.189a6.687,6.687,0,0,0-1.8-5A10.323,10.323,0,0,0,79.481,99.985Z" transform="translate(-2.471 -12.42)" fill="#f09330"/>
    <path id="Path_228328" data-name="Path 228328" d="M75.024,101.7h0a3.769,3.769,0,0,0-1.681,2.424,10.078,10.078,0,0,0,1.016,5.629,3.653,3.653,0,0,0,2.072,2.033c1.329.391,3.362-.391,4.73-.665,1.642-.352,4.5-.078,4.847-2.189a6.687,6.687,0,0,0-1.8-5,8.5,8.5,0,0,0-1.446-1.212,2.391,2.391,0,0,1,.508,1.681c-.039.508-.43,1.095-1.016,1.016a11.751,11.751,0,0,0-4.222.313l-.352.117a5.089,5.089,0,0,1-.665.313,2.269,2.269,0,0,1-1.525.117,2.181,2.181,0,0,1-.782-.547,1.5,1.5,0,0,1-.508-1.016A3.016,3.016,0,0,1,75.024,101.7Z" transform="translate(-2.471 -13.704)" fill="#e58128"/>
    <path id="Path_228329" data-name="Path 228329" d="M85.127,110.046A10.5,10.5,0,0,0,82,109.029c-1.407.039-3.166.078-4.378.938-.938.665-2.111,1.486-3.206.586a3.83,3.83,0,0,1-1.134-2.854.144.144,0,0,1-.039.117,10.078,10.078,0,0,0,1.016,5.629,3.653,3.653,0,0,0,2.072,2.033c1.329.391,3.362-.391,4.73-.665,1.642-.352,4.5-.078,4.847-2.189a3.471,3.471,0,0,0,.039-.9C85.948,111.961,85.714,110.436,85.127,110.046Z" transform="translate(-2.41 -17.359)" fill="#d87319"/>
    <path id="Path_228330" data-name="Path 228330" d="M102,114.1h0l.117.117Z" transform="translate(-19.987 -21.257)" fill="#f09330"/>
    <path id="Path_228331" data-name="Path 228331" d="M85.058,112.6a5.613,5.613,0,0,0-4.222,1.955c-.665.782-1.329,1.955-.665,2.932a5.941,5.941,0,0,0,2.815,1.8c1.994.625,4.183,1.564,6.333,1.329.977-.117,2.5-.782,2.424-1.955-.156-2.111-2.893-5-3.166-5.473C87.755,112.517,86,112.6,85.058,112.6Z" transform="translate(-6.524 -20.339)" fill="#f09330"/>
    <path id="Path_228332" data-name="Path 228332" d="M86.209,112.712c.039,0,.039-.039.078-.039-.508-.039-.977,0-1.329,0a5.612,5.612,0,0,0-4.222,1.955c-.665.782-1.329,1.955-.665,2.932a5.941,5.941,0,0,0,2.815,1.8c1.994.625,4.183,1.564,6.333,1.329.977-.117,2.5-.782,2.424-1.955a1.962,1.962,0,0,0-.078-.469,1.908,1.908,0,0,1-.43,1.055,3.393,3.393,0,0,1-3.088.743c-2.15-.313-5.629-1.407-6.255-3.792S84.1,112.751,86.209,112.712Z" transform="translate(-6.463 -20.377)" fill="#e58128"/>
    <path id="Path_228333" data-name="Path 228333" d="M134.52,100.835c.274.547.391.469,1.095.86a6.316,6.316,0,0,0,1.994.977,2.6,2.6,0,0,0,2.228-.274,4.369,4.369,0,0,0,.977-2.111c.313-1.994-.7-3.987-2.854-3.987a2.955,2.955,0,0,0-2.932,1.525C134.6,98.567,134.05,100.014,134.52,100.835Z" transform="translate(-39.684 -10.415)" fill="#f09330"/>
    <path id="Path_228334" data-name="Path 228334" d="M136.491,96.7a2.7,2.7,0,0,0-1.564,1.329c-.43.782-.977,2.189-.508,3.01.274.547.391.469,1.095.86a6.316,6.316,0,0,0,1.994.977,2.6,2.6,0,0,0,2.228-.274,4.369,4.369,0,0,0,.977-2.111,2.631,2.631,0,0,0,.039-.782,2.235,2.235,0,0,1-.938,1.055,3.23,3.23,0,0,1-1.8.43,3.04,3.04,0,0,1-1.564-.821,2.443,2.443,0,0,1-.43-3.127A6.81,6.81,0,0,1,136.491,96.7Z" transform="translate(-39.623 -10.659)" fill="#e58128"/>
    <path id="Path_228335" data-name="Path 228335" d="M79.312,105.015c.2.039.508-.2.665-.313a2.36,2.36,0,0,1,1.016-.43c.469-.039.86,0,1.329-.078.235-.039,1.29.078,1.407-.078.625-.821-1.72-.938-1.876-1.016-.508-.235-.235-.586.117-.782.391-.274.821-.117.7-.665a1.63,1.63,0,0,0-1.6-1.173,5.957,5.957,0,0,0-2.346.274,1.057,1.057,0,0,0-.625.665c-.156.43.117.7.117,1.173,0,.391-.313.86-.117,1.212.2.391.7.43.938.782C79.194,104.78,78.882,104.937,79.312,105.015Z" transform="translate(-5.391 -12.953)" fill="#ffb140"/>
    <path id="Path_228336" data-name="Path 228336" d="M89.67,117.389a3.9,3.9,0,0,1,.469.743c.039.039.078.039.078.078h.938a3.6,3.6,0,0,0,2.033-.156c.547-.352.078-1.407-.117-1.916a1.826,1.826,0,0,1-.665-.117c-.469-.235-.235-.391-.313-.782-.117-.43,0-.625-.547-.625-.391,0-1.016.352-1.016,0,0-.7-1.446-.469-2.033.039-.469.313-1.486,1.016-1.251,1.446s1.681.352,2.111.352C89.318,117.115,89.4,117,89.67,117.389Z" transform="translate(-10.979 -21.301)" fill="#ffb140"/>
    <path id="Path_228337" data-name="Path 228337" d="M88.519,89.562c-1.681-1.525-4.769-1.642-6.8-1.016h.117l-.274.039c.039,0,.117-.039.156-.039a2.5,2.5,0,0,0-1.173.547c-.43.43.235.43,0,.9-.156.274-2.346.86-1.29,1.368a3.007,3.007,0,0,0,1.446-.117,3.52,3.52,0,0,1,.625-.117c.274,0,.313.117.508.156,1.055.2,2.111-.274,3.206.235.43.2.782.43,1.212.586.352.156,1.329.743,1.055.039-.117-.352-.743-.782-1.016-1.056a4.433,4.433,0,0,0-1.016-.782c.508-.274,1.212.469,1.681.625.782.313.938-.586.235-.743a2.066,2.066,0,0,1-.039-.469C87.619,89.484,88.284,90.031,88.519,89.562Z" transform="translate(-5.958 -5.476)" fill="#ffb140"/>
    <path id="Path_228338" data-name="Path 228338" d="M85.874,89.1h-.117c-.039,0-.117.039-.156.039Z" transform="translate(-9.998 -6.03)" fill="#ffb140"/>
    <path id="Path_228339" data-name="Path 228339" d="M99.379,83.963c.9-.625,1.173.274,1.994.586.625,0,.43-.547.938-.9.625.039.86,1.642,1.329,1.642.586,0,.469-1.29.274-1.759-.2-.547-.313-1.016-.547-1.525a1.679,1.679,0,0,0-1.8-.86c-.2.039-.156.156-.43.117-.078,0-.274-.156-.352-.2a2,2,0,0,0-.821-.391,7.634,7.634,0,0,0-1.329-.117c-.43.039-.7.352-1.134.352a4.862,4.862,0,0,1-.625-.156,5.755,5.755,0,0,0-.821,0c-.43-.039-.821-.078-1.251-.156a2.856,2.856,0,0,0-1.29-.078c-.469.117-.469.625-.938.665s-.665-.352-1.173-.156a.959.959,0,0,0-.7.821l.039-.156a1.31,1.31,0,0,0,0,.391,4.293,4.293,0,0,1,1.994-.156c.665.156,1.407.391,2.072.508a2.846,2.846,0,0,1,1.8.743c.469.469,1.212,1.095,1.095.9a3.106,3.106,0,0,0,.7.547c.274.078.274,0,.586-.117C98.792,84.158,99.1,83.455,99.379,83.963Z" transform="translate(-13.104 -0.775)" fill="#ffb140"/>
    <path id="Path_228340" data-name="Path 228340" d="M127.6,83.839h0l.039-.039Z" transform="translate(-35.579 -2.802)" fill="#ffb140"/>
    <path id="Path_228341" data-name="Path 228341" d="M132.135,87.2a6.655,6.655,0,0,0,1.525.078c.469.039.938.117,1.407.156.078-.391-.352-.625-.625-.821-.352-.274-.86-.43-1.173-.7.821-.156-.586-.938-.821-1.095a2.212,2.212,0,0,0-.977-.313,1.258,1.258,0,0,1-.782-.469c-.391-.508-1.173-.391-1.759-.508-.391-.039-.821-.469-1.212-.235a.521.521,0,0,0-.117.2h0c.469.938.43,1.955.9,2.893.274-.039.313-.469.586-.586.2.352.586.039.86.274.156.156.078.274.117.469.078.235.2.156.43.078a4.016,4.016,0,0,1,1.525.078c.078.039.43.117.43.235C132.487,87.005,132.213,87.123,132.135,87.2Z" transform="translate(-35.579 -2.45)" fill="#ffb140"/>
    <path id="Path_228342" data-name="Path 228342" d="M141.6,97.339l.2-.039A.425.425,0,0,0,141.6,97.339Z" transform="translate(-44.106 -11.024)" fill="#ffb140"/>
    <path id="Path_228343" data-name="Path 228343" d="M141.4,97.4h0Z" transform="translate(-43.984 -11.085)" fill="#ffb140"/>
    <path id="Path_228344" data-name="Path 228344" d="M143.23,97.495c-.078-.2-.586-.235-.782-.274a6.631,6.631,0,0,0-1.759.039c-.274.078-.586.313-.508.508.2.43.938,0,.7.665-.156.352.078.625.156,1.016.156.782.977.352,1.446.665-.352.7.821.039.938-.313a1.043,1.043,0,0,0-.117-.9c-.117-.274-.625-.665-.391-1.016C143,97.729,143.308,97.729,143.23,97.495Z" transform="translate(-43.235 -10.945)" fill="#ffb140"/>
    <path id="Path_228345" data-name="Path 228345" d="M85.5,91.031c.235.235.625,0,.938.156.352.156.235.391.782.391.625-.039.508-.117.508-.586.039-.508.117-.547.625-.821.547-.313,1.681-.547.469-.977a2.97,2.97,0,0,0-1.759,0,1.3,1.3,0,0,0-1.173.586c.313.235.547.235.313.586C86.047,90.6,85.656,90.679,85.5,91.031Z" transform="translate(-9.937 -6.006)" fill="#ffd97b"/>
    <path id="Path_228346" data-name="Path 228346" d="M81.055,104.015c.2.586.7.274,1.134.43.235.078.2.235.469.313a1.863,1.863,0,0,0,.782-.156c-.156-.782-1.525-.743-1.134-1.642.078-.2.274-.156.274-.43a1.987,1.987,0,0,0-.352-.508c-.313-.391-.352-.313-.821-.274-.665.117-.43.625-.274.977C81.407,103.35,80.9,103.507,81.055,104.015Z" transform="translate(-7.173 -13.713)" fill="#ffd97b"/>
    <path id="Path_228347" data-name="Path 228347" d="M103.139,83.816c.156,0,.313-.117.469-.117.235-.039.352.078.586.078.391,0,.7-.352,1.095-.352.43,0,.625.274.977.469.469.235.625,0,1.095,0,.313,0,.9.235.508-.391-.235-.391-.665-.274-1.055-.313a3.2,3.2,0,0,1-1.173-.391c-.586-.235-1.173.039-1.759.078a13.811,13.811,0,0,1-1.8-.039c-.586-.078-1.134-.235-1.759-.274-.274,0-1.681-.156-1.251.352a9.719,9.719,0,0,1,1.759.7c.352.235,1.29.86,1.134-.078A2.264,2.264,0,0,0,103.139,83.816Z" transform="translate(-18.155 -2.035)" fill="#ffd97b"/>
    <path id="Path_228348" data-name="Path 228348" d="M129.456,85.58c.156.469.235.235.665.117.313-.078.665-.235.9,0,.078.078,0,.313.078.43.156.156.352.117.469.2.274.2.313.469.625.625a1.931,1.931,0,0,0,.938.2c.625-.117.235.43.665.508a3.392,3.392,0,0,0,1.095.039c.117-.938-1.525-.625-1.329-1.525-.43-.156-.86-.2-1.29-.313.078-.43-.391-.313-.625-.469s-.274-.313-.508-.508a2.566,2.566,0,0,0-1.681-.391.238.238,0,0,0,0,.313l-.156-.117C129.613,84.838,129.378,85.268,129.456,85.58Z" transform="translate(-36.615 -3.214)" fill="#ffd97b"/>
    <path id="Path_228349" data-name="Path 228349" d="M143.257,98.791c.039.117.274.117.313.274.039.117-.039.235,0,.352.039.2-.117.2.078.43.156.2.508-.2.469.274.547-.2,0-.86-.313-1.016.9-.039.235-.586-.352-.7C143.179,98.439,143.218,98.6,143.257,98.791Z" transform="translate(-45.099 -11.694)" fill="#ffd97b"/>
    <path id="Path_228350" data-name="Path 228350" d="M143.4,98.3h0Z" transform="translate(-45.203 -11.633)" fill="#ffd97b"/>
    <path id="Path_228351" data-name="Path 228351" d="M143.2,98.3h0Z" transform="translate(-45.081 -11.633)" fill="#ffd97b"/>
    <path id="Path_228352" data-name="Path 228352" d="M90.2,116.348c.43.235.821-.156,1.251.039A2.231,2.231,0,0,1,92,116.9a1.012,1.012,0,0,1,.274.43c.274.625.274.547.938.7.391.078.782.391,1.173.508,1.095-1.212-2.658-1.642-1.681-2.658-.313-.078-1.016.2-.86-.391a2.193,2.193,0,0,0-1.134.235l.039.039A.663.663,0,0,0,90.2,116.348Z" transform="translate(-12.8 -22.098)" fill="#ffd97b"/>
  </g>
</svg>
