<svg xmlns="http://www.w3.org/2000/svg" width="32" height="27.037" viewBox="0 0 32 27.037">
  <g id="Group_3017" data-name="Group 3017" transform="translate(-230 -264.693)">
    <path id="Path_227339" data-name="Path 227339" d="M245.928,338.764a22.177,22.177,0,0,0,5.677,1.5,24.336,24.336,0,0,0,11.128-.65c2.372-.678,8.162-2.146,6.242-5.9-.932-1.808-3.135-.141-4.575.311a34.384,34.384,0,0,1-8.473,1.13,33.269,33.269,0,0,1-7.88-.65c-1.384-.282-3.333-1.5-4.321-.113l.113-.226C242.708,335.544,244.657,338.143,245.928,338.764Z" transform="translate(-9.686 -48.932)" fill="#ffa910"/>
    <path id="Path_227340" data-name="Path 227340" d="M264.351,339.064c-1.751.311-3.53.593-5.282.763-4.6.452-14.15,1.1-14.828-5.423a2.437,2.437,0,0,0-.508.452l.113-.226c-1.13,1.384.847,3.954,2.118,4.6a22.174,22.174,0,0,0,5.677,1.5,24.335,24.335,0,0,0,11.128-.65c2.372-.678,8.162-2.146,6.242-5.9a1.383,1.383,0,0,0-.65-.678,4.227,4.227,0,0,1-.4,3.672A5.549,5.549,0,0,1,264.351,339.064Z" transform="translate(-9.694 -49.373)" fill="#ea9103"/>
    <path id="Path_227341" data-name="Path 227341" d="M243.622,336.109c.057.028.113.085.169.113a4.283,4.283,0,0,0,2.062.311,5.085,5.085,0,0,1,2.062.537,11.047,11.047,0,0,0,2.316.4c.65.028,1.271-.113,1.921-.085.763.056,1.553.2,2.316.226.819.028,1.61-.113,2.4-.113.339,0,.678,0,1.017.028a6.519,6.519,0,0,1,3.107-.706c.424.028.847.056,1.243.085.254-.028.537-.056.791-.085.424-.056.847-.141,1.243-.169a1.979,1.979,0,0,0,.48-.254,9.64,9.64,0,0,1,2.09-1.045,4,4,0,0,1,.508-.226,6.613,6.613,0,0,1,1.836-.565,4.5,4.5,0,0,0-.311-.847c-.932-1.808-3.135-.141-4.575.311a34.384,34.384,0,0,1-8.473,1.13,33.27,33.27,0,0,1-7.88-.65c-1.384-.282-3.333-1.5-4.321-.113l.113-.226A2.049,2.049,0,0,0,243.622,336.109Z" transform="translate(-9.64 -48.932)" fill="#d17e07"/>
    <path id="Path_227342" data-name="Path 227342" d="M288.7,344.726a.616.616,0,0,0,.141-.226A.412.412,0,0,0,288.7,344.726Z" transform="translate(-42.121 -57.266)" fill="#c7f22c"/>
    <path id="Path_227343" data-name="Path 227343" d="M329.9,334.6a.452.452,0,0,0,.48.339A.99.99,0,0,0,329.9,334.6Z" transform="translate(-71.685 -50.162)" fill="#c7f22c"/>
    <path id="Path_227344" data-name="Path 227344" d="M263.963,326.067c.113,0,.48.141.537.141.48,0,.988.141.537-.734-.282-.593-1.1-1.412-1.638-1.13a.987.987,0,0,0-.65-.96c-.113-1.553-2.062-.141-3.191.2a34.524,34.524,0,0,1-8.84,1.525,63.688,63.688,0,0,1-9.857-.226c-1.327-.141-1.61-1.215-2.853-1.186-.367,0-1.666-.056-1.921.734-.424-.028-.96.085-.989.621-.028.424.763.706,1.017.988a3.447,3.447,0,0,0-.847.734c.424.4,1.243.311,1.1,1.158.508.056.819-.48,1.243-.452.819.113.254.819.734,1.186.48.339.989-.4,1.412-.452.537-.085.791.367,1.356,0-.113.593.4.876.876.621a.74.74,0,0,1-.141.254c.763-.254.734.282,1.356.48.9.282.48-.226,1.073-.734.282-.254,1.3-.508,1.666-.2.452.4-.057,1.243.96.847.169.791,1.073.424,1.017-.282.48.367.876-.4,1.327-.537,0,.621.621.65.96.311a.5.5,0,0,1,.141-.226.615.615,0,0,1-.141.226c-.057.282.254.537.593.593.4.056.847-.339,1.158-.537a4.009,4.009,0,0,0,.141.621c.565-.819,1.864-.9,2.881-.791.621.056,2.429.989,2.627-.339.65.452,1.214.226,1.356-.65-.057-.113.141.169.169.169.226-1.017,1.1-.678,1.977-.706.565-.028,1.553-.508,1.243-.989a.452.452,0,0,1-.48-.339,1.161,1.161,0,0,1,.48.339,3.751,3.751,0,0,0,.847-.169C263.4,326.18,263.822,326.039,263.963,326.067Z" transform="translate(-3.658 -41.601)" fill="#c7f22c"/>
    <path id="Path_227345" data-name="Path 227345" d="M265.864,325.532c-.254-.593-1.271-.593-1.836-.847-.028,0-.028-.028-.056-.028-.113-.028-.2-.028-.311-.057q-.551.254-1.017.424a34.525,34.525,0,0,1-8.84,1.525,63.691,63.691,0,0,1-9.857-.226c-1.327-.141-1.61-1.214-2.853-1.186a2.7,2.7,0,0,0-1.695.4,1.39,1.39,0,0,1,.48.169c.48.282.056.734.085,1.214.141.085.876.226.96.367s-.678.734-.65.876c.028.028.819-.452.876-.424.621.367-.169,1.186.452,1.13.4-.028,1.214-.734,1.5-.452.2.2.847.169.96.4.113.085-.254.932-.169,1.017.226-.056,1.186-.763,1.327-.734.48.085.819.537,1.271.678.113.028.2.056.311.085a.861.861,0,0,1,.593-.311,3.942,3.942,0,0,1,1.158.056,2.853,2.853,0,0,1,1.779.96,2.4,2.4,0,0,1,1.271-.932,1.022,1.022,0,0,1,.706.056.578.578,0,0,1,.226-.226,1.493,1.493,0,0,1,1.666.028l.678.424h0a.877.877,0,0,1,.791-.593c.169.028.311-.085.508-.141a1.257,1.257,0,0,1,.847.113c.226.085.537.367.791.311a3.569,3.569,0,0,0,.734-.367c.4-.226.678.508.9.876.028,0,.282-.593.311-.593.085,0,.254-.367.339-.4.282-.056,1.271.621,1.525.537.508-.2.028-1.13.452-1.44a1.4,1.4,0,0,1,.932-.4c.113,0,.96.367,1.045.339.339-.282,0-1.44.254-1.13.734.847.424-.311.734-.537.9,1.921,1.525,0,.706-.254C267.7,326.238,265.921,325.645,265.864,325.532Z" transform="translate(-6.745 -42.987)" fill="#98d827"/>
    <path id="Path_227346" data-name="Path 227346" d="M292.1,330.943c-.254.028-1.214,0-1.384.2-.282.367.339.876.621,1.1a5.164,5.164,0,0,0,3.22,1.214c.593.028,3.248.028,3.276-1.469-.424-.537-1.582-.621-2.4-.847A9.486,9.486,0,0,0,292.1,330.943Z" transform="translate(-43.517 -47.494)" fill="#a16dad"/>
    <path id="Path_227347" data-name="Path 227347" d="M312.3,338.4Z" transform="translate(-59.056 -52.889)" fill="#894899"/>
    <path id="Path_227348" data-name="Path 227348" d="M298.878,334.672a.7.7,0,0,0-.339-.028c-.763.085-1.525.367-2.288.4-.706.028-1.779-.311-2.485-.282-.2,0-1.695-.4-1.582-.2.311.537.678.169.9.339.028.028-.056.254-.056.311.113.056.141-.113.254-.085.113-.113.056.452.141.254.028.028.2-.169.226-.141,0-.028.2.141.2.141.057.028.141-.085.113,0,0-.056.169.056.2,0,.113.141.028.226.085.367.056-.113.2-.141.254-.254.028.028.085.085.085.113,0-.028.169,0,.169-.028.028.028,0,.2.028.226l.169-.2c0,.028.028.056.057.113a.155.155,0,0,0,.085-.141.1.1,0,0,0,.028.056c0-.028.028-.056.056-.085.141.056.113.2.085.311a.721.721,0,0,0,.2-.282.71.71,0,0,1,.169.4c.056-.057.085-.2.141-.282a.618.618,0,0,1,.141.085.147.147,0,0,0,.056-.113.155.155,0,0,1,.085.141c.028-.028.056-.028.056-.085,0,.028.057.056.057.056a.147.147,0,0,0,.056-.113c.028,0,.056.056.085.056a.309.309,0,0,1,.028.311,3.677,3.677,0,0,0,.226-.48.681.681,0,0,1,.113.424,2.381,2.381,0,0,0,.169-.4c.085.113.028.226,0,.367.085-.085.141-.339.254-.367.028-.056.056-.056.085-.085a.08.08,0,0,0,.141,0,.1.1,0,0,0,.028.056.155.155,0,0,0,.085-.141.419.419,0,0,1,.028.2c.113-.028.056-.169.169-.2a.96.96,0,0,1,.028.282c.056-.085.085-.226.141-.311.028.141-.028.282,0,.4a.255.255,0,0,0,.028-.141h0a1.3,1.3,0,0,0,.254-.424,1.793,1.793,0,0,1,.056.2.282.282,0,0,0,.113-.141c.085.085.141-.056.169-.113,0,.028.028.056.028.085.056-.028.085-.113.113-.169a.214.214,0,0,0,.056.113c0-.028.056-.085.056-.113a.42.42,0,0,1,.028.169,1.2,1.2,0,0,0,.169-.537Z" transform="translate(-44.617 -50.094)" fill="#894899"/>
    <path id="Path_227349" data-name="Path 227349" d="M296.006,329.472a8.693,8.693,0,0,0-3.3-.226c-.254.028-1.214,0-1.384.2-.282.367.339.876.621,1.1a5.165,5.165,0,0,0,3.22,1.214c.593.028,3.276-.282,3.107-1.214l.056.028A5.216,5.216,0,0,0,296.006,329.472Z" transform="translate(-43.947 -46.277)" fill="#c1afdb"/>
    <path id="Path_227350" data-name="Path 227350" d="M296.464,329.462a8.549,8.549,0,0,0-3.05-.254c-.226.028-1.13-.028-1.271.169-.254.311.339.791.593.988a4.98,4.98,0,0,0,2.966,1.1c.537.028,2.994-.169,2.824-.989l.056.028A4.166,4.166,0,0,0,296.464,329.462Z" transform="translate(-44.547 -46.268)" fill="#cbbce2"/>
    <path id="Path_227351" data-name="Path 227351" d="M296.8,329.019a7.524,7.524,0,0,0-2.853-.226c-.226.028-1.045-.028-1.186.141-.226.282.311.734.565.932a4.729,4.729,0,0,0,2.8,1.045c.508.028,2.824-.169,2.627-.932l.056.028A4.193,4.193,0,0,0,296.8,329.019Z" transform="translate(-44.997 -45.966)" fill="#dbcef4"/>
    <path id="Path_227352" data-name="Path 227352" d="M296.79,329.484a6.587,6.587,0,0,0-1.469-.565,7.526,7.526,0,0,0-2.853-.226c-.226.028-1.045-.028-1.186.141a.087.087,0,0,0-.028.056c-.028,0-.056.028-.085.028-.141.028-.254.056-.282.113a.393.393,0,0,0-.028.4.618.618,0,0,0-.141.085c-.282.367.339.876.621,1.1a4.829,4.829,0,0,0,1.356.819,7.3,7.3,0,0,1,1.779-.706,4.124,4.124,0,0,1,1.271-.282,3.34,3.34,0,0,1,1.045.056,6.139,6.139,0,0,0,1.017.056c0-.056.028-.141.028-.2a.241.241,0,0,0,0-.2l.056.028A3.37,3.37,0,0,0,296.79,329.484Z" transform="translate(-43.517 -45.894)" fill="#694a70" opacity="0.33"/>
    <path id="Path_227353" data-name="Path 227353" d="M251.562,328.691a8.379,8.379,0,0,0-3.192-.96c-.847-.085-1.977-.424-2.542-.056-.508,1.412,2.005,2.344,2.542,2.514a4.985,4.985,0,0,0,3.446,0c.339-.113,1.1-.4.96-.819C252.72,329.115,251.788,328.8,251.562,328.691Z" transform="translate(-11.31 -45.073)" fill="#a16dad"/>
    <path id="Path_227354" data-name="Path 227354" d="M248.2,332.746Z" transform="translate(-13.06 -48.817)" fill="#894899"/>
    <path id="Path_227355" data-name="Path 227355" d="M249.977,330.616c0,.028.028.056.028.085.028-.028.085-.028.113-.056.028.226.311.2.367.4a1.058,1.058,0,0,0,.311-.028c.057-.339-.282-.621-.565-.763-.65-.282-1.356-.367-2.005-.65-.706-.311-1.327-.847-2.005-1.186a.752.752,0,0,0-.339-.085V328.3a1.153,1.153,0,0,0-.028.537.193.193,0,0,1,.085-.141v.141l.085-.085a.34.34,0,0,0,.056.226c0-.028.028-.057.056-.085,0,.085,0,.226.113.169.028.056.028.141.056.169.056-.056.056-.113.113-.169a3.186,3.186,0,0,0,.085.508h0v.141c.085-.113.056-.254.141-.367,0,.113-.028.254.028.339a.7.7,0,0,1,.113-.254c.056.056,0,.2.085.254l.085-.169a.358.358,0,0,0,.028.169c0-.028.056-.028.056-.056a.079.079,0,0,0,.141.056.147.147,0,0,1,.056.113c.113.056.056.311.113.424,0-.141,0-.254.113-.339.028.141,0,.311.028.452.028-.169.113-.226.226-.339.028.169.028.367.056.537a.348.348,0,0,1,.141-.282l.085-.028c0,.057.028.085.028.141a.407.407,0,0,0,.085-.056c0,.056.028.085.028.113a.155.155,0,0,1,.141-.085c0,.057.028.085.028.113.056,0,.113-.028.169-.028,0,.085-.028.226.028.311a.821.821,0,0,1,.311-.311.671.671,0,0,0,.085.339c0-.113.028-.254.2-.282,0,.028.028.085.028.113,0-.028.028-.028.056-.056,0,.056,0,.141.028.169l.085-.085v.056c.028-.028.085-.028.113-.056v.113c.028-.057.085-.085.113-.113,0,.113.028.254.028.367.113-.113.141-.254.311-.339,0,.056.028.113,0,.169C249.864,330.672,249.92,330.616,249.977,330.616Z" transform="translate(-11.362 -45.642)" fill="#894899"/>
    <path id="Path_227356" data-name="Path 227356" d="M248.527,328.921a4.986,4.986,0,0,0,3.446,0c.339-.113,1.1-.4.96-.819-.085-.254-.989-.565-1.214-.678a8.379,8.379,0,0,0-3.192-.96,4.622,4.622,0,0,0-2.542.254h.056C245.561,327.508,247.99,328.723,248.527,328.921Z" transform="translate(-11.466 -44.285)" fill="#c1afdb"/>
    <path id="Path_227357" data-name="Path 227357" d="M249.535,328.7a4.856,4.856,0,0,0,3.163,0c.311-.113,1.017-.339.9-.706-.085-.226-.932-.508-1.13-.593a8.143,8.143,0,0,0-2.937-.819,4.481,4.481,0,0,0-2.344.226h.056C246.8,327.481,249.027,328.555,249.535,328.7Z" transform="translate(-12.333 -44.371)" fill="#cbbce2"/>
    <path id="Path_227358" data-name="Path 227358" d="M250.431,328.212a4.634,4.634,0,0,0,2.966,0c.282-.085.96-.311.847-.678-.056-.2-.876-.452-1.073-.565a7.769,7.769,0,0,0-2.768-.763,4.606,4.606,0,0,0-2.2.2h.056C247.861,327.082,249.951,328.07,250.431,328.212Z" transform="translate(-13.06 -44.113)" fill="#dbcef4"/>
    <path id="Path_227359" data-name="Path 227359" d="M251.018,327.527a4.4,4.4,0,0,0,2.824,0c.282-.085.9-.311.791-.65-.056-.2-.819-.452-1.017-.537a7.165,7.165,0,0,0-2.627-.734,4.109,4.109,0,0,0-2.09.2h.056C248.561,326.454,250.566,327.386,251.018,327.527Z" transform="translate(-13.562 -43.683)" fill="#ded8ef"/>
    <path id="Path_227360" data-name="Path 227360" d="M253.12,327.47a.83.83,0,0,0-.226-.226l-.056-.056V327.1c0-.028-.028-.057-.085-.113v-.113c-.056-.2-.819-.452-1.017-.537a7.165,7.165,0,0,0-2.627-.734,4.109,4.109,0,0,0-2.09.2h.028a2.306,2.306,0,0,0-.847.254h.056a.524.524,0,0,0-.056.2v.028a9.31,9.31,0,0,1,3.192,1.412,2.766,2.766,0,0,1,1.017,1.186.48.48,0,0,1,.028.2,4.779,4.779,0,0,0,1.751-.311c.339-.113,1.1-.4.96-.819,0-.056-.056-.085-.113-.141A.44.44,0,0,0,253.12,327.47Z" transform="translate(-11.625 -43.683)" fill="#694a70" opacity="0.33"/>
    <path id="Path_227361" data-name="Path 227361" d="M305.958,326.469c-.141.424.65.706.96.819a4.985,4.985,0,0,0,3.446,0c.565-.2,3.05-1.1,2.542-2.514-.565-.367-1.695-.028-2.542.057a8.531,8.531,0,0,0-3.192.96C306.974,325.876,306.042,326.215,305.958,326.469Z" transform="translate(-54.492 -42.992)" fill="#a16dad"/>
    <path id="Path_227362" data-name="Path 227362" d="M314.453,325.852l.085.085V325.8c.028.028.056.113.085.141a1.154,1.154,0,0,0-.028-.537v.028a.752.752,0,0,0-.339.085c-.678.339-1.3.876-2.005,1.186-.65.282-1.779.339-2.429.621-.169.085-1.723.226-1.553.367.48.4.678-.085.96,0,.056.028.056.254.056.311.113,0,.085-.169.2-.169.056-.141.2.424.226.2.028.028.113-.226.141-.2,0-.028.226.085.226.056.056.028.085-.113.113-.056,0-.056.169-.028.2-.056.169.085.113.2.226.311,0-.113.141-.2.141-.311.056.028.113.056.113.085,0-.028.169-.056.141-.085a1.026,1.026,0,0,1,.085.2c0-.028.085-.226.085-.254,0,.028.056.056.085.085.056-.057.028-.113.028-.169l.056.057c0-.028.028-.057.028-.113.141,0,.169.141.2.282a.671.671,0,0,0,.085-.339.663.663,0,0,1,.311.311,1.06,1.06,0,0,0,.028-.311.358.358,0,0,1,.169.028c0-.028.028-.085.028-.113.056,0,.085.056.141.085.028-.028.028-.056.028-.113.028.028.056.028.085.057,0-.057.028-.085.028-.141a.284.284,0,0,1,.085.028.392.392,0,0,1,.141.282c.028-.169.028-.367.056-.537.113.113.2.169.226.339.028-.141,0-.311.028-.452.113.085.113.2.113.339.056-.113,0-.367.113-.424,0-.057.028-.057.056-.113a.079.079,0,0,0,.141-.056s.056.028.056.056c.028-.028.028-.085.028-.169.056.056.056.113.085.169.085-.056,0-.169.085-.254a.421.421,0,0,1,.113.254c.028-.113,0-.226.028-.339a1.96,1.96,0,0,0,.141.367v-.141h0a2.726,2.726,0,0,0,.085-.508c.056.056.056.113.113.169a.4.4,0,0,0,.056-.169c.113.056.113-.085.113-.169,0,.028.028.057.056.085C314.453,326.021,314.424,325.908,314.453,325.852Z" transform="translate(-56.152 -43.561)" fill="#894899"/>
    <path id="Path_227363" data-name="Path 227363" d="M328.5,329.8Z" transform="translate(-70.68 -46.718)" fill="#894899"/>
    <path id="Path_227364" data-name="Path 227364" d="M305.958,325.1c-.141.424.65.706.96.819a4.985,4.985,0,0,0,3.446,0c.565-.2,2.966-1.412,2.485-2.2a4.419,4.419,0,0,0-2.485-.254,8.531,8.531,0,0,0-3.192.96C306.974,324.537,306.042,324.847,305.958,325.1Z" transform="translate(-54.492 -42.133)" fill="#c1afdb"/>
    <path id="Path_227365" data-name="Path 227365" d="M310.836,323.656a8.754,8.754,0,0,0-2.937.819c-.2.085-1.045.367-1.13.593-.113.367.593.621.9.706a4.856,4.856,0,0,0,3.163,0c.508-.169,2.74-1.214,2.288-1.921A4.313,4.313,0,0,0,310.836,323.656Z" transform="translate(-55.078 -42.269)" fill="#cbbce2"/>
    <path id="Path_227366" data-name="Path 227366" d="M310.809,323.306a7.933,7.933,0,0,0-2.768.763c-.2.085-.989.339-1.073.565-.113.339.565.565.847.678a4.635,4.635,0,0,0,2.966,0c.48-.141,2.57-1.13,2.147-1.808h.057A4.414,4.414,0,0,0,310.809,323.306Z" transform="translate(-55.22 -42.032)" fill="#dbcef4"/>
    <path id="Path_227367" data-name="Path 227367" d="M311.01,322.778a7.761,7.761,0,0,0-2.627.734c-.2.085-.932.339-1.017.537-.113.339.537.537.791.65a4.4,4.4,0,0,0,2.824,0c.452-.141,2.457-1.073,2.034-1.695h.057A3.468,3.468,0,0,0,311.01,322.778Z" transform="translate(-55.506 -41.645)" fill="#ded8ef"/>
    <path id="Path_227368" data-name="Path 227368" d="M305.872,325.222c-.141.424.65.706.96.819a4.352,4.352,0,0,0,.48.141l.028-.085a.775.775,0,0,1,.706-.593,5.255,5.255,0,0,1,.706-.282c.339-.141.593-.4.9-.537a12.1,12.1,0,0,0,1.638-.734,7.72,7.72,0,0,1,1.271-.678,2.384,2.384,0,0,0-.678-.169h.057a4.179,4.179,0,0,0-2.09-.2,7.759,7.759,0,0,0-2.627.734c-.2.085-.932.339-1.017.537,0,.028-.028.085,0,.113a.389.389,0,0,0-.085.113v.085c-.028.028-.056.028-.056.056-.113.085-.2.141-.226.226a.32.32,0,0,0,.113.367Q305.914,325.138,305.872,325.222Z" transform="translate(-54.407 -41.745)" fill="#694a70" opacity="0.33"/>
    <path id="Path_227369" data-name="Path 227369" d="M264.511,317.154c-1.44.113-2.966.876-4.406,1.186a46.154,46.154,0,0,1-10.055.763,35.028,35.028,0,0,1-7.287-.706,6.031,6.031,0,0,0-3.163-.113c.169,1.44,2.8,1.892,3.813,2.316.763.339,3.192,2.005,3.135,2.966,1.243.057,2.429-.056,3.7-.056a20.336,20.336,0,0,0,9.264-2.034c1.3-.678,2.74-1.13,4.011-1.864.847-.48,1.949-1.384,2.937-1.327-.028-.621-.819-1.1-1.3-1.384l.2.2C265.132,317.239,264.793,317.154,264.511,317.154Z" transform="translate(-6.889 -37.462)" fill="#ffd215"/>
    <path id="Path_227370" data-name="Path 227370" d="M251.872,330.53a2.69,2.69,0,0,1-1.751-.706c-.282-.311-.508-.65-.763-.989a8.6,8.6,0,0,0-1.13-.593,11.863,11.863,0,0,0-2.937-1.1c-.254-.057-.537-.085-.791-.141.847.4,1.836.621,2.4.876.763.339,3.192,2.005,3.135,2.966,1.243.056,2.429-.057,3.7-.057a21.018,21.018,0,0,0,8.388-1.61c-.339.057-.706.113-1.045.141a37.012,37.012,0,0,1-4.208.847A17.5,17.5,0,0,1,251.872,330.53Z" transform="translate(-10.405 -44.709)" fill="#fce665"/>
    <path id="Path_227371" data-name="Path 227371" d="M265.228,317.226c-1.44.113-2.966.876-4.406,1.186a46.156,46.156,0,0,1-10.055.763,35.026,35.026,0,0,1-7.287-.706,6.626,6.626,0,0,0-2.881-.2,6.173,6.173,0,0,0,3.05,2.005c.424.113.876.2,1.3.282a43.918,43.918,0,0,0,6.92.734,39.86,39.86,0,0,0,4.858-.113c1.582-.141,3.22-.056,4.773-.339a3.337,3.337,0,0,0,.565-.113,18.679,18.679,0,0,0,2.147-1.017c.339-.2.706-.452,1.1-.678a15.725,15.725,0,0,0,1.214-1.582,7.051,7.051,0,0,0-.678-.452l.2.2C265.85,317.311,265.511,317.226,265.228,317.226Z" transform="translate(-7.606 -37.533)" fill="#fcb008"/>
    <path id="Path_227372" data-name="Path 227372" d="M241.065,312.822c.113.989,1.186,1.553,2.034,1.921a16.009,16.009,0,0,0,6.637,1.186c4.462,0,9.236.734,13.472-.65,1.327-.424,3.643-1.977,3.5-3.643-.226-2.6-4.717-.508-6.185-.169a21.683,21.683,0,0,1-5.423.508c-1.949-.056-3.841-.452-5.79-.565a20.044,20.044,0,0,1-4.321-.452,8.349,8.349,0,0,0-2.74-.311l.141-.141A2.341,2.341,0,0,0,241.065,312.822Z" transform="translate(-7.93 -32.762)" fill="#844914"/>
    <path id="Path_227373" data-name="Path 227373" d="M263.436,315.641a.649.649,0,0,1-.4-.113c-.169.169-.339.339-.537.508a.9.9,0,0,1-1.017.141.719.719,0,0,1-.311-.339,3.248,3.248,0,0,1-1.271.565.963.963,0,0,1-.621-.085,3.064,3.064,0,0,1-1.5.424.921.921,0,0,1-.65-.339,1.751,1.751,0,0,1-.763.057,3.11,3.11,0,0,1-.9.311.858.858,0,0,1-.932-.367l-.056-.056a3.309,3.309,0,0,1-.678.254,1.2,1.2,0,0,1-1.469-.65,8.839,8.839,0,0,1-1.44.537.969.969,0,0,1-1.017-.48,5.541,5.541,0,0,1-1.638.254.766.766,0,0,1-.65-.311,5.33,5.33,0,0,1-1.977-.141.848.848,0,0,1-.537-.452,1.322,1.322,0,0,1-.734.141,1.163,1.163,0,0,1-1.017-.537c0-.028-.028-.028-.028-.056a.1.1,0,0,0-.085.028,2.136,2.136,0,0,1-.424.028.792.792,0,0,1-.791-.621c-.678-.565-.452-1.5.028-2.316a2.246,2.246,0,0,0-.763,1.921c.113.989,1.186,1.553,2.034,1.921a16.009,16.009,0,0,0,6.637,1.186c4.462,0,9.236.734,13.472-.65,1.327-.424,3.643-1.977,3.5-3.643a1.267,1.267,0,0,0-.48-.96,1.605,1.605,0,0,1,.113,1.61A3.493,3.493,0,0,1,263.436,315.641Z" transform="translate(-8.073 -33.802)" fill="#683712" opacity="0.78"/>
    <path id="Path_227374" data-name="Path 227374" d="M248.356,314.771c.113-.056.226-.028.254-.141a.852.852,0,0,1,1.582-.113,2.313,2.313,0,0,1,.763-.621.681.681,0,0,1,.424-.113h.056a.808.808,0,0,1,.763.537v.028h0a.96.96,0,0,1,.282.028c.028,0,.056.028.085.028a.028.028,0,0,0,.028-.028,7.7,7.7,0,0,0,.847-.819.851.851,0,0,1,1.017-.141,2.846,2.846,0,0,0,.65.339c.028,0,.056.028.085.028a4.5,4.5,0,0,1,.65.282c.113.056.2.085.311.141a1.625,1.625,0,0,0,1.356-.028,2.631,2.631,0,0,1,1.666-.141,1.651,1.651,0,0,1,1.751.311c.282.2.367.282.706.2l.339-.085a3.087,3.087,0,0,0,.282-.311c.028-.056.085-.085.113-.141l.141-.141a2.038,2.038,0,0,1,.565-.254,8.456,8.456,0,0,1,1.638-.508,4.517,4.517,0,0,1,.593-.141c.311-.056.621-.113.932-.141a1.814,1.814,0,0,0,.282-1.186c-.226-2.6-4.717-.508-6.185-.169a21.681,21.681,0,0,1-5.423.508c-1.949-.057-3.841-.452-5.79-.565a20.044,20.044,0,0,1-4.321-.452,8.349,8.349,0,0,0-2.74-.311l.141-.141a2.362,2.362,0,0,0-1.3,1.582.867.867,0,0,1,.367.226,2.861,2.861,0,0,1,.4.565c.028.056.056.085.056.141a.85.85,0,0,1,.565.791c-.028.2-.028.4-.056.593l.678.339a7.831,7.831,0,0,0,.734.282,3.083,3.083,0,0,1,.311-.169,1.047,1.047,0,0,0,.424-.113c.565-.282-.056.028.2-.085a1.686,1.686,0,0,0,.311-.169h0a.812.812,0,0,1,.565-.254,1.464,1.464,0,0,1,1.158.4c.113.141.226.339.339.48a.648.648,0,0,1,.4.028.94.94,0,0,0,.4.028c.169-.028.226-.141.169.028A2.168,2.168,0,0,1,248.356,314.771Z" transform="translate(-7.821 -32.762)" fill="#5b2f0b" opacity="0.66"/>
    <path id="Path_227375" data-name="Path 227375" d="M247.813,311.3l-.113.113h.028A.39.39,0,0,0,247.813,311.3Z" transform="translate(-12.701 -33.443)" fill="#c7f22c"/>
    <path id="Path_227376" data-name="Path 227376" d="M246.994,311.7h-.254c-.085.169.085.113.085.169h0Z" transform="translate(-11.995 -33.73)" fill="#c7f22c"/>
    <path id="Path_227377" data-name="Path 227377" d="M250.779,314.568c.169,1.1,1.017,0,1.186-.48.621.452,1.186-.028,1.44,1.045.678-.113.847-.9,1.017-1.5-.876-.847-1.356-.706-2.457-.593a8.248,8.248,0,0,1-2.909-.4c-.424-.085-.9,0-1.356-.085a11.137,11.137,0,0,1-1.356-.508,8.357,8.357,0,0,0-2.4-.254,1.228,1.228,0,0,1-.2.169h0c-.452.339-1.186.706-1.271,1.045-.113.424.791.763.989,1.356.113-.085.311-.085.452-.254-.367.621-.367,1.186.4,1.5.819.311,1.469-.339,2.034-.763.311.254.452.254.734.028.141.311.367.367.593.565.057-.085.226-.169.311-.254a.71.71,0,0,0,.847.706c.791-.141.678-1.045.678-1.638A2.068,2.068,0,0,0,250.779,314.568Z" transform="translate(-8.945 -33.802)" fill="#c7f22c"/>
    <path id="Path_227378" data-name="Path 227378" d="M247.028,312.3h0Z" transform="translate(-12.199 -34.161)" fill="#c7f22c"/>
    <path id="Path_227379" data-name="Path 227379" d="M247.8,314.173c.367.367.819-1.666.819-1.214,0,.226.96.452,1.553,1.921.056.056.113.085.141.141a2.073,2.073,0,0,1,.565-.141,1.032,1.032,0,0,1,.4-.537,2.484,2.484,0,0,1,.282-.169.69.69,0,0,1,.565-.565,2.428,2.428,0,0,1,1.921.169.812.812,0,0,1,.508.2c.057-.028.141-.056.2-.085a.752.752,0,0,1,.339-.085,1.6,1.6,0,0,1,.819.056,2.234,2.234,0,0,1,1.017.678,5.712,5.712,0,0,0,.311-.9c-.876-.847-1.356-.706-2.457-.593a8.248,8.248,0,0,1-2.909-.4c-.424-.085-.9,0-1.356-.085a11.142,11.142,0,0,1-1.356-.508,8.356,8.356,0,0,0-2.4-.254,1.23,1.23,0,0,1-.2.169l.169-.169h-.254c-.085.169.085.113.085.169l-.028.028c.593.085-.537.9-.2,1.412a9.135,9.135,0,0,1,1.666-.452C248.2,312.9,247.578,313.918,247.8,314.173Z" transform="translate(-11.675 -33.802)" fill="#98d827"/>
    <path id="Path_227380" data-name="Path 227380" d="M312.178,303.337a2.364,2.364,0,0,1-1.017.621,4.657,4.657,0,0,0-1.243.621c-.311.254-.9.819-1.271.282-.113.847-2.627.989-3.248.876a5.13,5.13,0,0,1,.085.9c.028.226-.113,1.13,0,1.271.2.254.932-.113,1.3,0a3.287,3.287,0,0,1,1.243.763c.169-.339,1.3-2.2,1.412-1.017a4.091,4.091,0,0,0,1.836-.65c-.057,0-.113.028-.169.028.4-.169,1.864,0,2.062-.282.226-.367-.537-1.214.424-1.186.282,0,.48.282.791.282a1.505,1.505,0,0,0,.847-.339c.4-.339.876-.565.876-1.3-.085.593-1.215-.085-1.5-.311-.537-.424-.508-1.723-1.553-1.158l.113.113C312.489,302.8,312.489,302.942,312.178,303.337Z" transform="translate(-54.104 -27.204)" fill="#a4dd05"/>
    <path id="Path_227381" data-name="Path 227381" d="M321.2,309.656c.282,0,.48.282.791.282a1.505,1.505,0,0,0,.847-.339c.4-.339.876-.565.876-1.3a.258.258,0,0,1-.339.226,2.017,2.017,0,0,1-1.779.876,2.114,2.114,0,0,0-.593.057c-.028,0-.4.2-.367.113-.141.226-.141.678-.311.932a.835.835,0,0,1-.932.4c-.593-.254-1.243.4-1.892.367a3.419,3.419,0,0,0-1.017-.085l-.028.028c-.141.282-.311.537-.452.819,0,.028.028.056.028.085.4-.565.932-1.158,1.017-.367a4.092,4.092,0,0,0,1.836-.65c-.056,0-.113.028-.169.028.4-.169,1.864,0,2.062-.282C321,310.475,320.237,309.627,321.2,309.656Z" transform="translate(-61.71 -31.291)" fill="#c7f22c"/>
    <path id="Path_227382" data-name="Path 227382" d="M312.178,303.384a2.364,2.364,0,0,1-1.017.621,4.655,4.655,0,0,0-1.243.621c-.311.254-.9.819-1.271.282-.113.847-2.627.989-3.248.876a5.129,5.129,0,0,1,.085.9c0,.113-.028.4-.028.65h.141a1.331,1.331,0,0,1,.48.113l.141-.141a1.432,1.432,0,0,1,1.949-.2h.141a1.574,1.574,0,0,1,1.327-.706,6.393,6.393,0,0,1,.763.028,3.682,3.682,0,0,1,.424-.282c.028-.085.056-.169.085-.282a.879.879,0,0,1,1.525-.226,1.015,1.015,0,0,1,.339-.226c-.254.085-.141-.028-.028-.254a3.131,3.131,0,0,1,.254-.537.834.834,0,0,1,.932-.4,2.361,2.361,0,0,1,.65.339,1.948,1.948,0,0,1-.085-.226c-.028-.2-.056-.367-.085-.565-.424-.48-.48-1.582-1.44-1.045l.113.113C312.489,302.875,312.489,302.988,312.178,303.384Z" transform="translate(-54.104 -27.193)" fill="#72c10a"/>
    <path id="Path_227383" data-name="Path 227383" d="M244.158,304.529c.2.424.791.452,1.243.565a18.8,18.8,0,0,0,3.079.734,31.44,31.44,0,0,0,3.276.141c.932.169,1.921.226,2.853.48a23.828,23.828,0,0,1,3.22,1.045,7.41,7.41,0,0,0,1.666.48c.678.113.847-.056,1.469-.4,1.13-.621,2.259-1.13,3.418-1.638a12.876,12.876,0,0,0,1.779-.876,10.626,10.626,0,0,0,1.3-.565c.988-.508.819-1.356.763-2.4-1.271.141-2.6.65-3.926.9-1.525.282-3.107.169-4.632.367A44.782,44.782,0,0,1,248,303.032c-.621-.085-4.067-.989-3.869.056C243.79,303.23,243.988,304.19,244.158,304.529Z" transform="translate(-10.006 -26.842)" fill="#ffd215"/>
    <path id="Path_227384" data-name="Path 227384" d="M284.884,315.405a14.79,14.79,0,0,1-2.175-.65,8.528,8.528,0,0,0-2.909-.311c.169.028.339.085.537.113a23.829,23.829,0,0,1,3.22,1.045,7.41,7.41,0,0,0,1.666.48c.678.113.847-.057,1.469-.4,1.13-.621,2.259-1.13,3.417-1.638a15.066,15.066,0,0,0,1.412-.65c-.056.028-.113.028-.169.057-1.44.508-2.824,1.243-4.293,1.666A4.089,4.089,0,0,1,284.884,315.405Z" transform="translate(-35.735 -34.95)" fill="#fce665"/>
    <path id="Path_227385" data-name="Path 227385" d="M244.017,304.136c1.1.339,2.542.621,3.05,1.553a6.5,6.5,0,0,0,1.44.282c1.017.085,2.062.141,3.079.141a6.705,6.705,0,0,1,3.643-.452,39.7,39.7,0,0,0,4.491-.028,31.84,31.84,0,0,0,8.558-2.062,9.948,9.948,0,0,0-.028-1.271c-1.271.141-2.6.65-3.926.9-1.525.282-3.107.169-4.632.367a44.781,44.781,0,0,1-11.665-.339c-.621-.085-4.067-.989-3.869.056C243.961,303.345,243.961,303.74,244.017,304.136Z" transform="translate(-10.035 -26.985)" fill="#fcb008"/>
    <path id="Path_227386" data-name="Path 227386" d="M255.459,303.332c7.965,0,13.077-1.695,13.387-3.191.311-1.469-2.118-.282-2.627-.226-2.881.424-5.846.706-8.727,1.271a19.945,19.945,0,0,1-6.722.282c-1.356-.169-2.711-.452-4.067-.621-1.045-.141-1.808-.4-2.655.367v-.141C243,301.807,246.534,303.332,255.459,303.332Z" transform="translate(-9.953 -24.911)" fill="#e84707"/>
    <path id="Path_227387" data-name="Path 227387" d="M244.16,301.651a.809.809,0,0,1,.621-.282.73.73,0,0,1,.678.4h0l.028.028a.867.867,0,0,1,.932.706,35.107,35.107,0,0,0,6.016.706,2.005,2.005,0,0,1,.4-.282,2.133,2.133,0,0,1,.65-.367,1.8,1.8,0,0,1,.508-.169.808.808,0,0,1,.96-.141c.056.028.085.056.141.056l.169.085c.028.028.056.028.113.056a.9.9,0,0,1,.367.057c.057.028.085.028.141.056a10.342,10.342,0,0,0,2.005-.48.825.825,0,0,1,1.017.593,2.957,2.957,0,0,0,.113.48,37.405,37.405,0,0,0,5.2-.706c.028-.028.028-.085.056-.113.734-1.1,2.034-1.3,3.22-1.553a1,1,0,0,1,.734.141,1.465,1.465,0,0,0,.678-.876c.311-1.469-2.118-.282-2.627-.226-2.881.424-5.846.706-8.727,1.271a19.945,19.945,0,0,1-6.722.282c-1.356-.169-2.711-.452-4.067-.621-1.045-.141-1.808-.4-2.655.367v-.141C243.821,301.17,243.85,301.4,244.16,301.651Z" transform="translate(-9.98 -24.839)" fill="#aa2d0b"/>
    <path id="Path_227388" data-name="Path 227388" d="M239.541,296.1h0Z" transform="translate(-6.745 -22.536)" fill="#a4dd05"/>
    <path id="Path_227389" data-name="Path 227389" d="M231.751,298.509c.141.763.367.169.9.254.593.085.932,2.372,1.412.339.085-.4-.085-1.186.452-1.327.339-.085.678.367.763.593a.931.931,0,0,0,.508-.621c0,.028.028.028.056.028a1.465,1.465,0,0,0,.141-.678c.254.367.96-.056.9-.452-1.469.367-1.214-1.045-2.316-1.525-.4-.169-.508,0-.932.141a2.8,2.8,0,0,1-.96.057h.028l.452.141a2.775,2.775,0,0,1-.452-.141h-.056a3.739,3.739,0,0,0-2.655,0,1.97,1.97,0,0,0,1.13.2c-.226.508-1.214.565-1.017,1.327.678.226,1.921-.537,1.864.452C232.062,297.746,231.695,298.085,231.751,298.509Z" transform="translate(0 -21.782)" fill="#a4dd05"/>
    <path id="Path_227390" data-name="Path 227390" d="M237.571,299.662c.367-.282.989-1.158,1.412-1.158.056.282.169.339.4.254.028.085.2.254.2.4a.422.422,0,0,0,.2-.085c.056.028.028.113.113.113a1.056,1.056,0,0,0,.254-.734c0-.508,0-.4-.311-.593a3.707,3.707,0,0,0-1.751-.4l.2.141a2.991,2.991,0,0,0-1.977-.113,9.687,9.687,0,0,1,1.582.2.664.664,0,0,1,.056.226c-.226.2-.537.2-.706.452a1.15,1.15,0,0,0,.621.028C238.023,298.9,237.147,299.266,237.571,299.662Z" transform="translate(-4.521 -23.443)" fill="#89c408"/>
    <path id="Path_227391" data-name="Path 227391" d="M233.623,299.171a1.125,1.125,0,0,0-1.525-.056.358.358,0,0,0-.028-.169c-.028,0-.169-.028-.113.057l.056.141a.879.879,0,0,1-.113.169C232.408,299.538,233.2,299.171,233.623,299.171Z" transform="translate(-1.363 -24.506)" fill="#c7f22c"/>
    <path id="Path_227392" data-name="Path 227392" d="M237.6,304.852a.028.028,0,0,1,.028-.028l.169-.424Z" transform="translate(-5.453 -28.492)" fill="#c7f22c"/>
    <path id="Path_227393" data-name="Path 227393" d="M239.716,303.165l.141.169c.141-1.045-1.017.4-1.13.4.028.254-.085.48-.311.508-.141-.254-.537-.678-.791-.452a2.614,2.614,0,0,0,.141-.282c-.056.056-.169.2-.226.254a2.487,2.487,0,0,0-.141.424c.113-.028.48-.169.565-.113.339.141.113.169.339.452a4.682,4.682,0,0,1,.65.876C238.9,304.831,238.812,303.08,239.716,303.165Z" transform="translate(-5.31 -27.454)" fill="#c7f22c"/>
    <path id="Path_227394" data-name="Path 227394" d="M242.248,269.412c-.452.734-1.243,3.079-.791,4.039.226,1.271,2.344,1.892,3.417,2.147,3.163.678,14.065,1.412,19.432-.508,2.4-.876,1.723-4.237,1.045-5.395-1.949-3.389-5.169-5-12.427-5C248.716,264.639,244.395,265.853,242.248,269.412Z" transform="translate(-8.124)" fill="#ffa910"/>
    <path id="Path_227395" data-name="Path 227395" d="M265.477,280.076a9.271,9.271,0,0,0-.565-.876,4.809,4.809,0,0,1-1.469,3.022c-1.892,1.751-5.169,1.921-7.6,2.062-2.231.141-12.794.508-14.065-3.135a4.364,4.364,0,0,0-.226,2.683c.226,1.271,2.344,1.892,3.417,2.146,3.163.678,14.065,1.412,19.432-.508C266.8,284.595,266.126,281.234,265.477,280.076Z" transform="translate(-8.193 -10.409)" fill="#ea9103"/>
    <path id="Path_227396" data-name="Path 227396" d="M256.968,304.7a5.15,5.15,0,0,1,1.751-1.073c.734-.2,1.723-.508,1.836-1.384-1.666-.085-3.587.028-5.2-.113-.9-.085-2.2-.085-3.05-.254-.621-.113-1.356-.593-1.695-.226v.057c-.141.226.2.988.282,1.3a2.34,2.34,0,0,0,.819,1.356c.678.508,1.638,1.412,1.553,2.4C254.427,305.75,255.782,305.665,256.968,304.7Z" transform="translate(-14.767 -26.424)" fill="#ffd215"/>
    <path id="Path_227397" data-name="Path 227397" d="M256.968,304.763a5.15,5.15,0,0,1,1.751-1.073c.734-.2,1.723-.508,1.836-1.384h-.085c-1.921,1.073-4.265,1.412-5.818,3.022a.83.83,0,0,1-1.3-.169c-.876-1.13-2.4-1.977-2.316-3.559a.555.555,0,0,0-.424.141v.056c-.141.226.2.988.282,1.3a2.34,2.34,0,0,0,.819,1.356c.678.508,1.638,1.412,1.553,2.4C254.427,305.808,255.782,305.724,256.968,304.763Z" transform="translate(-14.767 -26.483)" fill="#fce665"/>
    <path id="Path_227398" data-name="Path 227398" d="M292.6,306.2h0Z" transform="translate(-44.92 -29.784)" fill="#a4dd05"/>
    <path id="Path_227399" data-name="Path 227399" d="M303.144,300.557a.664.664,0,0,0-.226.056c.028-.028.028-.056.028-.113a8.965,8.965,0,0,0-2.26.48c-.734.226-1.553-.056-2.175.282a5.145,5.145,0,0,1-2.09.819c-.763.113-1.582-.226-2.259.057l-.763-.057c.339.085.339.565,1.214.565a3.793,3.793,0,0,1,.085.96c.65.085,1.3-.226,1.921.085-.113.085-.2.282-.282.367.96-.085,1.186-.282,1.158-1.158.65-.028,1.045.282,1.553.2.508-.113.932-.65.4-1.045.169.028.537.4.876.2.2-.141,0-.791.593-.65-.028.056-.085.113-.113.169C301.308,301.856,303.144,301.178,303.144,300.557Z" transform="translate(-45.494 -25.694)" fill="#a4dd05"/>
    <path id="Path_227400" data-name="Path 227400" d="M295.338,295.381c-.4.282-.706.593-1.186.282-.282-.2-.424-.791-.621-.932-.593-.367-1.356.4-1.779.763-.763.678-.847.057-1.61-.057-.678-.085-1.073-.141-1.243-1.017a2.828,2.828,0,0,0-1.553.169c-.2.2-.085.48-.169.734-.113.311-.141.282-.367.537-1.553,1.582-1.638.254-2.457.508-.141.057-.226.593-.452.763-.4.311-1.017-.028-.621.593.056.056.169-.028.141.056-.424.678.169.9.763.9.763.028.932-.339,1.5-.706.508-.311,2.768-.2,3.022.311.537-.565,1.073-.056,1.695-.141s.65-.791,1.158-.96a6.829,6.829,0,0,1,.763,0,4.67,4.67,0,0,0,.9-.2c.621-.169,1.186-.508,1.808-.65C295.028,296.171,295.451,295.522,295.338,295.381Z" transform="translate(-38.14 -21.308)" fill="#a4dd05"/>
    <path id="Path_227401" data-name="Path 227401" d="M288.673,297.706c-.282.339-.367.847-.621,1.186-.028-.113-.113-.141-.141-.311-.4.113-.678.508-1.017.706-.4-.085-.678-.311-1.017-.254-.367.056-.706.593-.932.621.028.113-.085.141-.056.254.113-.141.311-.169.424-.254,0,.141.085.226.085.367a.643.643,0,0,1,.621.254,3.494,3.494,0,0,1,.4-.508c0,.057-.028.141-.028.169.2-.282.508-.763.876-.452a.991.991,0,0,1,.141-.226c.565.4,1.214-.367,2.005.141-.621-.876-.537-1.3.2-2.4C289.351,297.339,288.927,297.4,288.673,297.706Z" transform="translate(-39.383 -23.182)" fill="#9dc606"/>
    <path id="Path_227402" data-name="Path 227402" d="M301.646,297h0c-.028.028,0,.028,0,0Z" transform="translate(-51.396 -23.182)" fill="#9dc606"/>
    <path id="Path_227403" data-name="Path 227403" d="M313.366,297.663c-.282.226-.65.311-.847.621-.565-.565-.452.537-.819.65.424-.2.734.254,1.073.2.452-.085.791-.9,1.1-.9.763-.028,1.61.226,1.525-.226-.621-.2-1.836-.254-1.271-1.1C313.875,297.1,313.705,297.437,313.366,297.663Z" transform="translate(-58.625 -23.11)" fill="#9dc606"/>
    <path id="Path_227404" data-name="Path 227404" d="M335.011,297c-.254.4-1.695-.2-2.118.254a2.2,2.2,0,0,0-.593,1.13c.65-.452.876-.593,1.553-.424C334.5,298.13,334.983,297.706,335.011,297Z" transform="translate(-73.407 -23.182)" fill="#9dc606"/>
    <path id="Path_227405" data-name="Path 227405" d="M325.3,292.6c-.367.311-1.1.819-1.017,1.327.141-.113.141-.056.311,0,.226.2.593.141.9.282-.085.254.028.311.085.508.537-.4.4.876,1.1.593.424-.169.226-.932.367-1.3a1.521,1.521,0,0,1,.989-.96c.4-.085.9.226,1.214-.085-1.13.339-1.017-.537-1.61-1.3-.282-.367-.282-.565-.847-.367-.367.113-.65.339-.593.763C326.034,292.318,325.61,292.347,325.3,292.6Z" transform="translate(-67.649 -19.037)" fill="#a4dd05"/>
    <path id="Path_227406" data-name="Path 227406" d="M297.7,296.476l.056.2a.4.4,0,0,1,.056-.169c-.028,0-.028.028-.056.028C297.757,296.335,297.7,296.476,297.7,296.476Z" transform="translate(-48.579 -22.771)" fill="#c7f22c"/>
    <path id="Path_227407" data-name="Path 227407" d="M300.021,296.7a.847.847,0,0,1,.9-.169,1.791,1.791,0,0,0-.791-.537c-.593-.2-.4-.113-.593-.706-.056.085-.48.028-.565.085-.2-.48-.678-.169-.876.169a3.164,3.164,0,0,1,.367-.141.675.675,0,0,1,.085.254,3.7,3.7,0,0,0,.763-.169c.085.452-.282.932-.508,1.327a3.2,3.2,0,0,1,.367-.282.17.17,0,0,0-.028.113C299.427,296.418,299.908,296.192,300.021,296.7Z" transform="translate(-48.866 -21.838)" fill="#c7f22c"/>
    <path id="Path_227408" data-name="Path 227408" d="M308,300.1l.169.169A.48.48,0,0,0,308,300.1Z" transform="translate(-55.97 -25.407)" fill="#c7f22c"/>
    <path id="Path_227409" data-name="Path 227409" d="M327.61,293.718c-.141-.113-.282-.056-.452-.113-.226.621-.424.282-.593.48-.311.339-.028.452.4.48.226-.113.424.113.565.254-.169-.621.169-.9.65-.4.311-.565-.085-1.553.9-1.1.113-.311-.028-.565-.367-.508.056-1.553-.96-.141-.678.508A1.438,1.438,0,0,1,327.61,293.718Z" transform="translate(-69.197 -19.674)" fill="#c7f22c"/>
    <path id="Path_227410" data-name="Path 227410" d="M314.173,296.3a7.768,7.768,0,0,1-1.073.65v.141c.141-.056.226-.226.339,0a.829.829,0,0,1,.763-.254c0-.169.113-.311.141-.508l.226.113a.787.787,0,0,1,.339-.48C314.908,295.365,314.286,296.184,314.173,296.3Z" transform="translate(-59.63 -22.281)" fill="#c7f22c"/>
    <path id="Path_227411" data-name="Path 227411" d="M298.707,302.692c.791-.876,1.3-.113,1.949.339.4-.678-.452-.48-.565-.706a.461.461,0,0,1,.424-.65c-.028-.508-.763.056-.4-.876-.226.141-.4.367-.621.537-.311-.763-.763.085-.9.339-.028-.169-.169-.311-.226-.508-.621.056-.282.678-.678.9-.339.226-.819-.339-1.186-.028V301.9a2.408,2.408,0,0,0-.9-.056c.311.311,1.271.621.9,1.13.367-.537.819-.056,1.045.282a.542.542,0,0,1,.565-.141C298.085,302.805,298.453,302.071,298.707,302.692Z" transform="translate(-47.072 -25.909)" fill="#9dc606"/>
    <path id="Path_227412" data-name="Path 227412" d="M246.2,289.7v0Z" transform="translate(-11.625 -17.8)" fill="#ffc127"/>
    <path id="Path_227413" data-name="Path 227413" d="M249.469,271.059a2.305,2.305,0,0,1,2.316-1.158,1.571,1.571,0,0,0,1.384-.4c.65-.565.565-.593,1.327-.565a6.648,6.648,0,0,0,3.079-.678c1.3-.537,2.288-.141,3.672-.085a8.993,8.993,0,0,1,2.6.48c.706.254,1.61.621,2.231.876.565.226.96,1.384,1.553,1.327.367-.028.876-.96.452-1.638a6.159,6.159,0,0,0-2.881-1.384c-1.271-.254-2.683-.508-3.954-.763a12.306,12.306,0,0,0-6.552.339,12.587,12.587,0,0,1-1.412.621c-.537.141-1.243.565-1.779.678C250.881,268.941,248.226,270.382,249.469,271.059Z" transform="translate(-13.736 -1.506)" fill="#ffc127"/>
    <path id="Path_227414" data-name="Path 227414" d="M246.2,290.356v0Z" transform="translate(-11.625 -18.374)" fill="#ffc127"/>
    <path id="Path_227415" data-name="Path 227415" d="M269.3,325.623a3.478,3.478,0,0,1,.565-.056c.028-.028.028-.056.057-.085A.967.967,0,0,0,269.3,325.623Z" transform="translate(-28.2 -43.614)" fill="#ba793e"/>
    <path id="Path_227416" data-name="Path 227416" d="M273.724,324.18a1.676,1.676,0,0,0-.48.113,4.456,4.456,0,0,1,.339-.424c-.169.113-.367.254-.537.367.056-.113.056-.311.141-.424a1.87,1.87,0,0,0-.621.424,2.533,2.533,0,0,1,.424-.537,2.294,2.294,0,0,0-.819.537c.056,0,.113-.057.141-.057l-.2.141c.028-.028.028-.057.056-.057h-.056c-.028-.028-.028-.113-.028-.169a4.258,4.258,0,0,1-1.073.2,2.233,2.233,0,0,1-.113.254c.339-.085.791-.4,1.13-.254-.141.113-.226.282-.367.424a2.131,2.131,0,0,1,.678-.226c-.113.085-.169.226-.282.311.169-.085.367-.141.537-.226,0,.056-.056.056-.056.113C272.934,324.519,273.357,324.378,273.724,324.18Z" transform="translate(-29.348 -42.341)" fill="#ba793e"/>
    <path id="Path_227417" data-name="Path 227417" d="M275.3,325.4c-.028,0-.085.056-.141.056-.028.028-.028.056-.056.056Z" transform="translate(-32.362 -43.561)" fill="#ba793e"/>
    <path id="Path_227418" data-name="Path 227418" d="M296.126,326.1a1.937,1.937,0,0,1-.226.085h0A1.161,1.161,0,0,0,296.126,326.1Z" transform="translate(-47.287 -44.063)" fill="#ba793e"/>
    <path id="Path_227419" data-name="Path 227419" d="M286.9,323.241a.615.615,0,0,0,.226-.141A.615.615,0,0,1,286.9,323.241Z" transform="translate(-40.829 -41.911)" fill="#ba793e"/>
    <path id="Path_227420" data-name="Path 227420" d="M284.485,324.378c.141-.085.254-.169.4-.254-.367.113-.734.339-1.1.452.339-.282.791-.424,1.158-.706-.593.056-1.158.593-1.751.621a2.716,2.716,0,0,1,.621-.508c-.254.056-.48.2-.734.254a1.77,1.77,0,0,1,.537-.48,3.871,3.871,0,0,1-1.045.48,2.056,2.056,0,0,1,.508-.48,8.4,8.4,0,0,1-.847.508,4.453,4.453,0,0,1,.339-.424c-.226.113-.48.226-.706.339a2.587,2.587,0,0,1,.593-.48c-.169.085-.4.169-.565.254.028,0,.056-.028.113-.028l-.452.311a.831.831,0,0,1,.339-.282,1.884,1.884,0,0,0-.593.254c.056-.028.141-.056.2-.085a4.268,4.268,0,0,1-.791.621,5.482,5.482,0,0,1,1.1-.339,1.305,1.305,0,0,0-.2.2c.226-.085.48-.226.734-.311a1.7,1.7,0,0,1-.226.226,2.032,2.032,0,0,1,.537-.113.846.846,0,0,0-.113.226c.254,0,.508-.141.734-.056-.028.056-.028.169-.056.254.282-.085.593-.226.876-.311a2.547,2.547,0,0,1-.2.311,2.889,2.889,0,0,0,1.1-.4c.226-.2.593-.311.819-.48C285.36,324.039,284.937,324.293,284.485,324.378Z" transform="translate(-36.381 -42.341)" fill="#ba793e"/>
    <path id="Path_227421" data-name="Path 227421" d="M283.7,324.811l.452-.311c-.028,0-.085.028-.113.028A1.13,1.13,0,0,0,283.7,324.811Z" transform="translate(-38.533 -42.915)" fill="#ba793e"/>
    <path id="Path_227422" data-name="Path 227422" d="M296.5,326.611a3.686,3.686,0,0,1,.48-.226l.085-.085Z" transform="translate(-47.718 -44.207)" fill="#ba793e"/>
    <path id="Path_227423" data-name="Path 227423" d="M296.693,324.95a4.179,4.179,0,0,1-.593.367,2.979,2.979,0,0,1,.678-.169,6.346,6.346,0,0,1,.593-.339,3.062,3.062,0,0,1,.819-.508C297.738,324.5,297.2,324.7,296.693,324.95Z" transform="translate(-47.431 -42.772)" fill="#ba793e"/>
    <path id="Path_227424" data-name="Path 227424" d="M302.394,324.013a10.209,10.209,0,0,1-.989.367c.169-.169.367-.311.537-.452-.4.141-.763.4-1.13.565a1.968,1.968,0,0,1,.565-.508c-.311.141-.678.339-.989.508a3.408,3.408,0,0,1,.678-.593c-.452.226-.932.424-1.384.678a2.551,2.551,0,0,0-.282.254c.311-.085.565-.311.876-.367a3.143,3.143,0,0,0-.424.339,5.1,5.1,0,0,1,.593-.226,1.08,1.08,0,0,0-.226.311,5.285,5.285,0,0,0,1.384-.452,2.542,2.542,0,0,1-.282.254A9.946,9.946,0,0,0,302.394,324.013Z" transform="translate(-49.799 -42.485)" fill="#ba793e"/>
    <path id="Path_227425" data-name="Path 227425" d="M300.456,326.1l-.056.056h0l.056-.056Z" transform="translate(-50.516 -44.063)" fill="#ba793e"/>
    <path id="Path_227426" data-name="Path 227426" d="M314.8,325.741h0c.028-.056.056-.085.056-.141Z" transform="translate(-60.849 -43.704)" fill="#ba793e"/>
    <path id="Path_227427" data-name="Path 227427" d="M318.531,320.4a6.944,6.944,0,0,0-1.1.621c.141-.169.282-.339.424-.48a5.286,5.286,0,0,0-.819.565,3.434,3.434,0,0,1,.424-.48c-.254.169-.508.367-.734.537.113-.141.169-.339.282-.48-.311.2-.593.4-.876.593a2.129,2.129,0,0,1,.254-.254,15.572,15.572,0,0,0-1.638.96.239.239,0,0,0,0,.2c.537-.282,1.017-.65,1.553-.96a2.355,2.355,0,0,1-.339.226,1.5,1.5,0,0,1,.48-.226c-.085.113-.141.254-.226.367a4.953,4.953,0,0,0,.791-.367,1.329,1.329,0,0,0-.085.254,2.243,2.243,0,0,0,.734-.367l-.339.254A3.974,3.974,0,0,0,318.531,320.4Z" transform="translate(-60.796 -39.973)" fill="#ba793e"/>
    <g id="Group_2985" data-name="Group 2985" transform="translate(237.021 275.843)">
      <path id="Path_227428" data-name="Path 227428" d="M255.21,304.235c-.96.452.282,1.214.989.847C257.3,304.518,255.859,303.981,255.21,304.235Z" transform="translate(-254.859 -304.17)" fill="#fce665"/>
      <path id="Path_227429" data-name="Path 227429" d="M255.688,304.554c-.876.424.254,1.1.932.763C257.609,304.808,256.282,304.328,255.688,304.554Z" transform="translate(-255.225 -304.405)" fill="#e5bb0a"/>
    </g>
    <g id="Group_2986" data-name="Group 2986" transform="translate(240.382 276.6)">
      <path id="Path_227430" data-name="Path 227430" d="M266.94,307c-.593.508.424.791.847.4C268.465,306.807,267.363,306.722,266.94,307Z" transform="translate(-266.758 -306.849)" fill="#fce665"/>
      <path id="Path_227431" data-name="Path 227431" d="M267.28,307.151c-.537.452.367.734.791.367C268.692,306.981,267.675,306.9,267.28,307.151Z" transform="translate(-267.014 -306.967)" fill="#e5bb0a"/>
    </g>
    <g id="Group_2987" data-name="Group 2987" transform="translate(238.71 278.096)">
      <path id="Path_227432" data-name="Path 227432" d="M261,312.191c-.452.254.169.593.508.4C262.041,312.275,261.335,312.05,261,312.191Z" transform="translate(-260.837 -312.148)" fill="#fce665"/>
      <path id="Path_227433" data-name="Path 227433" d="M261.215,312.282c-.424.226.141.537.48.367C262.176,312.339,261.526,312.141,261.215,312.282Z" transform="translate(-261 -312.211)" fill="#e5bb0a"/>
    </g>
    <g id="Group_2988" data-name="Group 2988" transform="translate(247.104 279.145)">
      <path id="Path_227434" data-name="Path 227434" d="M290.91,315.93c-.96.452.282,1.186.989.847C293.028,316.184,291.559,315.675,290.91,315.93Z" transform="translate(-290.559 -315.862)" fill="#fce665"/>
      <path id="Path_227435" data-name="Path 227435" d="M291.388,316.154c-.876.424.254,1.1.932.763C293.337,316.408,292.01,315.928,291.388,316.154Z" transform="translate(-290.925 -316.031)" fill="#e5bb0a"/>
    </g>
    <g id="Group_2989" data-name="Group 2989" transform="translate(244.167 284.524)">
      <path id="Path_227436" data-name="Path 227436" d="M280.51,334.96c-.96.452.282,1.186.989.847C282.628,335.243,281.159,334.734,280.51,334.96Z" transform="translate(-280.159 -334.906)" fill="#fce665"/>
      <path id="Path_227437" data-name="Path 227437" d="M280.988,335.254c-.876.424.254,1.1.932.763C282.937,335.508,281.582,335.028,280.988,335.254Z" transform="translate(-280.525 -335.115)" fill="#e5bb0a"/>
    </g>
    <g id="Group_2990" data-name="Group 2990" transform="translate(247.33 284.269)">
      <path id="Path_227438" data-name="Path 227438" d="M291.54,334.173c-.593.508.424.791.847.4C293.065,333.975,291.935,333.862,291.54,334.173Z" transform="translate(-291.358 -334.005)" fill="#fce665"/>
      <path id="Path_227439" data-name="Path 227439" d="M291.88,334.319c-.537.452.367.734.791.367C293.292,334.149,292.247,334.036,291.88,334.319Z" transform="translate(-291.614 -334.122)" fill="#e5bb0a"/>
    </g>
    <g id="Group_2991" data-name="Group 2991" transform="translate(252.19 278.849)">
      <path id="Path_227440" data-name="Path 227440" d="M308.633,315.063c-.282.424.424.452.621.113C309.593,314.639,308.859,314.781,308.633,315.063Z" transform="translate(-308.567 -314.812)" fill="#fce665"/>
      <path id="Path_227441" data-name="Path 227441" d="M308.822,315.144c-.282.4.367.4.593.113C309.726,314.777,309.048,314.89,308.822,315.144Z" transform="translate(-308.7 -314.893)" fill="#e5bb0a"/>
    </g>
    <g id="Group_2992" data-name="Group 2992" transform="translate(239.141 284.03)">
      <path id="Path_227442" data-name="Path 227442" d="M262.573,333.168c-.508.141.028.593.424.48C263.589,333.451,262.912,333.084,262.573,333.168Z" transform="translate(-262.365 -333.156)" fill="#fce665"/>
      <path id="Path_227443" data-name="Path 227443" d="M262.834,333.284c-.452.141.028.565.4.452C263.766,333.566,263.144,333.228,262.834,333.284Z" transform="translate(-262.57 -333.243)" fill="#e5bb0a"/>
    </g>
    <g id="Group_2993" data-name="Group 2993" transform="translate(243.162 265.74)">
      <path id="Path_227444" data-name="Path 227444" d="M277.391,268.8c-.424,0-.565.226-.791.508C277.052,269.619,278.012,268.913,277.391,268.8Z" transform="translate(-276.6 -268.687)" fill="#bc8122" opacity="0.48"/>
      <path id="Path_227445" data-name="Path 227445" d="M277.463,268.4c-.424.028-.565.282-.763.565C277.152,269.219,278.084,268.485,277.463,268.4Z" transform="translate(-276.672 -268.4)" fill="#fcecbb"/>
      <path id="Path_227446" data-name="Path 227446" d="M277.665,268.589a.455.455,0,0,0-.254.085.611.611,0,0,0-.311.339h0l.056-.057c.028-.056.085-.085.113-.141a.567.567,0,0,1,.226-.113.523.523,0,0,1,.2-.056c.056,0,.141.028.2,0C277.834,268.56,277.721,268.589,277.665,268.589Z" transform="translate(-276.959 -268.532)" fill="#fff"/>
    </g>
    <g id="Group_2994" data-name="Group 2994" transform="translate(246.381 267.661)">
      <path id="Path_227447" data-name="Path 227447" d="M288.791,275.6c-.424,0-.565.226-.791.508C288.424,276.419,289.384,275.713,288.791,275.6Z" transform="translate(-288 -275.487)" fill="#bc8122" opacity="0.48"/>
      <path id="Path_227448" data-name="Path 227448" d="M288.763,275.2c-.424.028-.565.282-.763.565C288.452,276.019,289.384,275.285,288.763,275.2Z" transform="translate(-288 -275.2)" fill="#fcecbb"/>
      <path id="Path_227449" data-name="Path 227449" d="M288.965,275.389a.455.455,0,0,0-.254.085.611.611,0,0,0-.311.339h0l.056-.057c.028-.056.085-.085.113-.141a.568.568,0,0,1,.226-.113.523.523,0,0,1,.2-.056c.057,0,.141.028.2,0C289.134,275.36,289.021,275.389,288.965,275.389Z" transform="translate(-288.287 -275.332)" fill="#fff"/>
    </g>
    <g id="Group_2995" data-name="Group 2995" transform="translate(236.835 268.169)">
      <path id="Path_227450" data-name="Path 227450" d="M254.991,277.4c-.424,0-.565.254-.791.508C254.624,278.219,255.612,277.541,254.991,277.4Z" transform="translate(-254.2 -277.287)" fill="#bc8122" opacity="0.48"/>
      <path id="Path_227451" data-name="Path 227451" d="M254.963,277c-.424.028-.565.282-.763.565C254.652,277.819,255.584,277.085,254.963,277Z" transform="translate(-254.2 -277)" fill="#fcecbb"/>
      <path id="Path_227452" data-name="Path 227452" d="M255.165,277.2a.456.456,0,0,0-.254.085.611.611,0,0,0-.311.339h0l.056-.057c.028-.056.085-.085.113-.141a.567.567,0,0,1,.226-.113.523.523,0,0,1,.2-.056c.056,0,.141.028.2,0A.34.34,0,0,0,255.165,277.2Z" transform="translate(-254.487 -277.144)" fill="#fff"/>
    </g>
    <g id="Group_2996" data-name="Group 2996" transform="translate(241.269 268.382)">
      <path id="Path_227453" data-name="Path 227453" d="M270.606,278.092c-.254-.2-.452-.113-.706-.028C270.041,278.431,270.945,278.431,270.606,278.092Z" transform="translate(-269.9 -277.91)" fill="#bc8122" opacity="0.48"/>
      <path id="Path_227454" data-name="Path 227454" d="M270.806,277.851a.7.7,0,0,0-.706,0C270.241,278.219,271.145,278.162,270.806,277.851Z" transform="translate(-270.044 -277.754)" fill="#fcecbb"/>
      <path id="Path_227455" data-name="Path 227455" d="M270.937,277.928a.408.408,0,0,0-.2-.057.462.462,0,0,0-.339.057h.056c.056,0,.085-.028.141-.028a.358.358,0,0,1,.169.028c.056,0,.085.028.141.056.028.028.085.085.113.085A.113.113,0,0,0,270.937,277.928Z" transform="translate(-270.259 -277.831)" fill="#fff"/>
    </g>
    <g id="Group_2997" data-name="Group 2997" transform="translate(248.951 271.093)">
      <path id="Path_227456" data-name="Path 227456" d="M297.806,287.692c-.254-.2-.452-.113-.706-.028C297.241,288.031,298.145,288.031,297.806,287.692Z" transform="translate(-297.1 -287.51)" fill="#bc8122" opacity="0.48"/>
      <path id="Path_227457" data-name="Path 227457" d="M298.006,287.451a.7.7,0,0,0-.706,0C297.441,287.819,298.345,287.762,298.006,287.451Z" transform="translate(-297.243 -287.354)" fill="#fcecbb"/>
      <path id="Path_227458" data-name="Path 227458" d="M298.137,287.528a.408.408,0,0,0-.2-.056.462.462,0,0,0-.339.056h.056c.056,0,.085-.028.141-.028a.358.358,0,0,1,.169.028.216.216,0,0,1,.141.056c.028.028.085.085.113.085C298.25,287.585,298.165,287.557,298.137,287.528Z" transform="translate(-297.459 -287.431)" fill="#fff"/>
    </g>
    <g id="Group_2998" data-name="Group 2998" transform="translate(248.443 266.631)">
      <path id="Path_227459" data-name="Path 227459" d="M296.006,271.892c-.254-.2-.452-.113-.706-.028C295.441,272.231,296.345,272.231,296.006,271.892Z" transform="translate(-295.3 -271.71)" fill="#bc8122" opacity="0.48"/>
      <path id="Path_227460" data-name="Path 227460" d="M296.206,271.651a.7.7,0,0,0-.706,0C295.641,272.019,296.545,271.99,296.206,271.651Z" transform="translate(-295.444 -271.554)" fill="#fcecbb"/>
      <path id="Path_227461" data-name="Path 227461" d="M296.337,271.728a.408.408,0,0,0-.2-.057.462.462,0,0,0-.339.057h.056c.056,0,.085-.028.141-.028a.358.358,0,0,1,.169.028c.056,0,.085.028.141.056.028.028.085.085.113.085C296.45,271.785,296.393,271.757,296.337,271.728Z" transform="translate(-295.659 -271.63)" fill="#fff"/>
    </g>
    <g id="Group_2999" data-name="Group 2999" transform="translate(254.148 268.862)">
      <path id="Path_227462" data-name="Path 227462" d="M316.206,279.792c-.254-.2-.452-.113-.706-.028C315.641,280.131,316.517,280.131,316.206,279.792Z" transform="translate(-315.5 -279.61)" fill="#bc8122" opacity="0.48"/>
      <path id="Path_227463" data-name="Path 227463" d="M316.306,279.551a.7.7,0,0,0-.706,0C315.769,279.919,316.645,279.862,316.306,279.551Z" transform="translate(-315.572 -279.454)" fill="#fcecbb"/>
      <path id="Path_227464" data-name="Path 227464" d="M316.537,279.628a.408.408,0,0,0-.2-.056.462.462,0,0,0-.339.056h.056c.057,0,.085-.028.141-.028a.358.358,0,0,1,.169.028c.057,0,.085.028.141.056.028.028.085.085.113.085C316.65,279.685,316.565,279.657,316.537,279.628Z" transform="translate(-315.859 -279.53)" fill="#fff"/>
    </g>
    <g id="Group_3000" data-name="Group 3000" transform="translate(238.981 271.291)">
      <path id="Path_227465" data-name="Path 227465" d="M262.506,288.392c-.254-.2-.452-.113-.706-.028C261.941,288.7,262.845,288.731,262.506,288.392Z" transform="translate(-261.8 -288.21)" fill="#bc8122" opacity="0.48"/>
      <path id="Path_227466" data-name="Path 227466" d="M262.706,288.151a.7.7,0,0,0-.706,0C262.141,288.49,263.045,288.462,262.706,288.151Z" transform="translate(-261.944 -288.054)" fill="#fcecbb"/>
      <path id="Path_227467" data-name="Path 227467" d="M262.837,288.228a.408.408,0,0,0-.2-.056.462.462,0,0,0-.339.056h.057c.056,0,.085-.028.141-.028a.358.358,0,0,1,.169.028c.056,0,.085.028.141.056.028.028.085.085.113.085A.1.1,0,0,0,262.837,288.228Z" transform="translate(-262.159 -288.13)" fill="#fff"/>
    </g>
    <g id="Group_3001" data-name="Group 3001" transform="translate(251.635 270.246)">
      <path id="Path_227468" data-name="Path 227468" d="M307.306,284.692c-.254-.2-.452-.113-.706-.028C306.741,285.031,307.617,285.031,307.306,284.692Z" transform="translate(-306.6 -284.51)" fill="#bc8122" opacity="0.48"/>
      <path id="Path_227469" data-name="Path 227469" d="M307.406,284.451a.7.7,0,0,0-.706,0C306.869,284.819,307.745,284.79,307.406,284.451Z" transform="translate(-306.672 -284.354)" fill="#fcecbb"/>
      <path id="Path_227470" data-name="Path 227470" d="M307.637,284.528a.408.408,0,0,0-.2-.056.462.462,0,0,0-.339.056h.057c.056,0,.085-.028.141-.028a.358.358,0,0,1,.169.028.216.216,0,0,1,.141.056c.028.028.085.085.113.085A.24.24,0,0,0,307.637,284.528Z" transform="translate(-306.959 -284.431)" fill="#fff"/>
    </g>
    <g id="Group_3002" data-name="Group 3002" transform="translate(253.047 267.904)">
      <path id="Path_227471" data-name="Path 227471" d="M312.278,276.368c-.311-.056-.452.085-.678.254C311.882,276.9,312.7,276.566,312.278,276.368Z" transform="translate(-311.6 -276.272)" fill="#bc8122" opacity="0.48"/>
      <path id="Path_227472" data-name="Path 227472" d="M312.35,276.072c-.311-.056-.452.113-.65.282C311.982,276.637,312.773,276.241,312.35,276.072Z" transform="translate(-311.672 -276.061)" fill="#fcecbb"/>
      <path id="Path_227473" data-name="Path 227473" d="M312.48,276.2a.48.48,0,0,0-.2.028.408.408,0,0,0-.282.2h0l.028-.028c.028-.028.085-.056.113-.085a.4.4,0,0,1,.169-.056h.141c.028,0,.113.028.141.028C312.621,276.2,312.537,276.2,312.48,276.2Z" transform="translate(-311.887 -276.161)" fill="#fff"/>
    </g>
    <g id="Group_3003" data-name="Group 3003" transform="translate(235.705 270.048)">
      <path id="Path_227474" data-name="Path 227474" d="M250.906,283.992c-.254-.2-.452-.113-.706-.028C250.313,284.331,251.217,284.331,250.906,283.992Z" transform="translate(-250.2 -283.81)" fill="#bc8122" opacity="0.48"/>
      <path id="Path_227475" data-name="Path 227475" d="M251.006,283.751a.7.7,0,0,0-.706,0C250.469,284.119,251.345,284.062,251.006,283.751Z" transform="translate(-250.272 -283.654)" fill="#fcecbb"/>
      <path id="Path_227476" data-name="Path 227476" d="M251.237,283.828a.408.408,0,0,0-.2-.056.462.462,0,0,0-.339.056h.056c.056,0,.085-.028.141-.028a.358.358,0,0,1,.169.028c.056,0,.085.028.141.056.028.028.085.085.113.085C251.321,283.885,251.265,283.828,251.237,283.828Z" transform="translate(-250.559 -283.731)" fill="#fff"/>
    </g>
    <g id="Group_3004" data-name="Group 3004" transform="translate(249.994 265.994)">
      <path id="Path_227477" data-name="Path 227477" d="M300.993,269.7c.424,0,.565.254.791.508C301.36,270.519,300.371,269.813,300.993,269.7Z" transform="translate(-300.793 -269.587)" fill="#bc8122" opacity="0.48"/>
      <path id="Path_227478" data-name="Path 227478" d="M301.074,269.3c.424.028.565.282.763.565C301.385,270.119,300.452,269.385,301.074,269.3Z" transform="translate(-300.846 -269.3)" fill="#fcecbb"/>
      <path id="Path_227479" data-name="Path 227479" d="M301.326,269.488a.456.456,0,0,1,.254.085.611.611,0,0,1,.311.339h0l-.056-.056c-.028-.056-.085-.085-.113-.141a.569.569,0,0,0-.226-.113.524.524,0,0,0-.2-.056c-.056,0-.141.028-.2,0C301.156,269.46,301.269,269.488,301.326,269.488Z" transform="translate(-301.013 -269.432)" fill="#fff"/>
    </g>
    <g id="Group_3005" data-name="Group 3005" transform="translate(249.979 268.141)">
      <path id="Path_227480" data-name="Path 227480" d="M301.105,277.439c.254-.367.537-.311.876-.339C301.981,277.637,300.851,278,301.105,277.439Z" transform="translate(-300.975 -277.043)" fill="#bc8122" opacity="0.48"/>
      <path id="Path_227481" data-name="Path 227481" d="M300.785,277.211c.282-.339.537-.282.9-.311C301.632,277.437,300.5,277.776,300.785,277.211Z" transform="translate(-300.74 -276.9)" fill="#fcecbb"/>
      <path id="Path_227482" data-name="Path 227482" d="M301.066,277.267c.056-.057.141-.113.2-.169a.637.637,0,0,1,.452-.056h-.056a.358.358,0,0,0-.169.028.845.845,0,0,0-.226.113c-.057.028-.113.085-.169.113-.028.028-.056.141-.113.141C300.953,277.379,301.009,277.323,301.066,277.267Z" transform="translate(-300.907 -276.984)" fill="#fff"/>
    </g>
    <g id="Group_3006" data-name="Group 3006" transform="translate(244.472 271.135)">
      <path id="Path_227483" data-name="Path 227483" d="M281.605,288.039c.254-.367.537-.311.876-.339C282.481,288.237,281.351,288.6,281.605,288.039Z" transform="translate(-281.475 -287.643)" fill="#bc8122" opacity="0.48"/>
      <path id="Path_227484" data-name="Path 227484" d="M281.285,287.811c.282-.339.537-.282.9-.311C282.132,288.037,281,288.376,281.285,287.811Z" transform="translate(-281.24 -287.5)" fill="#fcecbb"/>
      <path id="Path_227485" data-name="Path 227485" d="M281.566,287.867c.056-.057.141-.113.2-.169a.637.637,0,0,1,.452-.056h-.056a.359.359,0,0,0-.169.028.568.568,0,0,0-.226.113c-.056.028-.113.085-.169.113-.028.028-.057.141-.113.141C281.453,287.979,281.509,287.923,281.566,287.867Z" transform="translate(-281.407 -287.584)" fill="#fff"/>
    </g>
    <g id="Group_3007" data-name="Group 3007" transform="translate(251.949 266.926)">
      <path id="Path_227486" data-name="Path 227486" d="M308.085,273.139c.254-.367.537-.311.876-.339C308.932,273.337,307.8,273.732,308.085,273.139Z" transform="translate(-307.947 -272.743)" fill="#bc8122" opacity="0.48"/>
      <path id="Path_227487" data-name="Path 227487" d="M307.766,272.911c.282-.339.537-.282.9-.311C308.613,273.165,307.455,273.476,307.766,272.911Z" transform="translate(-307.713 -272.6)" fill="#fcecbb"/>
      <path id="Path_227488" data-name="Path 227488" d="M307.97,272.966c.056-.056.141-.113.2-.169a.637.637,0,0,1,.452-.056h-.056a.358.358,0,0,0-.169.028.568.568,0,0,0-.226.113c-.057.028-.113.085-.169.113-.028.028-.056.141-.113.141C307.857,273.108,307.942,273.023,307.97,272.966Z" transform="translate(-307.833 -272.684)" fill="#fff"/>
    </g>
    <g id="Group_3008" data-name="Group 3008" transform="translate(239.396 269.017)">
      <path id="Path_227489" data-name="Path 227489" d="M263.484,280.4c.424,0,.565.226.791.508C263.823,281.219,262.862,280.513,263.484,280.4Z" transform="translate(-263.277 -280.287)" fill="#bc8122" opacity="0.48"/>
      <path id="Path_227490" data-name="Path 227490" d="M263.474,280c.424.028.565.282.763.565C263.784,280.819,262.852,280.085,263.474,280Z" transform="translate(-263.267 -280)" fill="#fcecbb"/>
      <path id="Path_227491" data-name="Path 227491" d="M263.726,280.189a.456.456,0,0,1,.254.085.611.611,0,0,1,.311.339h0l-.057-.056c-.028-.056-.085-.085-.113-.141a.567.567,0,0,0-.226-.113.523.523,0,0,0-.2-.056c-.056,0-.141.028-.2,0C263.556,280.16,263.669,280.189,263.726,280.189Z" transform="translate(-263.434 -280.132)" fill="#fff"/>
    </g>
    <g id="Group_3009" data-name="Group 3009" transform="translate(245.993 265.784)">
      <path id="Path_227492" data-name="Path 227492" d="M286.832,268.892c.254-.2.452-.113.706-.028C287.4,269.231,286.521,269.231,286.832,268.892Z" transform="translate(-286.726 -268.71)" fill="#bc8122" opacity="0.48"/>
      <path id="Path_227493" data-name="Path 227493" d="M286.7,268.651a.7.7,0,0,1,.706,0C287.24,269.019,286.365,268.962,286.7,268.651Z" transform="translate(-286.626 -268.554)" fill="#fcecbb"/>
      <path id="Path_227494" data-name="Path 227494" d="M286.885,268.728a.409.409,0,0,1,.2-.056.462.462,0,0,1,.339.056h-.056c-.057,0-.085-.028-.141-.028a.358.358,0,0,0-.169.028.216.216,0,0,0-.141.056c-.028.028-.085.085-.113.085A.176.176,0,0,1,286.885,268.728Z" transform="translate(-286.751 -268.631)" fill="#fff"/>
    </g>
    <g id="Group_3010" data-name="Group 3010" transform="translate(242.887 270.472)">
      <path id="Path_227495" data-name="Path 227495" d="M275.832,285.492c.254-.2.452-.113.706-.028C276.4,285.831,275.521,285.831,275.832,285.492Z" transform="translate(-275.726 -285.31)" fill="#bc8122" opacity="0.48"/>
      <path id="Path_227496" data-name="Path 227496" d="M275.7,285.251a.7.7,0,0,1,.706,0C276.24,285.619,275.365,285.59,275.7,285.251Z" transform="translate(-275.626 -285.154)" fill="#fcecbb"/>
      <path id="Path_227497" data-name="Path 227497" d="M275.885,285.328a.408.408,0,0,1,.2-.056.462.462,0,0,1,.339.056h-.056c-.057,0-.085-.028-.141-.028a.358.358,0,0,0-.169.028.216.216,0,0,0-.141.057c-.028.028-.085.085-.113.085A.176.176,0,0,1,275.885,285.328Z" transform="translate(-275.751 -285.231)" fill="#fff"/>
    </g>
    <g id="Group_3011" data-name="Group 3011" transform="translate(248.083 268.664)">
      <path id="Path_227498" data-name="Path 227498" d="M294.236,279.092c.254-.2.452-.113.706-.028C294.829,279.431,293.925,279.431,294.236,279.092Z" transform="translate(-294.13 -278.91)" fill="#bc8122" opacity="0.48"/>
      <path id="Path_227499" data-name="Path 227499" d="M294.1,278.851a.7.7,0,0,1,.706,0C294.64,279.219,293.765,279.19,294.1,278.851Z" transform="translate(-294.026 -278.754)" fill="#fcecbb"/>
      <path id="Path_227500" data-name="Path 227500" d="M294.285,278.928a.408.408,0,0,1,.2-.057.462.462,0,0,1,.339.057h-.056c-.056,0-.085-.028-.141-.028a.358.358,0,0,0-.169.028.216.216,0,0,0-.141.056c-.028.028-.085.085-.113.085A.176.176,0,0,1,294.285,278.928Z" transform="translate(-294.151 -278.831)" fill="#fff"/>
    </g>
    <g id="Group_3012" data-name="Group 3012" transform="translate(244.977 266.857)">
      <path id="Path_227501" data-name="Path 227501" d="M283.236,272.692c.254-.2.452-.113.706-.028C283.829,273.031,282.925,273.031,283.236,272.692Z" transform="translate(-283.13 -272.51)" fill="#bc8122" opacity="0.48"/>
      <path id="Path_227502" data-name="Path 227502" d="M283.1,272.451a.7.7,0,0,1,.706,0C283.64,272.819,282.765,272.762,283.1,272.451Z" transform="translate(-283.026 -272.354)" fill="#fcecbb"/>
      <path id="Path_227503" data-name="Path 227503" d="M283.285,272.528a.408.408,0,0,1,.2-.056.462.462,0,0,1,.339.056h-.056c-.056,0-.085-.028-.141-.028a.358.358,0,0,0-.169.028.216.216,0,0,0-.141.057c-.028.028-.085.085-.113.085A.176.176,0,0,1,283.285,272.528Z" transform="translate(-283.151 -272.431)" fill="#fff"/>
    </g>
    <g id="Group_3013" data-name="Group 3013" transform="translate(240.007 267.704)">
      <path id="Path_227504" data-name="Path 227504" d="M265.732,275.692c.254-.2.452-.113.706-.028C266.3,276.031,265.421,276.031,265.732,275.692Z" transform="translate(-265.6 -275.51)" fill="#bc8122" opacity="0.48"/>
      <path id="Path_227505" data-name="Path 227505" d="M265.508,275.451a.7.7,0,0,1,.706,0C266.073,275.819,265.169,275.762,265.508,275.451Z" transform="translate(-265.433 -275.354)" fill="#fcecbb"/>
      <path id="Path_227506" data-name="Path 227506" d="M265.77,275.528a.408.408,0,0,1,.2-.056.462.462,0,0,1,.339.056h-.056c-.056,0-.085-.028-.141-.028a.358.358,0,0,0-.169.028c-.056,0-.085.028-.141.057-.028.028-.085.085-.113.085C265.657,275.585,265.742,275.557,265.77,275.528Z" transform="translate(-265.61 -275.431)" fill="#fff"/>
    </g>
    <g id="Group_3014" data-name="Group 3014" transform="translate(240.375 266.433)">
      <path id="Path_227507" data-name="Path 227507" d="M267.008,271.092c.254-.2.452-.113.706-.028C267.573,271.431,266.669,271.46,267.008,271.092Z" transform="translate(-266.876 -270.938)" fill="#bc8122" opacity="0.48"/>
      <path id="Path_227508" data-name="Path 227508" d="M266.808,270.951a.7.7,0,0,1,.706,0C267.373,271.29,266.469,271.262,266.808,270.951Z" transform="translate(-266.733 -270.854)" fill="#fcecbb"/>
      <path id="Path_227509" data-name="Path 227509" d="M267.07,271.028a.408.408,0,0,1,.2-.056.462.462,0,0,1,.339.056h-.056c-.056,0-.085-.028-.141-.028a.358.358,0,0,0-.169.028.216.216,0,0,0-.141.056c-.028.028-.085.085-.113.085A.113.113,0,0,1,267.07,271.028Z" transform="translate(-266.91 -270.931)" fill="#fff"/>
    </g>
    <g id="Group_3015" data-name="Group 3015" transform="translate(244.073 268.015)">
      <path id="Path_227510" data-name="Path 227510" d="M280.036,276.792c.254-.2.452-.113.706-.028C280.629,277.131,279.725,277.131,280.036,276.792Z" transform="translate(-279.93 -276.61)" fill="#bc8122" opacity="0.48"/>
      <path id="Path_227511" data-name="Path 227511" d="M279.9,276.551a.7.7,0,0,1,.706,0C280.44,276.919,279.565,276.862,279.9,276.551Z" transform="translate(-279.826 -276.454)" fill="#fcecbb"/>
      <path id="Path_227512" data-name="Path 227512" d="M280.085,276.628a.408.408,0,0,1,.2-.056.462.462,0,0,1,.339.056h-.057c-.056,0-.085-.028-.141-.028a.358.358,0,0,0-.169.028c-.056,0-.085.028-.141.057-.028.028-.085.085-.113.085A.176.176,0,0,1,280.085,276.628Z" transform="translate(-279.951 -276.53)" fill="#fff"/>
    </g>
    <g id="Group_3016" data-name="Group 3016" transform="translate(246.071 269.935)">
      <path id="Path_227513" data-name="Path 227513" d="M287.606,283.592c-.254-.2-.452-.113-.706-.028C287.041,283.931,287.945,283.931,287.606,283.592Z" transform="translate(-286.9 -283.41)" fill="#bc8122" opacity="0.48"/>
      <path id="Path_227514" data-name="Path 227514" d="M287.806,283.351a.7.7,0,0,0-.706,0C287.241,283.719,288.145,283.69,287.806,283.351Z" transform="translate(-287.044 -283.254)" fill="#fcecbb"/>
      <path id="Path_227515" data-name="Path 227515" d="M287.937,283.428a.408.408,0,0,0-.2-.056.462.462,0,0,0-.339.056h.056c.056,0,.085-.028.141-.028a.358.358,0,0,1,.169.028c.056,0,.085.028.141.056.028.028.085.085.113.085C288.05,283.485,287.965,283.457,287.937,283.428Z" transform="translate(-287.259 -283.331)" fill="#fff"/>
    </g>
  </g>
</svg>
