<svg xmlns="http://www.w3.org/2000/svg" width="32" height="16.42" viewBox="0 0 32 16.42">
  <g id="Group_3154" data-name="Group 3154" transform="translate(-316.2 -104.076)">
    <g id="Group_3153" data-name="Group 3153" transform="translate(316.2 104.076)">
      <path id="Path_228369" data-name="Path 228369" d="M317.365,113.475a11.166,11.166,0,0,1,8-4.347h.416c1.064.139,2.127.231,3.191.324,2.22.185,4.81.462,6.937-.37a7.649,7.649,0,0,0,1.48-.324,9.675,9.675,0,0,0,2.127-1.2c.324-.277.277-.509.832-.462.092,0,.324.139.416.139a1.851,1.851,0,0,1,.462,1.711,3.925,3.925,0,0,0,.6,2.359c.231.37.6.231.555.879-.093.647-.786.6-1.064.694a3.843,3.843,0,0,0-1.757.139,6.3,6.3,0,0,0-3.653,2.312,14.08,14.08,0,0,0-2.127,2.5,9.765,9.765,0,0,1-4.255,2.914c-3.237,1.11-7.677,2.4-10.729.092-1.249-.925-2.312-1.757-2.4-3.376A7.069,7.069,0,0,1,317.365,113.475Z" transform="translate(-316.302 -105.695)" fill="#f28706"/>
      <path id="Path_228370" data-name="Path 228370" d="M316.577,115.132a4.171,4.171,0,0,0,.277,1.017,6.193,6.193,0,0,0,6.983,3.838,9.035,9.035,0,0,0,4.255-1.85,10.488,10.488,0,0,0,1.757-2.035,6.41,6.41,0,0,1,2.312-1.85c1.711-.879,3.746-1.341,5.18-2.729a3.815,3.815,0,0,0,1.295-2.081,2.991,2.991,0,0,1,.509-1.711.637.637,0,0,0,.139-.185c.046-.046.093-.046.139-.092.324-.277.277-.509.832-.462.092,0,.324.139.416.139a1.851,1.851,0,0,1,.462,1.711,3.925,3.925,0,0,0,.6,2.359c.231.37.6.231.555.879-.092.647-.786.6-1.064.694a3.843,3.843,0,0,0-1.757.139,6.3,6.3,0,0,0-3.653,2.312,14.08,14.08,0,0,0-2.127,2.5,9.765,9.765,0,0,1-4.255,2.914c-3.237,1.11-7.677,2.4-10.729.092-1.249-.925-2.312-1.757-2.4-3.376A9.411,9.411,0,0,1,316.577,115.132Z" transform="translate(-316.254 -105.641)" fill="#e87e15" opacity="0.67"/>
      <path id="Path_228371" data-name="Path 228371" d="M366.757,107h.139c.092,0,.324.139.416.139a1.851,1.851,0,0,1,.462,1.711,3.925,3.925,0,0,0,.6,2.359c.231.37.6.231.555.879-.092.647-.786.6-1.064.694-.139,0-.324-.046-.462-.046-.046-.046-.139-.092-.185-.139-2.174-1.526-1.757-3.561-.462-5.6Z" transform="translate(-342.801 -105.648)" fill="#d87407" opacity="0.67"/>
      <path id="Path_228372" data-name="Path 228372" d="M366.695,106.993c.093,0,.324.139.416.139a1.851,1.851,0,0,1,.462,1.711,1.993,1.993,0,0,0-.74-.879,1.372,1.372,0,0,0-.509-.185,3.1,3.1,0,0,0-.925,0,3.529,3.529,0,0,0,.509-.37C366.186,107.178,366.14,106.947,366.695,106.993Z" transform="translate(-342.647 -105.641)" fill="#d87407" opacity="0.67"/>
      <path id="Path_228373" data-name="Path 228373" d="M317.264,117.89c.046-.046.046-.092.092-.139a5.369,5.369,0,0,0,2.312,4.671,7.713,7.713,0,0,0,5.272.925,11.733,11.733,0,0,0,5.966-2.821,20.059,20.059,0,0,1,7.492-3.746,2.952,2.952,0,0,0,2.451-.647,1.965,1.965,0,0,0,.462-.786c.046,0,.092-.046.139-.046.046.139.139.231.185.37.231.37.6.37.555.879-.092.139-.092.139-.277.462-.277.092-.509.139-.786.231a3.843,3.843,0,0,0-1.757.139,6.3,6.3,0,0,0-3.653,2.312,14.08,14.08,0,0,0-2.127,2.5,9.765,9.765,0,0,1-4.255,2.914c-3.237,1.11-7.677,2.4-10.729.092-1.249-.925-2.312-1.757-2.4-3.376A7.963,7.963,0,0,1,317.264,117.89Z" transform="translate(-316.2 -110.109)" fill="#d87407" opacity="0.67"/>
      <path id="Path_228374" data-name="Path 228374" d="M323.608,127.147a11.556,11.556,0,0,0,2.821-.046c2.081-.277,3.607-1.434,5.318-2.451a46.773,46.773,0,0,0,5.226-3.237c.832-.694,2.127-2.312,3.607-2.312a4.324,4.324,0,0,1,1.526.185c-.092,0-.786.139-.879.139a6.3,6.3,0,0,0-3.653,2.312,14.078,14.078,0,0,0-2.127,2.5,9.765,9.765,0,0,1-4.255,2.914c-3.237,1.11-7.677,2.4-10.729.092-.37-.277-.74-.555-1.064-.832a5.893,5.893,0,0,0,2.451.786A5.639,5.639,0,0,0,323.608,127.147Z" transform="translate(-317.92 -112.152)" fill="#c45d00" opacity="0.59"/>
      <path id="Path_228375" data-name="Path 228375" d="M318.183,117.828c-.462-.925.231-1.295.832-1.8,1.156-.971,1.9-1.989,3.468-2.5a12.647,12.647,0,0,1,4.717-.786c.971.139,1.11-.092,2.035-.6a3.658,3.658,0,0,1,1.064-.37,14.883,14.883,0,0,0,6.382-.37h.093a4.22,4.22,0,0,1,.37.6c-.879,1.2-3.283.832-4.532,1.2-1.017.324-1.2,1.619-2.127,1.942-.971.37-.971-.925-2.127-.324-1.434.786-2.174,2.4-3.561,3.1-1.11.555-1.341-.185-2.359-.046-1.249.139-1.017,1.387-.462,2.081.555.647,1.942,1.526.647,2.127-.647.277-1.757-.231-2.312-.555-.832-.555-.555-.971-1.064-1.8-.416-.647-1.295-1.156-1.249-2.035Z" transform="translate(-317.165 -108.013)" fill="#f99f00" opacity="0.53"/>
      <path id="Path_228376" data-name="Path 228376" d="M322.6,120.5Z" transform="translate(-319.64 -112.904)" fill="#ffbf4d" opacity="0.61"/>
      <path id="Path_228377" data-name="Path 228377" d="M369.546,109.192l-.046-.092h0A.143.143,0,0,1,369.546,109.192Z" transform="translate(-344.851 -106.777)" fill="#ffbf4d" opacity="0.61"/>
      <path id="Path_228378" data-name="Path 228378" d="M340.246,117.76a.045.045,0,0,0-.046.046l.046-.046Z" transform="translate(-329.101 -111.413)" fill="#ffb069"/>
      <path id="Path_228379" data-name="Path 228379" d="M368.144,106.816a8.749,8.749,0,0,0,2.174-.509c.647-.324.694-.74,1.064-1.249a2.107,2.107,0,0,1,3.191-.416c.786.879-.139.925-.185,1.85-.046.786.694.879,1.11,1.387,1.387,1.572-1.064,1.9-2.22,1.9-.74,0-1.48-.139-2.22-.139a17.24,17.24,0,0,0-2.035.37C368.329,110.1,367.126,107.509,368.144,106.816Z" transform="translate(-343.911 -104.076)" fill="#edc494"/>
      <path id="Path_228380" data-name="Path 228380" d="M379.121,105.216a2.994,2.994,0,0,0,.37-.416.557.557,0,0,1,.231.231c.786.879-.139.925-.185,1.85a1.052,1.052,0,0,0,.555.925,5.105,5.105,0,0,1-2.266-.509C376.393,106.326,378.474,105.725,379.121,105.216Z" transform="translate(-349.061 -104.465)" fill="#dbaf83"/>
      <path id="Path_228381" data-name="Path 228381" d="M368.144,109.946a.787.787,0,0,1,.324-.046,1.7,1.7,0,0,0,2.22,2.081,1.43,1.43,0,0,1,.37-.092h.046c.277,0,.555.046.879.046,1.156.046,2.682-.046,3.376-1.064l.139.139c1.387,1.572-1.064,1.9-2.22,1.9-.74,0-1.48-.139-2.22-.139a17.241,17.241,0,0,0-2.035.37C368.329,113.23,367.126,110.64,368.144,109.946Z" transform="translate(-343.911 -107.207)" fill="#dbaf83"/>
      <path id="Path_228382" data-name="Path 228382" d="M378.568,104.348h-.139c.139,0,.37.092.324.277s-.555.324-.694.37c-.185.046-.879.324-.971.046C376.95,104.579,378.291,104.163,378.568,104.348Z" transform="translate(-348.924 -104.198)" fill="#f7deb0"/>
    </g>
    <path id="Path_228383" data-name="Path 228383" d="M320.759,111.4a31.354,31.354,0,0,1,3.885-2.081,13.456,13.456,0,0,1,4.3.046,34,34,0,0,0,6.8.555c.416,0,1.156-.879,2.035-.6.231.277.37.462.37.555-1.2.74-1.619,3.1-2.682,3.237a12.707,12.707,0,0,0-.092-1.85c-1.156.509-1.434,1.48-2.266,2.266.231,2.127-1.2,3.422-2.544,3.006-1.341-.6.555-6.382-2.266-4.81-.185-.277-.6-.416-.832-.694-.555.6-2.451.37-3.561.971a38.036,38.036,0,0,0-3.1,2.266c-.971.74-2.359,1.434-2.4-.277C318.4,112.6,319.834,111.815,320.759,111.4Z" transform="translate(-1.183 -2.733)" fill="#f9d07d"/>
    <path id="Path_228384" data-name="Path 228384" d="M344.347,115.288a1.4,1.4,0,0,0,2.127-1.11l.139-1.11a1.407,1.407,0,0,0,.37-.37c.416-.555,1.434-2.127,1.989-2.035a2.278,2.278,0,0,0,2.544-1.064.845.845,0,0,1,.277.462c-1.2.74-1.619,3.1-2.636,3.237a12.707,12.707,0,0,0-.092-1.85c-1.156.509-1.434,1.48-2.266,2.266.231,2.127-1.2,3.422-2.544,3.006-.509-.231-.555-1.156-.555-2.174A1.6,1.6,0,0,0,344.347,115.288Z" transform="translate(-14.782 -2.969)" fill="#fcb960"/>
    <path id="Path_228385" data-name="Path 228385" d="M322.916,113.524c1.017-.37,2.359-1.434,3.468-1.249a10.228,10.228,0,0,1,1.156.231c.046.046.092.046.092.092l.046.046c-.555.555-2.451.37-3.515.971a38.027,38.027,0,0,0-3.1,2.266c-.832.6-1.9,1.2-2.266.416a6.353,6.353,0,0,0,.925-.6A13.888,13.888,0,0,1,322.916,113.524Z" transform="translate(-1.398 -4.396)" fill="#fcb960"/>
    <path id="Path_228386" data-name="Path 228386" d="M341.083,110.512c.509.046,1.017.092,1.526.092a9.459,9.459,0,0,1,1.619,0c.046.092,0,.092,0,.185l-.092-.092c.092.37-.74.925-.879,1.387a2.8,2.8,0,0,1,0-.879,5.179,5.179,0,0,0-1.017,1.526c-.462-.277-.231-.971-.509-1.387-.416-.647-.647.092-1.156-.092-.139-.046-.277-.37-.462-.462a2.7,2.7,0,0,0-.879-.185c-.462-.046-1.2.046-1.434-.509C338.771,109.772,340.066,110.419,341.083,110.512Z" transform="translate(-11.611 -3.187)" fill="#ffeab0"/>
    <path id="Path_228387" data-name="Path 228387" d="M321.3,112.714c.37-.185.879-.647,1.249-.879.462-.277,1.942-.6,2.081-1.11a2.333,2.333,0,0,1,1.48-.046l-.046.092c.416.462-.832.6-1.11.694a4.061,4.061,0,0,0-1.526.6c-.971.6-2.312,1.711-3.006,1.48C320.149,113.223,320.842,112.992,321.3,112.714Z" transform="translate(-2.238 -3.494)" fill="#ffeab0"/>
  </g>
</svg>
