<svg xmlns="http://www.w3.org/2000/svg" xmlns:xlink="http://www.w3.org/1999/xlink" width="28.139" height="32" viewBox="0 0 28.139 32">
  <defs>
    <clipPath id="clip-path">
      <path id="Path_229461" data-name="Path 229461" d="M260.7,182.042l9.7,4.355,10.533-4.293-10.564-2.9Z" transform="translate(-260.7 -179.2)"/>
    </clipPath>
  </defs>
  <g id="Group_3330" data-name="Group 3330" transform="translate(-246.8 -144.8)">
    <g id="Group_3328" data-name="Group 3328" transform="translate(246.8 144.8)">
      <path id="Path_229454" data-name="Path 229454" d="M257.974,172.228l-1.174-2.687.741-2.718L264.615,165l1.977,1.05,1.05,3.336Z" transform="translate(-253.711 -158.761)" fill="#f4d9a4"/>
      <path id="Path_229455" data-name="Path 229455" d="M291.9,169.87l1.39-3.151,1.915-1.019,7.846,1.884.525,2.131-1.112,3.058Z" transform="translate(-277.969 -159.244)" fill="#f4d9a4"/>
      <path id="Path_229456" data-name="Path 229456" d="M260.7,188.5l2.873,15.1,7.32,3.4-.463-14.641Z" transform="translate(-256.407 -175.002)" fill="#f9d6a7"/>
      <path id="Path_229457" data-name="Path 229457" d="M270.361,192.361,260.6,188.5l.8,4.232a.686.686,0,0,1,.34.154c1.544,1.081,3.8.988,5.5,1.7a.912.912,0,0,1,.4.062c2.255.741,2.5,4.077,2.656,6.023.124,1.637.154,3.274.124,4.911.031.432.062.865.062,1.3l.278.124Z" transform="translate(-256.337 -175.002)" fill="#e8b989"/>
      <path id="Path_229458" data-name="Path 229458" d="M302.671,188.7,292.2,192.5l.463,14.641,8.031-3.923Z" transform="translate(-278.177 -175.14)" fill="#d8a26c"/>
      <path id="Path_229459" data-name="Path 229459" d="M293,205.194c.062-2.193-.062-4.417.062-6.641.093-1.853.309-3.521,2.471-3.892,1.05-.185,1.73.124,3.181-.741a14.437,14.437,0,0,1,3.429-1.359l.525-3.861L292.2,192.5l.432,14.641.34-.154C292.941,206.275,293,205.565,293,205.194Z" transform="translate(-278.177 -175.14)" fill="#c48e62"/>
      <g id="Group_3324" data-name="Group 3324" transform="translate(4.293 10.625)">
        <g id="Group_3301" data-name="Group 3301" clip-path="url(#clip-path)">
          <path id="Path_229460" data-name="Path 229460" d="M260.7,182.042l9.7,4.355,10.533-4.293-10.564-2.9Z" transform="translate(-260.7 -179.2)" fill="#c9985d"/>
        </g>
        <g id="Group_3302" data-name="Group 3302" clip-path="url(#clip-path)">
          <path id="Path_229462" data-name="Path 229462" d="M267.548,192.4Z" transform="translate(-265.417 -188.323)" fill="#cc7e17"/>
        </g>
        <g id="Group_3303" data-name="Group 3303" clip-path="url(#clip-path)">
          <path id="Path_229464" data-name="Path 229464" d="M281.623,184.521a11.921,11.921,0,0,0-2.286-.618c-.834-.124-1.637.556-2.44.463a5.216,5.216,0,0,1-1.112-.525,5.956,5.956,0,0,0-1.452-.247,5.214,5.214,0,0,0-2.564.309,18.219,18.219,0,0,0-2.131,1.236c-.371.185-.371.463-.68.71-.371.309-.9.278-1.359.432a.03.03,0,0,1,.031.031c.463.278,1.544.525,2.162.927a7.866,7.866,0,0,0,2.965,1.236c1.544.34,3,.865,4.571,1.112.8.124,1.019.278,1.668-.247a7.059,7.059,0,0,1,2.131-1.39c.865-.309,2.656-.309,1.977-1.668A2.813,2.813,0,0,0,281.623,184.521Z" transform="translate(-265.469 -182.204)" fill="#cc7e17"/>
        </g>
        <g id="Group_3304" data-name="Group 3304" clip-path="url(#clip-path)">
          <path id="Path_229466" data-name="Path 229466" d="M267.338,192.23h0C267.091,192.075,267.307,192.2,267.338,192.23Z" transform="translate(-265.207 -188.153)" fill="#cc7e17"/>
        </g>
        <g id="Group_3305" data-name="Group 3305" clip-path="url(#clip-path)">
          <path id="Path_229468" data-name="Path 229468" d="M300.086,184.03c-1.112-.525-3.336-1.236-4.88.741a.533.533,0,0,0-.031.525.955.955,0,0,1,.247.062c.772-1.359,3.027-1.452,4.417-.9,1.359.556,2.811,1.884,2.533,3.521.958.556.278-1.668.062-2.008A5.991,5.991,0,0,0,300.086,184.03Z" transform="translate(-284.488 -182.146)" fill="#f7b54b"/>
          <path id="Path_229469" data-name="Path 229469" d="M295.3,187.662l.031-.031a.03.03,0,0,1,.031-.031Z" transform="translate(-284.613 -185.005)" fill="#f7b54b"/>
          <path id="Path_229470" data-name="Path 229470" d="M302.459,187.492a3.827,3.827,0,0,0-.649-1.019c-.309-.309-.649-.556-.958-.834a1.291,1.291,0,0,1-.309-.124,4.122,4.122,0,0,0-5.344.618.113.113,0,0,0,.031.093.955.955,0,0,1,.247.062c.772-1.359,3.027-1.452,4.417-.9,1.359.556,2.811,1.884,2.533,3.521a.411.411,0,0,0,.216.093,1.551,1.551,0,0,1,.062-.371c0-.031.031-.062.031-.093v-.031C302.613,188.172,302.582,187.832,302.459,187.492Z" transform="translate(-284.544 -183.075)" fill="#e28f20"/>
        </g>
        <g id="Group_3306" data-name="Group 3306" clip-path="url(#clip-path)">
          <path id="Path_229472" data-name="Path 229472" d="M306.387,185.39c-.4-.432-1.112-1.236-1.7-.834-.525.34-.463,1.39-.432,1.822,0,.154.031.309.031.463.031.34.062.68.124,1.019a2.7,2.7,0,0,1,.154.958h0c.031.093.031.216.062.309.031.216.093.432.124.649.154.062.309.124.494.185-.093-.309-.154-.618-.216-.927l-.093-.463a17.82,17.82,0,0,1-.247-1.792c0-.154-.031-.309-.031-.463-.062-.587,0-1.266.247-1.421s.71.309,1.019.618l.154.154c.031.031.062.093.093.124,1.143,1.2,2.409,3,2.008,4.571a1.375,1.375,0,0,1-.371.649c.124.062.278.124.4.185a1.969,1.969,0,0,0,.371-.71c.463-1.761-.9-3.676-2.1-4.973A.427.427,0,0,0,306.387,185.39Z" transform="translate(-290.789 -182.826)" fill="#fcbe59"/>
          <path id="Path_229473" data-name="Path 229473" d="M306.8,185.749c-.587-.432-.834-.247-.9.185v.031a.52.52,0,0,1,.185-.34c.247-.154.71.309,1.019.618l.154.154c.031.031.062.093.093.124,1.143,1.2,2.409,3,2.008,4.571a1.375,1.375,0,0,1-.371.649,3.2,3.2,0,0,0,.309.124c.031-.031.031-.093.062-.124.8-1.421,0-3.151-.9-4.293A10.868,10.868,0,0,0,306.8,185.749Z" transform="translate(-291.939 -183.556)" fill="#f2ab44"/>
          <path id="Path_229474" data-name="Path 229474" d="M305.221,184.474h0a.536.536,0,0,0-.432.093c-.525.34-.463,1.39-.432,1.822,0,.154.031.309.031.463.031.247.062.525.093.8a.6.6,0,0,1,.031.247,3.631,3.631,0,0,1,.154.9h0c.031.093.031.216.062.309.031.216.093.432.124.649a.439.439,0,0,0,.185.062,23.759,23.759,0,0,1-.494-2.9A2.506,2.506,0,0,1,305.221,184.474Z" transform="translate(-290.858 -182.837)" fill="#f2ab44"/>
        </g>
        <g id="Group_3307" data-name="Group 3307" clip-path="url(#clip-path)">
          <path id="Path_229476" data-name="Path 229476" d="M305.087,190.69c-.4-.432-1.112-1.236-1.7-.834-.525.34-.463,1.39-.432,1.822,0,.154.031.309.031.463.031.34.062.68.124,1.019a2.7,2.7,0,0,1,.154.958h0c.031.093.031.216.062.309.031.216.093.432.124.649.154.062.309.124.494.185-.093-.309-.154-.618-.216-.927l-.093-.463a17.827,17.827,0,0,1-.247-1.792c0-.154-.031-.309-.031-.463-.062-.587,0-1.266.247-1.421s.71.309,1.019.618l.154.154c.031.031.062.093.093.124,1.143,1.2,2.409,3,2.008,4.571a1.374,1.374,0,0,1-.371.649c.124.062.278.124.4.185a1.969,1.969,0,0,0,.371-.71c.463-1.761-.9-3.676-2.1-4.973C305.149,190.782,305.118,190.72,305.087,190.69Z" transform="translate(-289.89 -186.489)" fill="#fcbe59"/>
          <path id="Path_229477" data-name="Path 229477" d="M305.4,191.149c-.587-.432-.834-.247-.9.185v.031a.52.52,0,0,1,.185-.34c.247-.154.71.309,1.019.618l.154.154c.031.031.062.093.093.124,1.143,1.2,2.409,3,2.008,4.571a1.375,1.375,0,0,1-.371.649,3.2,3.2,0,0,0,.309.124c.031-.031.031-.093.062-.124.8-1.421,0-3.151-.9-4.293A7.267,7.267,0,0,0,305.4,191.149Z" transform="translate(-290.971 -187.288)" fill="#f2ab44"/>
          <path id="Path_229478" data-name="Path 229478" d="M303.821,189.774h0a.536.536,0,0,0-.432.093c-.525.34-.463,1.39-.432,1.822,0,.154.031.309.031.463.031.247.062.525.093.8a.6.6,0,0,1,.031.247,3.623,3.623,0,0,1,.154.927h0c.031.093.031.216.062.309.031.216.093.432.124.649a.439.439,0,0,0,.185.062,23.758,23.758,0,0,1-.494-2.9A2.582,2.582,0,0,1,303.821,189.774Z" transform="translate(-289.89 -186.5)" fill="#f2ab44"/>
        </g>
        <g id="Group_3308" data-name="Group 3308" clip-path="url(#clip-path)">
          <path id="Path_229480" data-name="Path 229480" d="M271.2,192.862v0Z" transform="translate(-267.957 -188.599)" fill="#f4a640"/>
          <path id="Path_229481" data-name="Path 229481" d="M278,183a5.8,5.8,0,0,0-3-.463c-1.236.124-3.49.68-3.8,3.181a.587.587,0,0,0,.247.463c.062-.031.154-.062.216-.093-.062-1.575,1.822-2.842,3.305-3.058,1.452-.216,3.4.154,3.985,1.668C280.1,184.7,278.366,183.153,278,183Z" transform="translate(-267.957 -181.485)" fill="#f4a640"/>
          <path id="Path_229482" data-name="Path 229482" d="M279.56,184.783h0c-.278-.247-.494-.525-.741-.741a3.885,3.885,0,0,0-1.081-.525c-.432-.093-.834-.154-1.266-.216a1.11,1.11,0,0,1-.34.062,4.1,4.1,0,0,0-4.232,3.305l.062.062c.062-.031.154-.062.216-.093-.062-1.575,1.822-2.842,3.305-3.058,1.452-.216,3.4.154,3.985,1.668.093,0,.185-.031.247-.031a1.106,1.106,0,0,1-.124-.34C279.591,184.844,279.56,184.814,279.56,184.783Z" transform="translate(-268.441 -182.034)" fill="#df901e"/>
        </g>
        <g id="Group_3309" data-name="Group 3309" clip-path="url(#clip-path)">
          <path id="Path_229484" data-name="Path 229484" d="M278.8,189.362l.031-.031a.03.03,0,0,1,.031-.031Z" transform="translate(-273.209 -186.18)" fill="#e89f28"/>
          <path id="Path_229485" data-name="Path 229485" d="M283.686,185.73c-1.112-.525-3.336-1.236-4.88.741a.533.533,0,0,0-.031.525.955.955,0,0,1,.247.062c.772-1.359,3.027-1.452,4.417-.9,1.359.556,2.811,1.884,2.533,3.521.958.556.278-1.668.062-2.008A6.513,6.513,0,0,0,283.686,185.73Z" transform="translate(-273.153 -183.321)" fill="#e89f28"/>
          <path id="Path_229486" data-name="Path 229486" d="M286.059,189.292a3.827,3.827,0,0,0-.649-1.019c-.309-.309-.649-.556-.958-.834a1.291,1.291,0,0,1-.309-.124,4.122,4.122,0,0,0-5.344.618.114.114,0,0,0,.031.093.955.955,0,0,1,.247.062c.772-1.359,3.027-1.452,4.417-.9,1.359.556,2.811,1.884,2.533,3.521a.411.411,0,0,0,.216.093,1.551,1.551,0,0,1,.062-.371.113.113,0,0,1,.031-.093v-.031C286.182,189.972,286.182,189.6,286.059,189.292Z" transform="translate(-273.209 -184.319)" fill="#df901e"/>
        </g>
        <g id="Group_3310" data-name="Group 3310" clip-path="url(#clip-path)">
          <path id="Path_229488" data-name="Path 229488" d="M272.086,190.03c-1.112-.525-3.336-1.236-4.88.741a.533.533,0,0,0-.031.525.955.955,0,0,1,.247.062c.772-1.359,3.027-1.452,4.417-.9,1.359.556,2.811,1.884,2.533,3.521.958.556.278-1.668.062-2.008A5.549,5.549,0,0,0,272.086,190.03Z" transform="translate(-265.136 -186.293)" fill="#f7b54b"/>
          <path id="Path_229489" data-name="Path 229489" d="M267.3,193.562l.031-.031a.03.03,0,0,1,.031-.031Z" transform="translate(-265.261 -189.083)" fill="#f7b54b"/>
          <path id="Path_229490" data-name="Path 229490" d="M274.559,193.492a3.827,3.827,0,0,0-.649-1.019c-.309-.309-.649-.556-.958-.834a1.29,1.29,0,0,1-.309-.124,4.122,4.122,0,0,0-5.344.618c0,.031.031.062.031.093a.955.955,0,0,1,.247.062c.772-1.359,3.027-1.452,4.417-.9,1.359.556,2.811,1.884,2.533,3.521a1.122,1.122,0,0,0,.216.093,1.551,1.551,0,0,1,.062-.371.113.113,0,0,1,.031-.093v-.031A6.254,6.254,0,0,1,274.559,193.492Z" transform="translate(-265.261 -187.222)" fill="#e28f20"/>
        </g>
        <g id="Group_3315" data-name="Group 3315" clip-path="url(#clip-path)">
          <g id="Group_3311" data-name="Group 3311" transform="translate(4.915 1.446)">
            <path id="Path_229492" data-name="Path 229492" d="M294.356,189.4a.828.828,0,0,0-.772.34.907.907,0,0,0,.062.927,2.411,2.411,0,0,0,1.544,1.3,4.517,4.517,0,0,0,.618.154,8.049,8.049,0,0,1,.772-.309c-.031,0-.093-.031-.124-.031-.093,0-.154-.031-.247-.031a3.9,3.9,0,0,1-.865-.154,2.031,2.031,0,0,1-1.3-1.112.594.594,0,0,1-.093-.525.447.447,0,0,1,.4-.154h.062a3.362,3.362,0,0,1,2.069,1.359c.154.185.278.34.4.494.124-.062.278-.093.4-.154a5.261,5.261,0,0,0-2.934-2.1Z" transform="translate(-288.274 -187.693)" fill="#fcbe59"/>
            <path id="Path_229493" data-name="Path 229493" d="M286.4,185.122a.727.727,0,0,0-.247-.062l-.834-.278a12.778,12.778,0,0,0-2.687-.741,11.131,11.131,0,0,0-3.336-.062l-.093.031c-.68.093-2.07.34-2.471,1.05a.88.88,0,0,0-.031.834c.124.309.494.432.8.556a2.241,2.241,0,0,1,.371.154l.062.031a11.753,11.753,0,0,0,1.39.8l.741.278a5.344,5.344,0,0,1,1.05.432c.463.247.958.68.9,1.05h.093c.093-.062.216-.093.309-.154a1.466,1.466,0,0,0-.649-.958c.062.031.124.093.185.124.124.093.247.154.371.247l.556.371c.154-.062.309-.154.463-.216-.278-.154-.525-.34-.8-.494a2.577,2.577,0,0,0-.371-.247,12.529,12.529,0,0,1-1.421-1.112,3.288,3.288,0,0,1-.34-.278c-.463-.371-.9-.9-.834-1.174s.71-.309,1.143-.278h.371c1.668.062,3.83.432,4.664,1.822a1.229,1.229,0,0,1,.185.71c.154-.062.278-.093.432-.154a2.064,2.064,0,0,0-.247-.772c-.927-1.575-3.212-1.977-5-2.039h-.154c-.587-.031-1.668-.093-1.792.618-.124.618.649,1.328.988,1.575a3.283,3.283,0,0,1,.34.278c.34.278.68.556,1.019.8a1.888,1.888,0,0,0-.185-.124,5.667,5.667,0,0,0-1.112-.463c-.247-.093-.494-.185-.71-.278a8.246,8.246,0,0,1-1.328-.772l-.062-.031a2.13,2.13,0,0,0-.463-.216c-.247-.093-.494-.185-.556-.34a.6.6,0,0,1,0-.463c.309-.556,1.668-.772,2.193-.834l.124-.031a10.33,10.33,0,0,1,3.212.062,15.383,15.383,0,0,1,2.595.71l.834.278a.727.727,0,0,0,.247.062,1.429,1.429,0,0,1,.927.494,3.049,3.049,0,0,1,.278,1.05c.093-.031.154-.062.247-.093a.336.336,0,0,1,.154-.031,3.3,3.3,0,0,0-.34-1.143A2.486,2.486,0,0,0,286.4,185.122Z" transform="translate(-276.611 -183.88)" fill="#fcbe59"/>
          </g>
          <g id="Group_3312" data-name="Group 3312" transform="translate(4.884 2.595)">
            <path id="Path_229494" data-name="Path 229494" d="M280.462,190.318c-.834-.371-2.286-1.05-3.089-1.483-.68-.371-.618-.463-.71-1.236a.03.03,0,0,1-.031.031.88.88,0,0,0-.031.834c.124.309.494.432.8.556a2.24,2.24,0,0,1,.371.154l.062.031a11.753,11.753,0,0,0,1.39.8l.741.278a5.344,5.344,0,0,1,1.05.432c.463.247.958.68.9,1.05h.093c.062-.031.093-.062.154-.062C281.882,190.812,281.265,190.689,280.462,190.318Z" transform="translate(-276.511 -187.6)" fill="#f2ab44"/>
          </g>
          <g id="Group_3313" data-name="Group 3313" transform="translate(7.82 2.402)">
            <path id="Path_229495" data-name="Path 229495" d="M289.009,187.076a8.538,8.538,0,0,0-2.348-.031c-.71.124-.741.4-.525.772h0a.6.6,0,0,1-.093-.371c.062-.278.71-.309,1.143-.278h.371c1.668.062,3.83.432,4.664,1.822a1.229,1.229,0,0,1,.185.71,1.292,1.292,0,0,0,.309-.124.186.186,0,0,1-.031-.124C292.283,187.91,290.492,187.261,289.009,187.076Z" transform="translate(-286.018 -186.976)" fill="#f2ab44"/>
          </g>
          <g id="Group_3314" data-name="Group 3314" transform="translate(10.553 3.39)">
            <path id="Path_229496" data-name="Path 229496" d="M295.71,190.213c-.4-.124-.927.062-.834.371,0-.062,0-.093.031-.124a.447.447,0,0,1,.4-.154h.062a3.362,3.362,0,0,1,2.069,1.359c.154.185.278.34.4.494.031-.031.093-.031.124-.062A3.93,3.93,0,0,0,295.71,190.213Z" transform="translate(-294.865 -190.175)" fill="#f2ab44"/>
          </g>
          <path id="Path_229497" data-name="Path 229497" d="M293.683,190.5h0a.911.911,0,0,0,.062.927,2.411,2.411,0,0,0,1.544,1.3,4.518,4.518,0,0,0,.618.154c.031,0,.031-.031.062-.031C294.7,192.446,293.622,191.643,293.683,190.5Z" transform="translate(-283.429 -187.01)" fill="#f2ab44"/>
          <path id="Path_229498" data-name="Path 229498" d="M285.117,187h0a.615.615,0,0,0-.247.371c-.124.618.649,1.328.988,1.575a3.279,3.279,0,0,1,.34.278c.216.154.4.34.618.494a.549.549,0,0,1,.247.216.542.542,0,0,1,.154.124c-.031-.031-.062-.031-.093-.062h0a3.827,3.827,0,0,0,.68.556,2.91,2.91,0,0,0-.309-.309c.062.031.124.093.185.124.124.093.247.154.371.247l.556.371.185-.093a26.366,26.366,0,0,1-2.409-1.73A2.373,2.373,0,0,1,285.117,187Z" transform="translate(-277.395 -184.591)" fill="#f2ab44"/>
          <path id="Path_229499" data-name="Path 229499" d="M287.274,185.612c-.988-.34-1.946-.772-2.934-1.019a8.773,8.773,0,0,0-5.622.309c-.093.031-.154.093-.247.124-.031.031-.093.031-.124.062a.841.841,0,0,0-.247.494v-.031c.309-.556,1.668-.772,2.193-.834l.124-.031a10.329,10.329,0,0,1,3.212.062,15.382,15.382,0,0,1,2.595.71l.834.278a.727.727,0,0,0,.247.062,1.428,1.428,0,0,1,.927.494,3.048,3.048,0,0,1,.278,1.05.573.573,0,0,1,.216-.062,2.969,2.969,0,0,0-.247-.9C288.262,185.89,287.768,185.8,287.274,185.612Z" transform="translate(-272.725 -182.708)" fill="#f2ab44"/>
        </g>
        <g id="Group_3320" data-name="Group 3320" clip-path="url(#clip-path)">
          <g id="Group_3316" data-name="Group 3316" transform="translate(6.494 2.424)">
            <path id="Path_229501" data-name="Path 229501" d="M299.291,191.821a.9.9,0,0,0-.649.525c-.062.185-.031.494.309.9a2.559,2.559,0,0,0,1.822.865,4.562,4.562,0,0,0,.649-.031c.216-.185.432-.34.68-.525h-.124c-.093,0-.154.031-.247.031a4.372,4.372,0,0,1-.9.062,1.963,1.963,0,0,1-1.544-.741.572.572,0,0,1-.216-.494c.031-.093.154-.185.371-.247.031,0,.062,0,.062-.031a3.377,3.377,0,0,1,2.378.772c.185.124.371.247.525.371a2.356,2.356,0,0,1,.34-.247,6.416,6.416,0,0,0-.618-.463A3.8,3.8,0,0,0,299.291,191.821Z" transform="translate(-293.399 -190.291)" fill="#fcbe59"/>
            <path id="Path_229502" data-name="Path 229502" d="M292.4,187.527a1.768,1.768,0,0,0-1.3-.34h-.247a7.594,7.594,0,0,1-.865-.062,16.634,16.634,0,0,0-2.78-.031,10.769,10.769,0,0,0-3.243.834l-.093.031c-.618.278-1.915.865-2.131,1.668a1.052,1.052,0,0,0,.185.834,1.234,1.234,0,0,0,.927.34,1.371,1.371,0,0,1,.4.062l.062.031a11.277,11.277,0,0,0,1.544.4c.247.031.525.062.772.093a7.252,7.252,0,0,1,1.143.154c.494.124,1.112.4,1.143.772h.093c.093-.062.185-.154.278-.216a1.525,1.525,0,0,0-.865-.772c.062.031.124.031.185.062a3.746,3.746,0,0,1,.432.154c.216.062.432.154.649.216a4.621,4.621,0,0,1,.4-.34c-.309-.062-.587-.185-.9-.278-.154-.062-.278-.093-.432-.154a15.714,15.714,0,0,1-1.668-.68c-.124-.062-.278-.124-.4-.185-.525-.247-1.081-.618-1.112-.927-.031-.278.618-.463,1.019-.556a1.971,1.971,0,0,0,.216-.062c.062,0,.093-.031.154-.031,1.637-.371,3.8-.587,4.973.556a1.242,1.242,0,0,1,.371.649,2.575,2.575,0,0,1,.371-.247,1.841,1.841,0,0,0-.432-.68c-1.3-1.266-3.645-1.081-5.344-.68a1.336,1.336,0,0,1-.154.031c-.556.124-1.637.34-1.575,1.05.031.618.958,1.112,1.359,1.266.124.062.278.124.4.185.4.185.8.371,1.2.525a.786.786,0,0,0-.216-.062,8.033,8.033,0,0,0-1.2-.154c-.247-.031-.494-.031-.741-.062a8.808,8.808,0,0,1-1.483-.4l-.154-.093a2.341,2.341,0,0,0-.494-.093c-.247-.031-.525-.062-.618-.185a.54.54,0,0,1-.124-.463c.154-.618,1.421-1.174,1.884-1.39l.093-.031a10.01,10.01,0,0,1,3.12-.772,15.619,15.619,0,0,1,2.687.031c.309.031.587.031.9.062h.278c.371,0,.8,0,1.019.247a3.353,3.353,0,0,1,.556.927c.062-.062.154-.093.216-.154.062-.031.093-.062.154-.062A4.064,4.064,0,0,0,292.4,187.527Z" transform="translate(-281.725 -187.047)" fill="#fcbe59"/>
          </g>
          <g id="Group_3317" data-name="Group 3317" transform="translate(6.494 4.973)">
            <path id="Path_229503" data-name="Path 229503" d="M286.1,196.937c-.9-.154-2.471-.432-3.367-.618-.772-.154-.71-.278-.988-1.019v.031a1.052,1.052,0,0,0,.185.834,1.234,1.234,0,0,0,.927.34,1.371,1.371,0,0,1,.4.062l.062.031a11.279,11.279,0,0,0,1.544.4c.247.031.525.062.772.093a7.252,7.252,0,0,1,1.143.154c.494.124,1.112.4,1.143.772h.093c.031-.031.093-.062.124-.124C287.586,197.03,286.968,197.061,286.1,196.937Z" transform="translate(-281.725 -195.3)" fill="#f2ab44"/>
          </g>
          <g id="Group_3318" data-name="Group 3318" transform="translate(9.27 3.303)">
            <path id="Path_229504" data-name="Path 229504" d="M293.489,189.958a9.32,9.32,0,0,0-2.255.587c-.649.278-.618.587-.309.865h.031a.475.475,0,0,1-.185-.34c-.031-.278.618-.463,1.019-.556a1.97,1.97,0,0,0,.216-.062c.062,0,.093-.031.154-.031,1.637-.371,3.8-.587,4.973.556a1.242,1.242,0,0,1,.371.649l.278-.185a.16.16,0,0,1-.062-.124C296.855,189.927,294.94,189.773,293.489,189.958Z" transform="translate(-290.712 -189.894)" fill="#f2ab44"/>
          </g>
          <g id="Group_3319" data-name="Group 3319" transform="translate(12.097 4.108)">
            <path id="Path_229505" data-name="Path 229505" d="M299.906,193.118v-.124c.031-.093.154-.185.371-.247.031,0,.062,0,.062-.031a3.377,3.377,0,0,1,2.378.772c.185.124.371.247.525.371a.426.426,0,0,1,.124-.093,3.894,3.894,0,0,0-2.718-1.266C300.184,192.531,299.721,192.809,299.906,193.118Z" transform="translate(-299.865 -192.5)" fill="#f2ab44"/>
          </g>
          <path id="Path_229506" data-name="Path 229506" d="M298.643,193.7h0c-.062.185-.031.494.309.9a2.559,2.559,0,0,0,1.822.865,4.563,4.563,0,0,0,.649-.031c.031,0,.031-.031.062-.031C300.187,195.306,298.921,194.843,298.643,193.7Z" transform="translate(-286.905 -189.221)" fill="#f2ab44"/>
          <path id="Path_229507" data-name="Path 229507" d="M289.554,192.5h0a.67.67,0,0,0-.154.432c.031.618.958,1.112,1.359,1.266.124.062.278.124.4.185a7.549,7.549,0,0,0,.741.309,1.292,1.292,0,0,1,.309.124.522.522,0,0,0,.154.062c-.031,0-.093-.031-.124-.031h0a2.62,2.62,0,0,0,.8.34,1.664,1.664,0,0,0-.4-.216c.062.031.124.031.185.062a3.748,3.748,0,0,1,.432.154c.216.062.432.154.649.216.062-.031.093-.093.154-.124-.927-.309-1.884-.649-2.78-1.019C290.6,193.983,289.647,193.427,289.554,192.5Z" transform="translate(-280.535 -188.392)" fill="#f2ab44"/>
          <path id="Path_229508" data-name="Path 229508" d="M291.839,187.807a25.95,25.95,0,0,0-3.089-.216,8.61,8.61,0,0,0-5.344,1.761,1.342,1.342,0,0,1-.216.185c-.031.031-.093.062-.124.093a.833.833,0,0,0-.093.525v-.031c.154-.618,1.421-1.174,1.884-1.39l.093-.031a10.01,10.01,0,0,1,3.12-.772,15.617,15.617,0,0,1,2.687.031c.309.031.587.031.9.062h.278c.371,0,.8,0,1.019.247a3.353,3.353,0,0,1,.556.927c.062-.031.124-.093.185-.124a3.411,3.411,0,0,0-.463-.8C292.858,187.807,292.364,187.838,291.839,187.807Z" transform="translate(-276.086 -184.996)" fill="#f2ab44"/>
        </g>
        <g id="Group_3321" data-name="Group 3321" clip-path="url(#clip-path)">
          <path id="Path_229510" data-name="Path 229510" d="M274.174,189.961a.84.84,0,0,0-.834,0,.987.987,0,0,0-.34.865,2.416,2.416,0,0,0,.834,1.822,5.64,5.64,0,0,0,.494.4c.278,0,.556.031.834.031a.161.161,0,0,0-.124-.062c-.062-.031-.154-.093-.216-.124a3.21,3.21,0,0,1-.741-.525,2.026,2.026,0,0,1-.71-1.544c0-.247.031-.432.154-.525.093-.062.247-.031.432.031.031,0,.031.031.062.031a3.216,3.216,0,0,1,1.328,2.1,6.007,6.007,0,0,1,.154.618c.154,0,.278.031.432.031a5.649,5.649,0,0,0-.185-.772A3.386,3.386,0,0,0,274.174,189.961Z" transform="translate(-269.201 -186.563)" fill="#fcbe59"/>
          <path id="Path_229511" data-name="Path 229511" d="M275.5,191.18c-.309-.278-.865-.34-.9,0,.031-.031.031-.093.062-.093.093-.062.247-.031.432.031.031,0,.031.031.062.031a3.216,3.216,0,0,1,1.328,2.1,6.007,6.007,0,0,1,.154.618h.124A3.7,3.7,0,0,0,275.5,191.18Z" transform="translate(-270.307 -187.319)" fill="#f2ab44"/>
          <path id="Path_229512" data-name="Path 229512" d="M273.34,190.2h0a.987.987,0,0,0-.34.865,2.416,2.416,0,0,0,.834,1.822,5.645,5.645,0,0,0,.494.4h.062C273.463,192.424,272.815,191.25,273.34,190.2Z" transform="translate(-269.201 -186.802)" fill="#f2ab44"/>
        </g>
        <g id="Group_3322" data-name="Group 3322" clip-path="url(#clip-path)">
          <path id="Path_229514" data-name="Path 229514" d="M285.124,193.624a1.338,1.338,0,0,1-.154.031c-.556.124-1.637.34-1.575,1.05.031.618.958,1.112,1.359,1.266.124.062.278.124.4.185.309.154.618.278.927.4a2.578,2.578,0,0,1,.9.34h0c.093.031.216.062.309.093.216.062.432.154.649.216a4.622,4.622,0,0,1,.4-.34c-.309-.062-.587-.185-.9-.278-.154-.062-.278-.093-.432-.154a15.71,15.71,0,0,1-1.668-.68c-.124-.062-.278-.124-.4-.185-.525-.247-1.081-.618-1.112-.927-.031-.278.618-.463,1.019-.556a1.968,1.968,0,0,0,.216-.062,1.336,1.336,0,0,0,.154-.031c1.637-.371,3.8-.587,4.973.556a1.243,1.243,0,0,1,.371.649,2.574,2.574,0,0,1,.371-.247,1.84,1.84,0,0,0-.432-.68C289.17,193.037,286.854,193.222,285.124,193.624Z" transform="translate(-276.383 -188.959)" fill="#f7cd6f"/>
          <path id="Path_229515" data-name="Path 229515" d="M287.389,193.93a9.32,9.32,0,0,0-2.255.587c-.649.278-.618.587-.309.865h.031a.475.475,0,0,1-.185-.34c-.031-.278.618-.463,1.019-.556a1.972,1.972,0,0,0,.216-.062,1.338,1.338,0,0,0,.154-.031c1.637-.371,3.8-.587,4.973.556a1.242,1.242,0,0,1,.371.649l.278-.185a.16.16,0,0,1-.062-.124C290.755,193.9,288.871,193.714,287.389,193.93Z" transform="translate(-277.226 -189.328)" fill="#efb754"/>
          <path id="Path_229516" data-name="Path 229516" d="M283.554,196.469h0a.67.67,0,0,0-.154.432c.031.618.958,1.112,1.359,1.266.124.062.278.124.4.185a7.545,7.545,0,0,0,.741.309,2.126,2.126,0,0,0,.247.093,2.414,2.414,0,0,1,.865.34h0c.093.031.216.062.309.093.216.062.432.154.649.216.062-.031.093-.093.154-.124-.927-.309-1.884-.649-2.78-1.019C284.574,197.921,283.616,197.4,283.554,196.469Z" transform="translate(-276.388 -191.126)" fill="#efb754"/>
        </g>
        <g id="Group_3323" data-name="Group 3323" clip-path="url(#clip-path)">
          <path id="Path_229518" data-name="Path 229518" d="M285.13,190.966c-.093-.031-.154-.062-.247-.093-.278-.093-.556-.185-.834-.309a15.521,15.521,0,0,0-2.656-.8,11.352,11.352,0,0,0-3.336-.124h-.124c-.68.093-2.07.278-2.5,1.019a.88.88,0,0,0-.031.834,1.239,1.239,0,0,0,.8.587,2.056,2.056,0,0,1,.371.185l.062.031a8.581,8.581,0,0,0,2.1,1.112,5.4,5.4,0,0,1,1.05.463c.432.247.958.71.9,1.05l.093.031c.093-.062.216-.093.309-.154a.773.773,0,0,0-.247-.556,1.547,1.547,0,0,1-.247-.216c-.216-.154-.432-.309-.649-.432-.278-.154-.556-.34-.834-.494-.093-.031-.154-.062-.247-.093-.247-.093-.463-.185-.71-.278a11.426,11.426,0,0,1-1.328-.772l-.062-.031a1.614,1.614,0,0,0-.463-.216c-.247-.093-.494-.185-.556-.34a.681.681,0,0,1,0-.494c.309-.556,1.668-.741,2.193-.8h.124a10.568,10.568,0,0,1,3.212.124,15.6,15.6,0,0,1,2.595.772c.278.093.556.216.834.309.093.031.154.062.247.093a1.769,1.769,0,0,1,.927.494,3.255,3.255,0,0,1,.278,1.05.727.727,0,0,1,.247-.062.336.336,0,0,1,.154-.031,3.279,3.279,0,0,0-.309-1.143C286.057,191.244,285.532,191.09,285.13,190.966Z" transform="translate(-270.798 -186.364)" fill="#f7cd6f"/>
          <path id="Path_229519" data-name="Path 229519" d="M279.2,195.98c-.834-.4-2.255-1.112-3.058-1.544-.68-.371-.618-.463-.68-1.236a.03.03,0,0,1-.031.031.88.88,0,0,0-.031.834,1.239,1.239,0,0,0,.8.587,2.057,2.057,0,0,1,.371.185l.062.031a8.58,8.58,0,0,0,2.1,1.112,5.406,5.406,0,0,1,1.05.463c.432.247.958.71.9,1.05l.093.031c.062-.031.093-.062.154-.062C280.621,196.505,280.034,196.351,279.2,195.98Z" transform="translate(-270.798 -188.876)" fill="#efb754"/>
          <path id="Path_229520" data-name="Path 229520" d="M286.074,191.556c-.958-.371-1.915-.8-2.9-1.081a8.559,8.559,0,0,0-5.622.216c-.093.031-.154.093-.247.124-.062.031-.093.031-.154.062a.841.841,0,0,0-.247.494.03.03,0,0,1,.031-.031c.309-.556,1.668-.741,2.193-.8h.124a10.568,10.568,0,0,1,3.212.124,15.6,15.6,0,0,1,2.595.772c.278.093.556.216.834.309.093.031.154.062.247.093a1.769,1.769,0,0,1,.927.494,3.256,3.256,0,0,1,.278,1.05c.062-.031.154-.031.216-.062a2.926,2.926,0,0,0-.216-.9C287.062,191.834,286.568,191.742,286.074,191.556Z" transform="translate(-271.896 -186.738)" fill="#efb754"/>
        </g>
      </g>
      <path id="Path_229522" data-name="Path 229522" d="M251.063,188.024l-3.552-.124-.71,1.143,8.927,4.139,1.946.062,3.12-.834Z" transform="translate(-246.8 -174.587)" fill="#f4d9a4"/>
      <path id="Path_229523" data-name="Path 229523" d="M302.6,188.6l2.718.741-.741,1.39-6.486,2.965-2.07.278-3.923-1.081Z" transform="translate(-278.108 -175.071)" fill="#f4d9a4"/>
      <g id="Group_3327" data-name="Group 3327" transform="translate(11.523 12.819)">
        <g id="Group_3325" data-name="Group 3325" transform="translate(1.01 1.656)">
          <path id="Path_229524" data-name="Path 229524" d="M289.359,193.094c-.154.4-.741.865-1.174.741-.247.031-.772-.154-.8-.371a1.938,1.938,0,0,1,.463-1.174,1.8,1.8,0,0,1,2.039-.525,2.933,2.933,0,0,1-.278.649C289.513,192.631,289.452,192.878,289.359,193.094Z" transform="translate(-287.374 -191.661)" fill="#96cc52"/>
          <path id="Path_229525" data-name="Path 229525" d="M287.5,193.256a2.829,2.829,0,0,1,.432-.865,1.8,1.8,0,0,1,2.039-.525.439.439,0,0,1-.062.185c-.062-.185-.371-.216-.525-.216a1.808,1.808,0,0,0-.4.062.458.458,0,0,0-.216.031.186.186,0,0,0-.124.031.961.961,0,0,0-.185.124,1.133,1.133,0,0,0-.556.587c-.031.062-.093.062-.124.124A1.163,1.163,0,0,0,287.5,193.256Z" transform="translate(-287.461 -191.73)" fill="#b7ea6e"/>
          <path id="Path_229526" data-name="Path 229526" d="M292.428,192h.031a2.933,2.933,0,0,1-.278.649c-.093.216-.154.463-.247.71a1.334,1.334,0,0,1-.834.741,1.9,1.9,0,0,0,.8-.834.906.906,0,0,0,.093-.309v0a2.721,2.721,0,0,0,.154-.463A1.631,1.631,0,0,0,292.428,192Z" transform="translate(-289.949 -191.895)" fill="#b7ea6e"/>
          <path id="Path_229527" data-name="Path 229527" d="M288.371,193.628c.093-.124.278-.124.34-.278a1.6,1.6,0,0,1,.494-.525,2.932,2.932,0,0,1,.525-.309,2.175,2.175,0,0,0,.278-.216.542.542,0,0,1-.154.124.629.629,0,0,0-.185.216c-.093.093-.216.093-.309.185h.247a.439.439,0,0,1,.185.062.525.525,0,0,1-.216.031c-.093,0-.154.031-.247.031-.062,0-.154-.031-.216,0s-.093.093-.124.124a.517.517,0,0,0,.463.124c.031,0,.34.031.185.093-.062.031-.154-.031-.216-.031a.526.526,0,0,0-.216-.031c-.093,0-.247-.031-.309.031a.675.675,0,0,0,.154.093.5.5,0,0,1,.216.124c-.124.031-.247-.093-.371-.031.062.062.062.124.124.154a.982.982,0,0,0,.432.062c.031,0,.154-.031.124.062-.031.062-.216.031-.278.031a1.94,1.94,0,0,1-.587-.093c-.062-.031-.124-.062-.185,0a.064.064,0,0,0,0,.124c.062.031.154.031.247.062l.185.093c-.062.062-.371-.093-.4-.031s.278.154.309.185c-.031.062-.309,0-.371-.031-.062,0-.124-.062-.154-.062a1.251,1.251,0,0,0-.34,0c.031-.031.154-.154.154-.185A.522.522,0,0,0,288.371,193.628Z" transform="translate(-287.807 -192.103)" fill="#83b739"/>
          <path id="Path_229528" data-name="Path 229528" d="M291.832,192.4a1.629,1.629,0,0,1-.34.463l.062-.062a.454.454,0,0,1-.154.185c.031-.124.154-.185.216-.309C291.678,192.616,291.74,192.431,291.832,192.4Z" transform="translate(-290.156 -192.172)" fill="#83b739"/>
          <path id="Path_229529" data-name="Path 229529" d="M289.525,193.14a1.267,1.267,0,0,1,.031-.34v.247c0,.062.031.34-.031.371l.031-.031a.22.22,0,0,1-.093.185c-.062.093-.062.031-.154-.031a1.327,1.327,0,0,1-.309-.278c.093.093.185.124.278.216.062.031.093.093.124.062a.234.234,0,0,0,.062-.124C289.525,193.356,289.494,193.232,289.525,193.14Z" transform="translate(-288.498 -192.448)" fill="#83b739"/>
          <path id="Path_229530" data-name="Path 229530" d="M288.171,195.485a.819.819,0,0,1-.154-.185.674.674,0,0,1,.124.154.372.372,0,0,0,.154.154h.031c-.093.093-.093.154-.247.124a1.1,1.1,0,0,1-.278-.124c.062-.031.124.031.185.031a.458.458,0,0,0,.216.031v-.031c0-.031.062-.062.062-.093C288.263,195.547,288.2,195.485,288.171,195.485Z" transform="translate(-287.668 -194.176)" fill="#83b739"/>
        </g>
        <path id="Path_229531" data-name="Path 229531" d="M287.706,193.646h0c.124-.093.247-.154.371-.247a3.826,3.826,0,0,0,.432-.556c.247-.371.216-.8.649-1.143a1.764,1.764,0,0,0-1.143.618.108.108,0,0,0-.031.062h0l-.031.031h0c0,.031-.031.031-.031.062h0c0,.031-.031.031-.031.062v.031a.108.108,0,0,0-.031.062v.031c0,.031-.031.031-.031.062h0c0,.031-.031.031-.031.062v.031c0,.031,0,.031-.031.062v.031a.108.108,0,0,1-.031.062V193c0,.031,0,.031-.031.062v.093c0,.031,0,.031-.031.062h0a.526.526,0,0,0,0,.309c-.093.031-.062.093.031.124Z" transform="translate(-286.534 -190.032)" fill="#608420" opacity="0.48"/>
        <g id="Group_3326" data-name="Group 3326">
          <path id="Path_229532" data-name="Path 229532" d="M284.444,187.6a1.4,1.4,0,0,0-.124,1.637c.124.278.618.741.834.68a2.263,2.263,0,0,0,.432-3.614,2.2,2.2,0,0,0-.525.649C284.845,187.2,284.629,187.381,284.444,187.6Z" transform="translate(-284.105 -186.3)" fill="#96cc52"/>
          <path id="Path_229533" data-name="Path 229533" d="M288.262,189.729a2.743,2.743,0,0,0,.68-.958,2.248,2.248,0,0,0-.556-2.471.818.818,0,0,0-.185.154c.216-.031.432.278.525.463l.185.463a2.134,2.134,0,0,0,.093.247.231.231,0,0,1,.031.154.855.855,0,0,1-.031.278,1.173,1.173,0,0,1-.309.9c-.031.093-.031.124-.062.216A1.357,1.357,0,0,1,288.262,189.729Z" transform="translate(-286.935 -186.3)" fill="#b7ea6e"/>
          <path id="Path_229534" data-name="Path 229534" d="M285.622,186.331l-.031-.031a2.2,2.2,0,0,0-.525.649c-.185.247-.432.432-.618.649a1.685,1.685,0,0,0-.309,1.3,2.274,2.274,0,0,1,.432-1.328,2,2,0,0,1,.247-.278.03.03,0,0,1,.031-.031h0c.154-.154.278-.309.4-.432A1.885,1.885,0,0,1,285.622,186.331Z" transform="translate(-284.11 -186.3)" fill="#b7ea6e"/>
          <path id="Path_229535" data-name="Path 229535" d="M285.565,190.14c.062-.154,0-.34.093-.494a1.48,1.48,0,0,0,.278-.8,5.71,5.71,0,0,0,.031-.71c0-.154.062-.278.062-.432-.031.093-.031.154-.062.247a1.5,1.5,0,0,1-.124.34c-.062.124.031.278,0,.432a1.726,1.726,0,0,1-.154-.247.819.819,0,0,0-.185-.154,1.454,1.454,0,0,0,.093.278,1.1,1.1,0,0,0,.124.278c.031.062.124.154.124.247a.439.439,0,0,1-.062.185c-.216-.031-.34-.247-.4-.4-.031-.062-.216-.309-.216-.154,0,.062.124.154.154.216.062.062.093.154.154.216a.539.539,0,0,1,.124.371.308.308,0,0,1-.154-.124.673.673,0,0,0-.247-.154c.031.124.247.216.216.371a1.969,1.969,0,0,1-.216-.062,1.109,1.109,0,0,1-.309-.432c-.031-.031-.062-.185-.124-.124s.062.247.093.309a2.455,2.455,0,0,0,.432.556c.062.062.124.124.124.185,0,.093-.062.124-.124.062s-.124-.185-.185-.247a.938.938,0,0,0-.216-.154c-.031.124.309.34.247.432-.062.062-.309-.216-.371-.216-.031.062.185.34.247.4s.124.093.154.154.154.278.185.34c.031-.031.062-.247.093-.247C285.5,190.449,285.5,190.264,285.565,190.14Z" transform="translate(-284.547 -187.268)" fill="#83b739"/>
          <path id="Path_229536" data-name="Path 229536" d="M289.1,189.4a1.932,1.932,0,0,0-.309.618l.031-.093a.763.763,0,0,0-.124.278,2.331,2.331,0,0,0,.185-.4C288.947,189.678,289.1,189.524,289.1,189.4Z" transform="translate(-287.281 -188.442)" fill="#83b739"/>
          <path id="Path_229537" data-name="Path 229537" d="M288.408,191.947c.093-.062.278-.124.34-.247-.093.062-.185.093-.278.154-.093.031-.371.154-.371.247v-.031c-.093.062-.093.124-.154.185-.062.124,0,.093.093.154.124.062.34.185.463.154-.124-.062-.247-.124-.4-.185-.062-.031-.154-.031-.154-.093a.263.263,0,0,1,.093-.154A1.041,1.041,0,0,0,288.408,191.947Z" transform="translate(-286.741 -190.032)" fill="#83b739"/>
          <path id="Path_229538" data-name="Path 229538" d="M287.757,195.124a.436.436,0,0,0,.278.031c-.031-.031-.154-.031-.247-.062a.727.727,0,0,1-.247-.062V195c-.062.154-.124.185,0,.309a2,2,0,0,0,.278.247c0-.093-.093-.124-.154-.185a.554.554,0,0,1-.154-.216h.031c.031-.031.031-.093.062-.124A.263.263,0,0,0,287.757,195.124Z" transform="translate(-286.43 -192.313)" fill="#83b739"/>
        </g>
      </g>
      <path id="Path_229539" data-name="Path 229539" d="M314.263,158.151l3.243-12.942-.463-.309L313.8,157.842Z" transform="translate(-293.105 -144.869)" fill="#ff8500"/>
      <path id="Path_229540" data-name="Path 229540" d="M319.13,145.7l-.587.062L315.3,158.7l.278.216Z" transform="translate(-294.142 -145.422)" fill="#e56a0e"/>
      <path id="Path_229541" data-name="Path 229541" d="M324.3,144.831l.525-.031.525.278-.587.062Z" transform="translate(-300.362 -144.8)" fill="#fa0"/>
      <path id="Path_229542" data-name="Path 229542" d="M316.671,162.048l5.714-12.077-.4-.371L316.3,161.646Z" transform="translate(-294.833 -148.117)" fill="#ff8500"/>
      <path id="Path_229543" data-name="Path 229543" d="M323.8,150.893l-.587-.093L317.5,162.877l.216.309Z" transform="translate(-295.662 -148.947)" fill="#e56a0e"/>
      <path id="Path_229544" data-name="Path 229544" d="M334.7,149.6l.556.093.432.371-.587-.093Z" transform="translate(-307.549 -148.117)" fill="#fa0"/>
    </g>
    <path id="Path_229545" data-name="Path 229545" d="M274.614,213.682c.309,1.637-.309,3.151-1.359,3.367-1.081.216-2.224-.958-2.533-2.625-.309-1.637.309-3.151,1.359-3.367C273.162,210.872,274.274,212.045,274.614,213.682Z" transform="translate(-16.478 -45.778)" fill="#ff1908"/>
    <g id="Group_3329" data-name="Group 3329" transform="translate(254.707 166.16)">
      <path id="Path_229546" data-name="Path 229546" d="M272.4,221.5Z" transform="translate(-272.4 -219.169)" fill="#fff"/>
      <path id="Path_229547" data-name="Path 229547" d="M272.4,221.5Z" transform="translate(-272.4 -219.169)" fill="#fff"/>
      <path id="Path_229548" data-name="Path 229548" d="M275.705,216.655c-.031-.093-.124-.124-.185-.154a3.736,3.736,0,0,1-.556-.154c-.154-.093-.278-.185-.432-.278a3.767,3.767,0,0,0-.525-.216,1.4,1.4,0,0,0-.247-.062,1.106,1.106,0,0,1,.34-.124.621.621,0,0,0,.247-.124c.093-.031.185-.031.278-.062.062-.031.154-.154.062-.247-.031-.062-.216,0-.278.031-.216.062-.4.185-.618.247a1.291,1.291,0,0,0-.309.124c.031-.093.031-.154.062-.247h.031c.216-.093.587-.185.587-.494a1.317,1.317,0,0,0-.556.185c0-.093.031-.154.031-.247a2.67,2.67,0,0,0,.525-.216c.062-.031.247-.154.185-.278-.031-.124-.185-.031-.247,0-.154.062-.309.154-.463.216v-.124c0-.154.031-.34-.093-.432-.154-.124-.247.031-.309.154l.031-.062c-.093.154.093.371.093.556h0c-.154,0-.432-.062-.432.062.031.247.247.247.4.216a1.312,1.312,0,0,1-.062.34l-.185.093c-.062.031-.278.124-.216.154.062.216.124.124.278.062.031,0,.062-.031.093-.031-.031.093-.031.154-.062.247a2.9,2.9,0,0,0-.556.371,1.342,1.342,0,0,1-.216.185h0c.124.278.247.185.432.031.062-.031.093-.062.154-.093-.031.062-.031.093-.062.154a2.6,2.6,0,0,1-.34.649c-.062.093-.185.216-.154.371.216,0,.4-.278.525-.494a6.716,6.716,0,0,0,.34-.834c0-.031,0-.031.031-.062a.674.674,0,0,0,.154-.093c.031-.031.062-.031.093-.062.062.154.309.309.4.371a4.648,4.648,0,0,0,.525.309l.556.185a1.569,1.569,0,0,0,.525.093h.062C275.674,216.747,275.705,216.686,275.705,216.655Z" transform="translate(-272.4 -213.953)" fill="#fff"/>
      <path id="Path_229549" data-name="Path 229549" d="M275.623,221.3c-.216,0-.278.154-.432.216-.062.031-.185.031-.247.093a.415.415,0,0,0-.062.278c-.062.34-.124.927.154,1.174a.442.442,0,0,0,.34.093c.062,0,.124-.062.185-.062.031.093.093.124.247-.031a4.056,4.056,0,0,0-.031-.865A2.022,2.022,0,0,0,275.623,221.3Zm-.494.525a.5.5,0,0,1,.278-.154,2.189,2.189,0,0,0,.031.432h-.031c-.062,0-.216.093-.247.062A.447.447,0,0,1,275.129,221.825Zm.4,1.081a2.086,2.086,0,0,1-.432-.062.951.951,0,0,1,.031-.309c.031-.124.093-.093.216-.124.062,0,.093-.031.154-.062,0,.062.031.154.031.216A1.158,1.158,0,0,0,275.531,222.906Z" transform="translate(-274.079 -219.031)" fill="#fff"/>
    </g>
  </g>
</svg>
