<svg xmlns="http://www.w3.org/2000/svg" width="32" height="21.522" viewBox="0 0 32 21.522">
  <g id="Group_3134" data-name="Group 3134" transform="translate(-178.4 -347.506)">
    <path id="Path_228200" data-name="Path 228200" d="M181.167,362.922c3.375,7.193,16.212,7.3,22.133,4.869,5.09-2.1,8.355-7.8,6.252-13.39-2.1-5.533-6.64-6.363-13.224-6.363C188.138,347.263,176.242,352.354,181.167,362.922Z" transform="translate(-0.719 -0.203)" fill="#e38a2f"/>
    <path id="Path_228201" data-name="Path 228201" d="M191.634,367.107a20.3,20.3,0,0,1-8.134-.83c4.205,5.92,15.825,5.81,21.413,3.541,5.09-2.1,8.355-7.8,6.252-13.39a9.478,9.478,0,0,0-2.656-3.929,9.453,9.453,0,0,1-1.826,7.248C203.309,364.452,197.167,366.554,191.634,367.107Z" transform="translate(-2.278 -2.231)" fill="#d3741e" opacity="0.53"/>
    <path id="Path_228202" data-name="Path 228202" d="M204.722,366.411c-5.256,3.984-13.722,3.541-19.255.387a18.058,18.058,0,0,1-5.367-5.035,11.219,11.219,0,0,0,1.162,4.427c3.375,7.193,16.212,7.3,22.133,4.869,5.09-2.1,8.355-7.8,6.252-13.39a9.652,9.652,0,0,0-1.162-2.269A10.5,10.5,0,0,1,204.722,366.411Z" transform="translate(-0.759 -3.526)" fill="#d17019" opacity="0.47"/>
    <path id="Path_228203" data-name="Path 228203" d="M205.238,367.695c-.166.111-.387.277-.553.387-3.154,2.6-8.134,2.767-12.173,2.435-.443-.055-.885-.111-1.383-.166a13.766,13.766,0,0,1-6.031-1.771l-.664-.5c-2.324-1.439-3.984-3.6-3.818-6.584a10.569,10.569,0,0,1,2.933-7.968c-3.209,2.49-4.759,6.363-2.379,11.454,3.375,7.193,16.212,7.3,22.133,4.869,5.09-2.1,8.355-7.8,6.252-13.39a8.63,8.63,0,0,0-2.49-3.763,8.215,8.215,0,0,1,2.158,6.2C209.111,362.328,208.115,365.648,205.238,367.695Z" transform="translate(-0.721 -2.32)" fill="#894509" opacity="0.35"/>
    <path id="Path_228204" data-name="Path 228204" d="M180.119,359.507c1.328.83,2.877-.609,4.205-.719,1.992-.111,2.047,1.937,3.043,2.933a4.577,4.577,0,0,0,5.256,1.107,3.83,3.83,0,0,1,2.6-.221c.83.332,1.771,1.051,2.711,1a3.17,3.17,0,0,0,2.324-1.162c.553-.553.609-1.273,1.051-1.881,1.051-1.383,2.158-1.439,3.707-.775,3.043,1.273,3.6-2.1,5.146-1.826a.2.2,0,0,0,.166-.055,9.377,9.377,0,0,0-.664-3.6c-2.1-5.533-6.64-6.363-13.224-6.363C189.083,347.278,178.9,351.262,180.119,359.507Z" transform="translate(-0.723 -0.163)" fill="#9b5012" opacity="0.36"/>
    <path id="Path_228205" data-name="Path 228205" d="M192.583,347.558a29.643,29.643,0,0,0-5.533,1c-1.383.443-5.035,1.715-7.193,4.427-.941,1.107-1.881,3.265-1.162,4.648,1.107,2.047,3.32.609,4.869.387,1.937-.277,2.047,1.051,2.933,2.324a4.532,4.532,0,0,0,4.316,1.881c1-.221,1.217-.885,2.324-.83a8.194,8.194,0,0,1,2.6,1,3.107,3.107,0,0,0,4.205-1.881c.277-.664.387-1.6,1.107-1.937a4.3,4.3,0,0,1,2.379.221c.775.277,1.328.83,2.269.553,1.217-.332,1.6-1.937,2.656-2.213.885-.221,1.439.332,1.937-.664a3.565,3.565,0,0,0-.166-2.269c-1.051-2.877-4.482-5.035-7.248-5.81A37.021,37.021,0,0,0,192.583,347.558Z" transform="translate(-0.018)" fill="#fcaa97"/>
    <path id="Path_228206" data-name="Path 228206" d="M200.256,364.7c-1.051,1.66-2.1,4.427-4.648,2.933a5.859,5.859,0,0,1-.664-.553,10.762,10.762,0,0,1-1.217.443,7.239,7.239,0,0,1-3.265.111,6.272,6.272,0,0,1-3.486-1.549c-.664-.719-1.051-1.771-1.715-2.379-.83-.719-2.988.387-3.984.387a3.465,3.465,0,0,1-2.656-.775.972.972,0,0,1-.221-.277,2.954,2.954,0,0,0,.277,1.383c1.107,2.047,3.32.609,4.869.387,1.937-.277,2.047,1.051,2.933,2.324a4.532,4.532,0,0,0,4.316,1.881c1-.221,1.217-.885,2.324-.83a8.194,8.194,0,0,1,2.6,1,3.107,3.107,0,0,0,4.205-1.881c.277-.664.387-1.6,1.107-1.937a4.3,4.3,0,0,1,2.379.221c.775.277,1.328.83,2.269.553,1.217-.332,1.6-1.937,2.656-2.213.885-.221,1.439.332,1.937-.664a1.4,1.4,0,0,0,.111-.664,3.382,3.382,0,0,1-.775.387,2.613,2.613,0,0,1-1.937.055l-.221.221a5.632,5.632,0,0,1-1.273,1,4.347,4.347,0,0,1-3.707-.111c-.166,0-.277.055-.443.055C201.473,364.26,200.643,364.149,200.256,364.7Z" transform="translate(0 -6.742)" fill="#f48071"/>
    <path id="Path_228207" data-name="Path 228207" d="M202.414,351.178c-1.66,0-7.3.775-7.414,3.375.055,1.494,2.49,2.49,3.265,2.767a16.639,16.639,0,0,0,5.256.332c1.66-.111,7.193-1.494,6.252-4.261C208.888,350.735,204.517,351.178,202.414,351.178Z" transform="translate(-7.415 -1.628)" fill="#894509" opacity="0.6"/>
    <path id="Path_228208" data-name="Path 228208" d="M202.414,351.178c-1.66,0-7.3.775-7.414,3.375a2,2,0,0,0,.719,1.328c.775.775,1.826-.664,2.324-.5,1.051.332,1.549,1.715,2.656,1.273,1.715-.664.5-2.435,1.771-2.435s1.328,1.6,2.711,1.6c1.771,0,1.328-1.217,2.269-1.383.83-.166,2.1.664,2.379.111a1.527,1.527,0,0,0,0-1.107C208.888,350.736,204.517,351.178,202.414,351.178Z" transform="translate(-7.415 -1.628)" fill="#f48c7a"/>
    <path id="Path_228209" data-name="Path 228209" d="M207.284,355.285a4.482,4.482,0,0,1-3.375.221c-.5-.166-.941-.5-1.439-.719-.443-.166-.941,1-1.051,1.217-.609,1.051-2.379,1.439-3.154.387l-.166-.166c-.166.055-.277.055-.443.111a4.091,4.091,0,0,1-1.826.111,5.585,5.585,0,0,1-.83-.387v.111a2,2,0,0,0,.719,1.328c.775.775,1.826-.664,2.324-.5,1.051.332,1.549,1.715,2.656,1.273,1.715-.664.5-2.435,1.771-2.435s1.328,1.6,2.711,1.6c1.771,0,1.328-1.217,2.269-1.383.83-.166,2.1.664,2.379.111.055-.111.055-.221.111-.277h-.055C209.054,355.617,208.058,354.953,207.284,355.285Z" transform="translate(-7.415 -3.245)" fill="#ef736a"/>
    <path id="Path_228210" data-name="Path 228210" d="M196.021,353.2l-.221.221h0C195.855,353.311,195.966,353.255,196.021,353.2Z" transform="translate(-7.772 -2.543)" fill="#fccdc5"/>
    <path id="Path_228211" data-name="Path 228211" d="M190.458,358.237c1.328.941,2.822-.885,4.205.111,2.656,1.881,7.082.664,8.576-1.549l-.221-.221c-.221.055-.5.166-.719.221-2.877.609-5.976,1.494-8.908.553a6.811,6.811,0,0,1-3.763-2.379c-.83-1.383.277-2.324,1.217-3.265h0l.221-.221a.764.764,0,0,0-.166.221,10.359,10.359,0,0,1,1.6-1.107c.553-.221,1.66-.332,1.881-.885a6.842,6.842,0,0,0-3.32.332,7.777,7.777,0,0,0-2.822,1.328,21.37,21.37,0,0,0-2.656,1.715c-.775.719-1.328,2.213.277,2.379.387.055.775-.221,1.217-.221a9.858,9.858,0,0,1,2.047.719C189.85,356.356,188.688,357.02,190.458,358.237Z" transform="translate(-2.873 -0.941)" fill="#ffe2de"/>
    <path id="Path_228212" data-name="Path 228212" d="M187.028,356.279a6.362,6.362,0,0,0,1.549-.5c.443-.332-.166-.941-.719-.719l.055.055a2.049,2.049,0,0,0-1.328.664C186.032,356.39,186.419,356.5,187.028,356.279Z" transform="translate(-3.537 -3.354)" fill="#ffb600"/>
    <path id="Path_228213" data-name="Path 228213" d="M204.321,349.009c-.775.277-.5.5.166.609a9.217,9.217,0,0,0,1.6.332c.553-.055.332-.885-.277-.941v.111A1.762,1.762,0,0,0,204.321,349.009Z" transform="translate(-11.369 -0.62)" fill="#ffd16c"/>
    <path id="Path_228214" data-name="Path 228214" d="M187.485,361.309c-.83.277-.553.5.111.609a9.216,9.216,0,0,0,1.6.332c.553-.055.332-.885-.277-.941v.111A1.641,1.641,0,0,0,187.485,361.309Z" transform="translate(-3.828 -6.115)" fill="#ffd16c"/>
    <path id="Path_228215" data-name="Path 228215" d="M216.3,351.309c-.775.277-.553.5.111.609a9.217,9.217,0,0,0,1.6.332c.553-.055.332-.885-.277-.941v.111A1.625,1.625,0,0,0,216.3,351.309Z" transform="translate(-16.712 -1.648)" fill="#8bd69f"/>
    <path id="Path_228216" data-name="Path 228216" d="M183.174,359.831c-.387.775,0,.719.553.332a9.2,9.2,0,0,0,1.328-.885c.332-.443-.443-.885-.885-.5l.055.055A2.276,2.276,0,0,0,183.174,359.831Z" transform="translate(-2.062 -4.969)" fill="#8bd69f"/>
    <path id="Path_228217" data-name="Path 228217" d="M202.474,367.287c-.387.775,0,.719.553.332a6.268,6.268,0,0,0,1.328-.941c.332-.443-.443-.885-.885-.5l.055.055A2.413,2.413,0,0,0,202.474,367.287Z" transform="translate(-10.683 -8.275)" fill="#8bd69f"/>
    <path id="Path_228218" data-name="Path 228218" d="M228.732,357.1v.055c.443.055.277-.719-.166-.885-.277-.111-.775.055-1.051,0-.443,0-.553.221.166.609C228.068,357.1,228.566,357.264,228.732,357.1Z" transform="translate(-21.781 -3.897)" fill="#8bd69f"/>
    <path id="Path_228219" data-name="Path 228219" d="M191.015,351.971c-.443,0-.553.221.166.609.387.221.885.387,1.051.221v.111c.443.055.277-.719-.166-.885C191.79,351.86,191.292,351.971,191.015,351.971Z" transform="translate(-5.477 -1.978)" fill="#8bd69f"/>
    <path id="Path_228220" data-name="Path 228220" d="M196.415,364.471c-.443,0-.553.166.166.609.387.221.885.387,1.051.221v.111c.443.055.277-.719-.166-.885C197.19,364.36,196.636,364.471,196.415,364.471Z" transform="translate(-7.889 -7.562)" fill="#d57dd8"/>
    <path id="Path_228221" data-name="Path 228221" d="M211.816,350.678a2.806,2.806,0,0,0-.5.885c-.221.387-.111.553.609.166.387-.221.775-.553.719-.83h.055C212.978,350.622,212.2,350.346,211.816,350.678Z" transform="translate(-14.658 -1.349)" fill="#d57dd8"/>
    <path id="Path_228222" data-name="Path 228222" d="M190.816,357.278a2.806,2.806,0,0,0-.5.885c-.221.387-.111.553.609.166.387-.221.775-.553.719-.83h.055C191.922,357.222,191.2,356.946,190.816,357.278Z" transform="translate(-5.278 -4.297)" fill="#d57dd8"/>
    <path id="Path_228223" data-name="Path 228223" d="M197.843,350.677l-.055-.055c-.387.111.111.775.553.719.277,0,.664-.387.941-.443.387-.166.387-.387-.387-.5C198.452,350.4,197.954,350.455,197.843,350.677Z" transform="translate(-8.598 -1.293)" fill="#d57dd8"/>
    <path id="Path_228224" data-name="Path 228224" d="M218.643,362.561l-.055-.055c-.387.111.111.775.553.719.277,0,.664-.387.941-.443.387-.166.387-.387-.387-.5C219.252,362.229,218.754,362.284,218.643,362.561Z" transform="translate(-17.889 -6.593)" fill="#d57dd8"/>
    <path id="Path_228225" data-name="Path 228225" d="M231.282,360.787c.387-.166.387-.387-.387-.5-.443-.055-.941.055-1.051.277l-.055-.055c-.387.111.111.775.553.719C230.673,361.229,231.06,360.9,231.282,360.787Z" transform="translate(-22.892 -5.703)" fill="#d57dd8"/>
    <path id="Path_228226" data-name="Path 228226" d="M221.143,355.665l-.055-.055c-.387.111.111.775.553.719.277,0,.664-.387.941-.443.387-.166.387-.387-.387-.5C221.752,355.333,221.254,355.444,221.143,355.665Z" transform="translate(-19.006 -3.515)" fill="#f7cff9"/>
    <path id="Path_228227" data-name="Path 228227" d="M196.143,368.865l-.055-.055c-.387.111.111.775.553.719.277,0,.664-.387.941-.443.387-.166.387-.387-.387-.5C196.752,368.533,196.254,368.644,196.143,368.865Z" transform="translate(-7.839 -9.411)" fill="#f7cff9"/>
    <path id="Path_228228" data-name="Path 228228" d="M182.517,356.919c-.387.166-.83.443-.83.664l-.055-.055c-.332.277.387.664.83.443.277-.111.5-.609.664-.775C183.347,356.863,183.291,356.7,182.517,356.919Z" transform="translate(-1.406 -4.159)" fill="#f7cff9"/>
    <path id="Path_228229" data-name="Path 228229" d="M202.517,351.719c-.387.166-.83.443-.83.664l-.055-.055c-.332.277.387.664.83.443.277-.111.5-.609.664-.775C203.4,351.663,203.291,351.5,202.517,351.719Z" transform="translate(-10.339 -1.837)" fill="#f7cff9"/>
    <path id="Path_228230" data-name="Path 228230" d="M215.591,348.8v-.111c-.387-.111-.332.719.111.941a3.364,3.364,0,0,0,1.051.055c.443.055.553-.166-.111-.609C216.255,348.858,215.757,348.636,215.591,348.8Z" transform="translate(-16.497 -0.525)" fill="#f7cff9"/>
    <path id="Path_228231" data-name="Path 228231" d="M223.1,351.909c-.775.277-.553.5.111.609a9.217,9.217,0,0,0,1.6.332c.553-.055.332-.885-.277-.941v.111A1.625,1.625,0,0,0,223.1,351.909Z" transform="translate(-19.749 -1.916)" fill="#ffd16c"/>
    <path id="Path_228232" data-name="Path 228232" d="M224.616,359.9c-.5.719-.111.719.5.443a5.832,5.832,0,0,0,1.439-.719c.387-.387-.277-.941-.775-.609l.055.055A1.71,1.71,0,0,0,224.616,359.9Z" transform="translate(-20.542 -5.097)" fill="#ffd16c"/>
    <path id="Path_228233" data-name="Path 228233" d="M210.116,368.4c-.5.719-.111.719.5.443a5.832,5.832,0,0,0,1.439-.719c.387-.387-.277-.941-.775-.609l.055.055A2.208,2.208,0,0,0,210.116,368.4Z" transform="translate(-14.065 -8.893)" fill="#ffd16c"/>
  </g>
</svg>
