<svg xmlns="http://www.w3.org/2000/svg" width="32" height="14.494" viewBox="0 0 32 14.494">
  <g id="Group_3192" data-name="Group 3192" transform="translate(-79 -115.844)">
    <g id="Group_3191" data-name="Group 3191" transform="translate(79 115.844)">
      <path id="Path_228485" data-name="Path 228485" d="M87.23,130.5c-1.607,1.353-3.241,1.466-5.1,3.354-.423.423-2.17.648-3.129,1.043a14.773,14.773,0,0,0,3.946,1.212,43.525,43.525,0,0,0,6.032,0c4.115-.423,7.554.282,11.641-.225.733-.085,1.522-.085,2.227-.225.564-.141,1.1-.395,1.635-.536,1.55-.451,1.522-1.156.93-2.593a7.7,7.7,0,0,0-2.424-3.241,15.175,15.175,0,0,0-4.313-1.719c-1.86-.62-3.89-.423-5.722-1.015a4.276,4.276,0,0,0-3.072.141C88.95,127.649,88.3,129.622,87.23,130.5Z" transform="translate(-79 -123.378)" fill="#f7e8ad"/>
      <path id="Path_228486" data-name="Path 228486" d="M87.23,130.615c-1.607,1.353-3.241,1.466-5.1,3.354-.423.423-2.17.648-3.129,1.043a1.1,1.1,0,0,0,.254.113.539.539,0,0,1,.423-.113c1.607.2,2.988-.958,4.172-1.888a19.489,19.489,0,0,1,1.748-1.24,12.1,12.1,0,0,0,1.945-1.268c1.127-.987,1.607-2.424,2.48-3.608.141-.169.254-.338.395-.507a2.61,2.61,0,0,0-.564.225C88.95,127.768,88.3,129.741,87.23,130.615Z" transform="translate(-79 -123.497)" fill="#f7c75c"/>
      <path id="Path_228487" data-name="Path 228487" d="M136.366,122.766c-.817-.479-1.522-.987-2.339-1.522-.451-.282-.789-.592-1.212-.9-.451-.338-.987-.366-1.438-.676-.395-.254-.733-.62-1.156-.846a14.18,14.18,0,0,0-1.522-.592,25.936,25.936,0,0,0-2.9-1.156c-.93-.282-1.86-.648-2.847-.846-.9-.2-1.888-.169-2.762-.31a2.552,2.552,0,0,0-2.509.62c-.733.733-.423,1.663-.366,2.565a4.965,4.965,0,0,1,2.48.592,17.515,17.515,0,0,0,2.283,1.184c1.015.366,1.748,1.043,2.706,1.494a14.491,14.491,0,0,0,2.9.676,4.682,4.682,0,0,1,2.227,1.353c.564.451,1.945,1.494,1.917,2.311l.169.169a5.035,5.035,0,0,0,2.283-.62,18.894,18.894,0,0,1,2.621-.395c.958-.282,1.353-.733.958-1.748C137.634,123.5,136.93,123.1,136.366,122.766Z" transform="translate(-106.432 -115.844)" fill="#f7c75c"/>
      <path id="Path_228488" data-name="Path 228488" d="M118.182,116.58a2.984,2.984,0,0,0-.282.338c.507-.225.676-.536,1.184-.733a3.68,3.68,0,0,1,1.832-.028,12.526,12.526,0,0,1,1.748.282c.761.169,1.522.225,2.255.395a17.2,17.2,0,0,1,3.918,1.86c.7.366,1.494.564,2.2.93.62.338,1.184.733,1.776,1.1.564.338,1.719.676,2.65,1.184-.31-.2-.62-.423-.958-.648-.451-.282-.789-.592-1.212-.9-.451-.338-.987-.366-1.438-.676-.395-.254-.733-.62-1.156-.846a14.18,14.18,0,0,0-1.522-.592,25.936,25.936,0,0,0-2.9-1.156c-.93-.282-1.86-.648-2.847-.846-.9-.2-1.889-.169-2.762-.31A2.548,2.548,0,0,0,118.182,116.58Z" transform="translate(-106.935 -115.859)" fill="#f4b73b"/>
      <path id="Path_228489" data-name="Path 228489" d="M137.832,127.959a.1.1,0,0,0-.028-.085,1.793,1.793,0,0,1-.056-.2,3.3,3.3,0,0,0-1.522-1.381l-.676-.423c.423.338.648.817-.282.9-1.071-.113-2.058.761-3.129.395a4.469,4.469,0,0,0-1.607-.507,1.905,1.905,0,0,1-1.438-.479c-.451-.451-.479-1.071-1.212-1.1a4.358,4.358,0,0,1-1.691-.282c-.62-.282-1.1-.761-1.719-1.015a3.456,3.456,0,0,1-1.607-.874c-.141-.2-.338-.62-.592-.648a4.268,4.268,0,0,0-1.043-.028,3.354,3.354,0,0,1-1.719-.395c-.451-.254-1.522-.141-2.029-.31-.366-.113-.225-.507-.423-.733a6.721,6.721,0,0,0,.056,1.832,4.965,4.965,0,0,1,2.48.592,17.514,17.514,0,0,0,2.283,1.184c1.015.366,1.748,1.043,2.706,1.494a14.491,14.491,0,0,0,2.9.676,4.682,4.682,0,0,1,2.227,1.353c.564.451,1.945,1.494,1.917,2.311l.169.169a5.035,5.035,0,0,0,2.283-.62,18.9,18.9,0,0,1,2.621-.395c.846-.225,1.268-.62,1.071-1.409C137.832,128.016,137.832,127.988,137.832,127.959Z" transform="translate(-106.292 -119.403)" fill="#f4b73b"/>
      <path id="Path_228490" data-name="Path 228490" d="M79.254,148.424a8.985,8.985,0,0,0,4.538.958c1.494-.225,3.523.451,5.553.225a26.676,26.676,0,0,1,5.947-.338c2.706.395,5.75-.62,7.836-1.015,2.114-.395,4.4-.507,6.4-1.325a2.141,2.141,0,0,0,.028-4.059c-1.438-.507-3.946.564-4.82,1.776-.282.423-.225.874-.676,1.184a23.977,23.977,0,0,1-3.862,1.325,26.154,26.154,0,0,0-2.988.2c-.507.141-2.17.395-2.678.479-.479.085-1.748-.254-2.762-.254-1.24,0-6.934.62-9.273-.028A14.176,14.176,0,0,1,79,146.7C79.31,147.184,78.775,148.086,79.254,148.424Z" transform="translate(-79 -135.161)" fill="#f9d178"/>
      <path id="Path_228491" data-name="Path 228491" d="M109.554,142.771c-1.438-.507-3.946.564-4.82,1.776-.282.423-.225.874-.676,1.184a23.975,23.975,0,0,1-3.862,1.325,26.154,26.154,0,0,0-2.988.2c-.507.141-2.17.395-2.678.479-.479.085-1.748-.254-2.762-.254-1.24,0-6.934.62-9.273-.028A14.176,14.176,0,0,1,79,146.6c.282.479-.169,1.3.2,1.663.085-.62-.254-1.156.536-1.071,1.1.141,2.96.676,4.059.817.93.113,1.86.141,2.79.169a14.915,14.915,0,0,1,3.354-.366c1.776-.141,3.608-.028,5.384-.028H95.4c.423-.085.817-.2,1.24-.282a6.241,6.241,0,0,1,2.79-.141c.31-.056.592-.113.9-.141h.113c.2-.113.366-.2.479-.254a11.333,11.333,0,0,1,2.988-.874c.93-.958,1.466-2.339,2.762-2.931,1.071-.479,2.847-.62,3.692.395a2.2,2.2,0,0,1,.507,1.8A2,2,0,0,0,109.554,142.771Z" transform="translate(-79 -135.089)" fill="#e5a533"/>
      <path id="Path_228492" data-name="Path 228492" d="M129.573,119.875c-1.043-.423-1.719-1.3-2.875-1.55-.451-.113-.958-.113-1.409-.2a15.528,15.528,0,0,1-1.607-.169c-.395-.113-.62-.366-1.043-.451a2.536,2.536,0,0,0-1.127,0l-.225-.113a1.189,1.189,0,0,0-.987.507,2.452,2.452,0,0,0,1.212.113c-.141.113-.141.254-.2.395.536.056,1.043-.2,1.607-.141.085.7,1.1.7,1.691.874.846.225,1.55-.31,2.339.225a4.227,4.227,0,0,1,1.043.958c.395.479.536.479,1.184.62.846.169,1.607.592,2.452.789.169.254.479.141.733.282.225.113.423.366.648.507.282.169.874.225,1.127.451.225.225.056.536.225.733.2.2.676.085.9.169.338.113.395.2.7.31.395.141,1.578.423,1.86.113-.282-.282-.733-.366-1.071-.62a7.163,7.163,0,0,0-1.607-1.127,6.488,6.488,0,0,1-1.24-.7c-.423-.254-1.043-.169-1.381-.507C133.1,120.551,130.053,120.072,129.573,119.875Z" transform="translate(-108.659 -116.956)" fill="#fcdb8b"/>
      <g id="Group_3183" data-name="Group 3183" transform="translate(9.245 3.962)">
        <path id="Path_228493" data-name="Path 228493" d="M112.407,132.4c-.169.169-.423.338-.479.564l-.028.028a3.753,3.753,0,0,0,.536.141,1.814,1.814,0,0,0,.676.141,2.2,2.2,0,0,0,1.522-.592,1.976,1.976,0,0,0,.31-2.678c-.507.366-.958.846-1.438,1.268C113.112,131.663,112.774,132.029,112.407,132.4Z" transform="translate(-111.872 -129.972)" fill="#f48053"/>
        <path id="Path_228494" data-name="Path 228494" d="M115.583,131.1c-.366.31-.733.676-1.071.987-.366.338-.733.733-1.071,1.1-.028.056-.085.085-.141.141a.476.476,0,0,0,.451.31,3.349,3.349,0,0,0,1.268-.113,1.943,1.943,0,0,0,.676-.676,4.412,4.412,0,0,0,.338-.789,1.479,1.479,0,0,0-.169-.846A.4.4,0,0,0,115.583,131.1Z" transform="translate(-112.877 -130.762)" fill="#e04f22"/>
        <path id="Path_228495" data-name="Path 228495" d="M114.9,134.14c.085-.028.2.028.282.028a1.057,1.057,0,0,0,1.015-.817,1.213,1.213,0,0,0,0-.451c-.169.169-.366.338-.536.507A6.273,6.273,0,0,0,114.9,134.14Z" transform="translate(-114.026 -132.054)" fill="#f98967"/>
        <path id="Path_228496" data-name="Path 228496" d="M115.776,133.523l-.676.676c.085-.028.113.056.2.056a3.051,3.051,0,0,0,.507-.2h.085c.056-.056.028-.056.056-.085a.476.476,0,0,1,.169-.085c.169-.31.056-.395.169-.7a.284.284,0,0,0-.028-.085C116.087,133.241,115.946,133.382,115.776,133.523Z" transform="translate(-114.17 -132.198)" fill="#fca08b"/>
        <path id="Path_228497" data-name="Path 228497" d="M115.313,131.453a1.794,1.794,0,0,0-.056.2,1.313,1.313,0,0,1-.169.564.659.659,0,0,1-.2.2.908.908,0,0,1-.225.395c-.085.085-.169.141-.254.225a.58.58,0,0,1-.479.056,1.267,1.267,0,0,1-.648.113h0a6.005,6.005,0,0,1-.7-.085.407.407,0,0,1-.31-.2h-.085c-.028.056-.056.085-.056.141l-.028.028a3.757,3.757,0,0,0,.536.141,1.814,1.814,0,0,0,.676.141,2.2,2.2,0,0,0,1.522-.592,1.976,1.976,0,0,0,.31-2.678c-.028,0-.028.028-.056.028a.621.621,0,0,1,.169.423v.085a.807.807,0,0,1,.169.62C115.341,131.34,115.313,131.4,115.313,131.453Z" transform="translate(-112.015 -130.044)" fill="#e04f22"/>
        <path id="Path_228498" data-name="Path 228498" d="M114.506,132.578a.389.389,0,0,1-.113.085,1.548,1.548,0,0,1-.254.2c-.056.028-.085.056-.141.056a1.528,1.528,0,0,1-.93.225,1.372,1.372,0,0,1-.338-.028l-.254-.085a.616.616,0,0,1-.141-.085.573.573,0,0,1-.141-.028c-.085,0-.169-.028-.282-.028a.1.1,0,0,1-.085-.028l-.028.028a3.756,3.756,0,0,0,.536.141,1.814,1.814,0,0,0,.676.141,2.2,2.2,0,0,0,1.522-.592,1.976,1.976,0,0,0,.31-2.678l-.028.028c.028.028.056.056.056.085v.028a.732.732,0,0,1,.254.451c0,.085.028.169.028.254a1.374,1.374,0,0,1,0,.676A1.843,1.843,0,0,1,114.506,132.578Z" transform="translate(-111.8 -129.9)" fill="#cc2909"/>
        <path id="Path_228499" data-name="Path 228499" d="M115.2,137.7Z" transform="translate(-114.242 -135.501)" fill="#f98967"/>
        <path id="Path_228500" data-name="Path 228500" d="M114.941,137.7h0a.985.985,0,0,0-.141.366c0,.056.056.2.141.169.113-.028.056-.225.056-.282C115,137.925,114.969,137.7,114.941,137.7Z" transform="translate(-113.954 -135.501)" fill="#f98967"/>
        <path id="Path_228501" data-name="Path 228501" d="M120.346,134.3Z" transform="translate(-117.922 -133.06)" fill="#f98967"/>
        <path id="Path_228502" data-name="Path 228502" d="M120.519,133.635c-.028,0-.254.085-.225.141h.028a.811.811,0,0,0,.366.028c.056-.028.2-.113.141-.2C120.745,133.522,120.6,133.607,120.519,133.635Z" transform="translate(-117.898 -132.536)" fill="#f98967"/>
        <path id="Path_228503" data-name="Path 228503" d="M117.3,137.8Z" transform="translate(-115.75 -135.573)" fill="#f98967"/>
        <path id="Path_228504" data-name="Path 228504" d="M117.228,138.095c.028.056.141.169.2.113.085-.085-.028-.225-.056-.282-.028-.028-.141-.225-.169-.225v.028h0A1.606,1.606,0,0,0,117.228,138.095Z" transform="translate(-115.678 -135.501)" fill="#f98967"/>
        <path id="Path_228505" data-name="Path 228505" d="M118.681,136.93c.028.056.141.141.2.085.056-.085-.028-.2-.056-.254-.028-.028-.141-.2-.169-.169v.028h0A.4.4,0,0,0,118.681,136.93Z" transform="translate(-116.708 -134.703)" fill="#f98967"/>
        <path id="Path_228506" data-name="Path 228506" d="M120.6,132.158c.056-.028.113-.169.056-.2-.085-.056-.2.056-.225.113-.028.028-.169.169-.141.2h.028A1.943,1.943,0,0,0,120.6,132.158Z" transform="translate(-117.895 -131.369)" fill="#f98967"/>
        <path id="Path_228507" data-name="Path 228507" d="M120.41,136.079c.056,0,.2,0,.2-.085,0-.113-.169-.113-.254-.113-.028,0-.225-.028-.254.028h.028A.684.684,0,0,0,120.41,136.079Z" transform="translate(-117.761 -134.191)" fill="#f98967"/>
      </g>
      <g id="Group_3184" data-name="Group 3184" transform="translate(10.179 7.157)">
        <path id="Path_228508" data-name="Path 228508" d="M116.687,143.848a8.718,8.718,0,0,1,.789.874c.507.536.564.536,1.212.2.507-.254,1.184-.395.874-.987-.2-.366-1.1-.507-1.438-.733.282-.564,1.832.761,1.438-.564-.169-.592-1.691-.676-2.424-.479-.564.141-1.748.338-1.973,1.015a.954.954,0,0,0,1.1,1.212s.592-.085.31-.479C116.518,143.791,116.49,143.735,116.687,143.848Z" transform="translate(-115.112 -141.828)" fill="#ad9582"/>
        <path id="Path_228509" data-name="Path 228509" d="M116.657,143.058c.395.169.648.676.958.987.507.536.564.536,1.212.2.507-.254,1.184-.395.789-.93-.254-.338-.987-.564-1.325-.789.282-.564,1.748.676,1.409-.451-.169-.592-1.663-.789-2.4-.62-.564.141-1.719.451-1.945,1.1a.867.867,0,0,0,1.071,1.1s.479-.141.254-.31C116.4,143.143,116.432,142.974,116.657,143.058Z" transform="translate(-115.251 -141.349)" fill="#f2ddc9"/>
        <path id="Path_228510" data-name="Path 228510" d="M115.918,142.226a1.33,1.33,0,0,1,.536-.395,1.073,1.073,0,0,1,.507-.085h.085l.028-.028c.451-.479,1.578-.282,2.058.028.2.141.366.2.507.31,0-.028-.028-.056-.028-.085-.169-.592-1.663-.789-2.4-.62-.564.141-1.719.451-1.945,1.1a.839.839,0,0,0,.028.648.929.929,0,0,1,0-.395A.823.823,0,0,1,115.918,142.226Z" transform="translate(-115.189 -141.277)" fill="#ddc6b3"/>
        <path id="Path_228511" data-name="Path 228511" d="M116.341,141.732a3.39,3.39,0,0,1,1.381-.395,2.869,2.869,0,0,1,1.86.507c-.254-.536-1.663-.733-2.368-.536-.564.141-1.719.451-1.945,1.1a.839.839,0,0,0,.028.648V143a.358.358,0,0,1-.028-.169C115.185,142.211,115.862,142.014,116.341,141.732Z" transform="translate(-115.189 -141.234)" fill="#d6b89f"/>
        <path id="Path_228512" data-name="Path 228512" d="M116.712,143.41c.338-.056.479.225.733.366.169.085.254.085.338.225a1.608,1.608,0,0,0,.366.395c.254.225.423.451.761.423a1.648,1.648,0,0,0,.789-.338c.366-.225.141-.423-.141-.62-.254-.169-.648-.225-.846-.451-.056-.085-.282-.282-.338-.366-.085-.141.141-.2.31-.225a1.9,1.9,0,0,1,.564.028,1.823,1.823,0,0,0,.366.113c.366-.028-.085-.451-.225-.507a1.686,1.686,0,0,0-1.776.085c-.225.113-.62.113-.846.225a3.579,3.579,0,0,0-.338.282,1.51,1.51,0,0,1-.31.141c-.056.028-.113.028-.141.085l-.028-.028c-.254.085-.2.423-.056.592.113.141.7.423.817.225.113-.169-.113-.2-.113-.338C116.6,143.607,116.6,143.438,116.712,143.41Z" transform="translate(-115.588 -141.954)" fill="#ffecde"/>
        <path id="Path_228513" data-name="Path 228513" d="M119.177,142.995c.085,0,.338,0,.395-.056.2-.169-.338-.338-.451-.338a1.175,1.175,0,0,0-.676.254c-.338.254-.9.141-1.212.366H117.2a3.521,3.521,0,0,0-.338.225c-.113.056-.254.028-.338.2-.141.338.282.395.366.592.2,0,.085-.592.338-.676s.62.2.789.338c.113.085.225.225.338.31.169.113.338.113.423.254.2.225.31.423.62.423a1.54,1.54,0,0,0,.507-.169c.141-.113.169-.338.056-.423-.141-.141-.479-.113-.62-.225-.113-.085-.169-.225-.282-.338a.59.59,0,0,1-.169-.113c-.028-.056-.028-.141-.056-.2-.056-.113-.2-.2-.085-.338C118.839,142.966,119.036,142.995,119.177,142.995Z" transform="translate(-116.108 -142.215)" fill="#fff0eb"/>
      </g>
      <path id="Path_228514" data-name="Path 228514" d="M101.816,146.943a.213.213,0,0,0,.028-.113c-.423-.085-.31.254-.479.282-.254.056-.395-.2-.31-.423-.451-.056-.564.479-.169.676a.159.159,0,0,0,.2,0c.282.085.028.366-.225.536l.028-.028a.275.275,0,0,0,.113.536c.395.028.2-.507.564-.479v.2c.282-.085.395.366.733.366-.056-.2-.2-.536.169-.479-.113-.254-.564-.338-.423-.648a2.645,2.645,0,0,1,.423.169c-.056-.2-.085-.423.085-.536C102.295,147,101.985,147.14,101.816,146.943Z" transform="translate(-94.543 -137.992)" fill="#428c1f"/>
      <path id="Path_228515" data-name="Path 228515" d="M133.759,138.136c.056-.282.085-1.268-.141-.648-.085-.225-.451.536-.7.507a.41.41,0,0,0-.479-.564c-.028.282.338.564.254.846a.416.416,0,0,1-.733.085c-.282.31.141.254.2.423.113.254-.028.676.2.536.507-.31,1.24.282,1.325-.733.2.113.874.169.592.507.592-.141.423-.676.451-.958C134.8,137.713,134.126,138.164,133.759,138.136Z" transform="translate(-116.96 -131.243)" fill="#428c1f"/>
      <g id="Group_3185" data-name="Group 3185" transform="translate(3.142 10.438)">
        <path id="Path_228516" data-name="Path 228516" d="M91.064,152.969c-.451.113-1.184.62-.817,1.127.31.451,1.1.395,1.55.225C93.094,153.871,91.91,152.518,91.064,152.969Z" transform="translate(-90.148 -152.878)" fill="#8e8623"/>
        <path id="Path_228517" data-name="Path 228517" d="M90.8,155.02a1.213,1.213,0,0,0,1.156.338c.536-.056.958-.507.62-.958C92.66,155.189,91.223,155.1,90.8,155.02Z" transform="translate(-90.616 -153.971)" fill="#7c7218"/>
        <path id="Path_228518" data-name="Path 228518" d="M91.57,153.335c-.338-.028-.507.282-.7.507-.056.056-.141.113-.056.169s.2-.028.254-.085c.085-.085.056-.225.2-.282a1.861,1.861,0,0,1,.423-.141c.056-.028.564-.028.338-.2C91.908,153.222,91.683,153.307,91.57,153.335Z" transform="translate(-90.597 -153.16)" fill="#b5b123"/>
      </g>
      <g id="Group_3186" data-name="Group 3186" transform="translate(17.02 7.966)">
        <path id="Path_228519" data-name="Path 228519" d="M139.608,147.933c.7.564,3.1.761,4.284.564a6.679,6.679,0,0,0,1.015-.254c.536-.169.817-.338.789-.958a11.953,11.953,0,0,1-6.145.028V147.2A2.151,2.151,0,0,0,139.608,147.933Z" transform="translate(-139.491 -146.328)" fill="#b26457"/>
        <path id="Path_228520" data-name="Path 228520" d="M140.347,145.627a9.855,9.855,0,0,0,4.623-.085c.254-.085.761-.31.62-.648-.085-.254-.676-.423-.9-.479a5.649,5.649,0,0,0-1.917-.282h.085a8.2,8.2,0,0,0-2.988.479C138.853,144.979,139.642,145.458,140.347,145.627Z" transform="translate(-139.384 -144.107)" fill="#d67a67"/>
        <path id="Path_228521" data-name="Path 228521" d="M140.686,146.712c-.479.254.225.451.507.338C141.616,146.684,140.883,146.628,140.686,146.712Z" transform="translate(-140.202 -145.953)" fill="#efd5d0"/>
        <path id="Path_228522" data-name="Path 228522" d="M144.192,145.815a.634.634,0,0,0,.395-.028c.169-.056.141-.113-.028-.141a.8.8,0,0,0-.366,0l.056.028C144.107,145.646,144.051,145.759,144.192,145.815Z" transform="translate(-142.778 -145.197)" fill="#efd5d0"/>
        <path id="Path_228523" data-name="Path 228523" d="M157.164,147.954c.2-.141.141-.225-.056-.254a1.168,1.168,0,0,0-.451.056c-.2-.028-.169.2.028.282A.492.492,0,0,0,157.164,147.954Z" transform="translate(-151.692 -146.687)" fill="#efd5d0"/>
        <path id="Path_228524" data-name="Path 228524" d="M150.752,148.554c.254-.141.2-.254-.085-.254a1.311,1.311,0,0,0-.564.085c-.225-.028-.2.225.028.282A.917.917,0,0,0,150.752,148.554Z" transform="translate(-146.97 -147.118)" fill="#e8c6bc"/>
        <path id="Path_228525" data-name="Path 228525" d="M147.858,144.936c.225,0,.2-.225-.056-.282a.753.753,0,0,0-.592.141c-.254.141-.169.254.085.254A2,2,0,0,0,147.858,144.936Z" transform="translate(-144.894 -144.487)" fill="#e8c6bc"/>
        <path id="Path_228526" data-name="Path 228526" d="M143.442,148.49a1.22,1.22,0,0,0,.451.028c.169.056.2-.141.028-.225a.7.7,0,0,0-.479,0C143.188,148.349,143.216,148.433,143.442,148.49Z" transform="translate(-142.169 -147.082)" fill="#e8c6bc"/>
        <path id="Path_228527" data-name="Path 228527" d="M154.291,149.068a.827.827,0,0,0,.451-.113c.2,0,.169-.141-.028-.169a.926.926,0,0,0-.479.113C154.009,149.011,154.065,149.068,154.291,149.068Z" transform="translate(-149.945 -147.463)" fill="#e8c6bc"/>
        <path id="Path_228528" data-name="Path 228528" d="M150.4,146.4h0Z" transform="translate(-147.295 -145.754)" fill="#efd5d0"/>
        <path id="Path_228529" data-name="Path 228529" d="M149.579,146.754c.113,0,.507.056.366-.141-.085-.113-.31-.113-.451-.113h0c-.141,0-.366.028-.395.113C149.128,146.754,149.495,146.754,149.579,146.754Z" transform="translate(-146.361 -145.826)" fill="#efd5d0"/>
        <path id="Path_228530" data-name="Path 228530" d="M154.133,145.8c.113.028.761.113.7-.169-.028-.141-.536-.282-.648-.2-.113,0-.62-.028-.592.141C153.625,145.717,154.02,145.773,154.133,145.8Z" transform="translate(-149.59 -145.042)" fill="#efd5d0"/>
        <path id="Path_228531" data-name="Path 228531" d="M144.969,147.2a.155.155,0,0,0-.169.113C144.969,147.534,145.364,147.168,144.969,147.2Z" transform="translate(-143.273 -146.324)" fill="#c9b3af"/>
        <path id="Path_228532" data-name="Path 228532" d="M146.682,146.7a.431.431,0,0,0-.282.113C146.682,147.063,147.246,146.668,146.682,146.7Z" transform="translate(-144.422 -145.966)" fill="#e8c6bc"/>
        <path id="Path_228533" data-name="Path 228533" d="M159.469,146.6a.155.155,0,0,0-.169.113C159.469,146.934,159.836,146.568,159.469,146.6Z" transform="translate(-153.686 -145.893)" fill="#c9b3af"/>
        <path id="Path_228534" data-name="Path 228534" d="M153.882,147.6a.31.31,0,0,0-.282.169C153.854,148.1,154.446,147.569,153.882,147.6Z" transform="translate(-149.593 -146.613)" fill="#c9b3af"/>
        <path id="Path_228535" data-name="Path 228535" d="M151.223,144.889a.532.532,0,0,0-.423.169C151.195,145.368,152.125,144.833,151.223,144.889Z" transform="translate(-147.582 -144.666)" fill="#c9b3af"/>
        <path id="Path_228536" data-name="Path 228536" d="M146.823,147.994a.493.493,0,0,0-.423.282C146.795,148.867,147.725,147.937,146.823,147.994Z" transform="translate(-144.422 -146.896)" fill="#c9b3af"/>
      </g>
      <g id="Group_3187" data-name="Group 3187" transform="translate(6.201 10.106)">
        <path id="Path_228537" data-name="Path 228537" d="M101.479,154.71c-.169.056-.31.141-.479.2a2.134,2.134,0,0,1,.028.423,9.342,9.342,0,0,0,3.721.282,6.678,6.678,0,0,0,1.015-.254c.536-.169.817-.366.789-.958A13.839,13.839,0,0,1,101.479,154.71Z" transform="translate(-101 -153.639)" fill="#b26457"/>
        <path id="Path_228538" data-name="Path 228538" d="M105.923,151.813c-.141-.028-.31-.085-.479-.113-.62.141-1.212.282-1.832.451a9.958,9.958,0,0,0-1.3.423L101.3,153a.823.823,0,0,0,.254.056,9.855,9.855,0,0,0,4.623-.085c.254-.085.761-.31.62-.648C106.712,152.038,106.148,151.841,105.923,151.813Z" transform="translate(-101.215 -151.7)" fill="#d67a67"/>
        <path id="Path_228539" data-name="Path 228539" d="M116.057,154.713c-.2-.028-.169.2.028.282a.576.576,0,0,0,.479-.085c.2-.141.141-.225-.056-.254A.618.618,0,0,0,116.057,154.713Z" transform="translate(-111.716 -153.811)" fill="#efd5d0"/>
        <path id="Path_228540" data-name="Path 228540" d="M109.6,155.285c-.225-.028-.2.225.028.282a.869.869,0,0,0,.592-.113c.254-.141.2-.254-.085-.254A1.77,1.77,0,0,0,109.6,155.285Z" transform="translate(-107.067 -154.213)" fill="#e8c6bc"/>
        <path id="Path_228541" data-name="Path 228541" d="M102.87,155.2a.4.4,0,0,1-.169.056c-.085.056-.028.113.141.169a1.22,1.22,0,0,0,.451.028c.169.056.2-.141.028-.225A.51.51,0,0,0,102.87,155.2Z" transform="translate(-102.194 -154.185)" fill="#e8c6bc"/>
        <path id="Path_228542" data-name="Path 228542" d="M113.587,155.841c-.2.113-.141.169.056.141a.827.827,0,0,0,.451-.113c.2,0,.169-.141-.028-.169A1.039,1.039,0,0,0,113.587,155.841Z" transform="translate(-109.951 -154.573)" fill="#e8c6bc"/>
        <path id="Path_228543" data-name="Path 228543" d="M108.995,153.3h-.056c.028.028.028,0,.056,0-.141,0-.366.028-.395.113,0,.169.366.141.451.141.113,0,.507.056.366-.141C109.361,153.328,109.136,153.3,108.995,153.3Z" transform="translate(-106.458 -152.849)" fill="#efd5d0"/>
        <path id="Path_228544" data-name="Path 228544" d="M113.589,152.268c-.113,0-.62-.028-.592.141.028.141.423.225.507.254.113.028.761.113.7-.169C114.209,152.352,113.7,152.211,113.589,152.268Z" transform="translate(-109.615 -152.098)" fill="#efd5d0"/>
        <path id="Path_228545" data-name="Path 228545" d="M106.523,153.7c-.141.056-.282.085-.423.141C106.325,153.954,106.636,153.785,106.523,153.7Z" transform="translate(-104.662 -153.136)" fill="#e8c6bc"/>
        <path id="Path_228546" data-name="Path 228546" d="M118.869,153.5a.155.155,0,0,0-.169.113C118.869,153.834,119.264,153.468,118.869,153.5Z" transform="translate(-113.711 -152.989)" fill="#c9b3af"/>
        <path id="Path_228547" data-name="Path 228547" d="M113.282,154.5a.31.31,0,0,0-.282.169C113.254,155,113.846,154.469,113.282,154.5Z" transform="translate(-109.618 -153.708)" fill="#c9b3af"/>
        <path id="Path_228548" data-name="Path 228548" d="M111.651,152.4c-.141.028-.31.085-.451.113A.873.873,0,0,0,111.651,152.4Z" transform="translate(-108.325 -152.203)" fill="#c9b3af"/>
        <path id="Path_228549" data-name="Path 228549" d="M106.223,154.894a.493.493,0,0,0-.423.282C106.195,155.767,107.125,154.837,106.223,154.894Z" transform="translate(-104.447 -153.992)" fill="#c9b3af"/>
      </g>
      <g id="Group_3188" data-name="Group 3188" transform="translate(13.752 10.568)">
        <path id="Path_228550" data-name="Path 228550" d="M128.891,153.355c-.987.113-1.268.676-1.015,1.184.2.423,1.071.451,1.466.423.451-.056.9-.366.789-.817A1.02,1.02,0,0,0,128.891,153.355Z" transform="translate(-127.788 -153.338)" fill="#0d2791"/>
        <path id="Path_228551" data-name="Path 228551" d="M129.609,155.723a1.876,1.876,0,0,1-1.409-.141c0,.085.028.169.028.225a.874.874,0,0,0,.507.395c.733.2,1.832.141,1.578-.846V155.3A1.632,1.632,0,0,1,129.609,155.723Z" transform="translate(-128.084 -154.747)" fill="#06175b"/>
        <path id="Path_228552" data-name="Path 228552" d="M129.128,154.5H129.1v.028Z" transform="translate(-128.73 -154.172)" fill="#4457aa"/>
        <path id="Path_228553" data-name="Path 228553" d="M129.666,153.741a1.388,1.388,0,0,0-.676.056c-.113.028-.451.056-.536.141h.028l-.056.028v-.028c-.113.028-.225.254-.225.338a.4.4,0,0,0,.31-.085c.085-.085.056-.169.2-.2a2.975,2.975,0,0,1,.7-.056.959.959,0,0,1,.282.028c.056.028.113.113.2.085.113-.056.085-.169,0-.225C129.863,153.769,129.75,153.741,129.666,153.741Z" transform="translate(-128.084 -153.61)" fill="#4457aa"/>
      </g>
      <g id="Group_3189" data-name="Group 3189" transform="translate(13.329 5.044)">
        <path id="Path_228554" data-name="Path 228554" d="M127.391,133.755c-.987.113-1.268.676-1.015,1.184.2.423,1.071.451,1.466.423.451-.056.9-.366.789-.817A1.035,1.035,0,0,0,127.391,133.755Z" transform="translate(-126.288 -133.738)" fill="#0d2791"/>
        <path id="Path_228555" data-name="Path 228555" d="M128.009,136.023a1.875,1.875,0,0,1-1.409-.141c0,.085.028.169.028.225a.874.874,0,0,0,.507.395c.733.2,1.832.141,1.578-.846V135.6A1.229,1.229,0,0,1,128.009,136.023Z" transform="translate(-126.512 -135.075)" fill="#06175b"/>
        <path id="Path_228556" data-name="Path 228556" d="M127.628,134.8H127.6v.028Z" transform="translate(-127.23 -134.501)" fill="#4457aa"/>
        <path id="Path_228557" data-name="Path 228557" d="M128.066,134.072a1.838,1.838,0,0,0-.676.056c-.113.028-.451.056-.536.141h.028l-.056.028v-.028c-.113.028-.225.254-.225.338a.4.4,0,0,0,.31-.085c.085-.085.056-.169.2-.2a2.974,2.974,0,0,1,.7-.056.958.958,0,0,1,.282.028c.056.028.113.113.2.085.113-.056.085-.169,0-.225C128.291,134.1,128.15,134.1,128.066,134.072Z" transform="translate(-126.512 -133.97)" fill="#4457aa"/>
      </g>
      <path id="Path_228558" data-name="Path 228558" d="M150.99,151.274c-.028-.028.056.113.2,0,.282.085.028.366-.225.536l.028-.028a.275.275,0,0,0,.113.536c.395.028.2-.507.564-.479v.2c.282-.085.395.366.733.366-.056-.2-.2-.536.169-.479-.113-.254-.564-.338-.423-.648a2.645,2.645,0,0,1,.423.169c-.056-.2-.085-.423.085-.536-.254-.028-.564.141-.733-.056.028-.056.028-.085.056-.113-.423-.085-.31.254-.479.282-.254.056-.395-.2-.31-.423C150.709,150.569,150.6,151.1,150.99,151.274Z" transform="translate(-130.527 -140.801)" fill="#428c1f"/>
      <g id="Group_3190" data-name="Group 3190" transform="translate(16.418 10.024)">
        <path id="Path_228559" data-name="Path 228559" d="M138.164,151.491c-.451.113-1.184.62-.817,1.127.31.451,1.1.395,1.55.225C140.194,152.393,139.01,151.068,138.164,151.491Z" transform="translate(-137.248 -151.409)" fill="#8e8623"/>
        <path id="Path_228560" data-name="Path 228560" d="M137.9,153.62a1.213,1.213,0,0,0,1.156.338c.536-.056.958-.507.62-.958C139.76,153.789,138.323,153.676,137.9,153.62Z" transform="translate(-137.716 -152.551)" fill="#7c7218"/>
        <path id="Path_228561" data-name="Path 228561" d="M138.77,151.935c-.338-.028-.507.282-.7.507-.056.056-.141.113-.056.169s.2-.028.254-.085c.085-.113.056-.225.2-.282a1.862,1.862,0,0,1,.423-.141c.056-.028.536-.028.338-.2C139.108,151.822,138.854,151.907,138.77,151.935Z" transform="translate(-137.769 -151.74)" fill="#b5b123"/>
      </g>
    </g>
    <path id="Path_228562" data-name="Path 228562" d="M178.376,145.722c-.169.141-.507.423-.2.592.225,0,1.071-.254,1.127-.564C179.447,145.187,178.63,145.581,178.376,145.722Z" transform="translate(-71.133 -21.265)" fill="#f4bc62"/>
    <path id="Path_228563" data-name="Path 228563" d="M139.681,162.8c-.169,0-.507.056-.366.282.141.113.789.31.958.141C140.611,162.941,139.906,162.828,139.681,162.8Z" transform="translate(-43.29 -33.72)" fill="#f4bc62"/>
    <path id="Path_228564" data-name="Path 228564" d="M86.681,162.3c-.169,0-.507.056-.366.282.141.113.789.31.958.141C87.611,162.413,86.906,162.328,86.681,162.3Z" transform="translate(-5.229 -33.361)" fill="#f4bc62"/>
    <path id="Path_228565" data-name="Path 228565" d="M186.44,152.284c.2,0,.846.028.9-.225.113-.479-.507-.395-.733-.282C186.468,151.89,186.186,152.143,186.44,152.284Z" transform="translate(-77.083 -25.742)" fill="#f4bc62"/>
    <path id="Path_228566" data-name="Path 228566" d="M124.14,162.684c.2,0,.846.028.9-.225.113-.479-.507-.395-.733-.282C124.168,162.29,123.886,162.572,124.14,162.684Z" transform="translate(-32.343 -33.21)" fill="#f4bc62"/>
    <path id="Path_228567" data-name="Path 228567" d="M166.695,157.684c.2,0,.846.028.9-.225.113-.479-.507-.395-.733-.282C166.695,157.29,166.413,157.543,166.695,157.684Z" transform="translate(-62.891 -29.619)" fill="#f4bc62"/>
    <path id="Path_228568" data-name="Path 228568" d="M109.895,163.084c.2,0,.846.028.9-.225.113-.479-.507-.395-.733-.282C109.895,162.69,109.613,162.943,109.895,163.084Z" transform="translate(-22.101 -33.497)" fill="#f4bc62"/>
    <path id="Path_228569" data-name="Path 228569" d="M174.872,154.046c-.366.056-.056.479.2.395a.215.215,0,0,0,.169-.282C175.182,153.989,175.041,154.018,174.872,154.046Z" transform="translate(-68.728 -27.418)" fill="#f4bc62"/>
    <path id="Path_228570" data-name="Path 228570" d="M82.272,160.646c-.366.056-.056.479.2.395a.215.215,0,0,0,.169-.282C82.582,160.589,82.413,160.618,82.272,160.646Z" transform="translate(-2.229 -32.158)" fill="#f4bc62"/>
    <path id="Path_228571" data-name="Path 228571" d="M159.072,158.494c-.366.056-.056.479.2.395a.215.215,0,0,0,.169-.282C159.382,158.466,159.213,158.494,159.072,158.494Z" transform="translate(-57.382 -30.627)" fill="#f4bc62"/>
    <path id="Path_228572" data-name="Path 228572" d="M100.872,163.846c-.366.056-.056.479.2.395a.215.215,0,0,0,.169-.282C101.182,163.789,101.013,163.818,100.872,163.846Z" transform="translate(-15.586 -34.456)" fill="#f4bc62"/>
    <path id="Path_228573" data-name="Path 228573" d="M145.172,160.646c-.366.056-.056.479.2.395a.215.215,0,0,0,.169-.282C145.482,160.589,145.313,160.618,145.172,160.646Z" transform="translate(-47.4 -32.158)" fill="#f4bc62"/>
    <path id="Path_228574" data-name="Path 228574" d="M117.872,162.177c-.366.056-.056.479.2.395a.215.215,0,0,0,.169-.282C118.182,162.121,118.013,162.177,117.872,162.177Z" transform="translate(-27.794 -33.267)" fill="#f4bc62"/>
    <path id="Path_228575" data-name="Path 228575" d="M180.814,155.931c-.254.31.225.338.366.113A.277.277,0,0,0,180.814,155.931Z" transform="translate(-73.064 -28.768)" fill="#f4bc62"/>
    <path id="Path_228576" data-name="Path 228576" d="M96.014,163.2c-.254.31.225.338.366.113A.255.255,0,0,0,96.014,163.2Z" transform="translate(-12.166 -33.978)" fill="#f4bc62"/>
    <path id="Path_228577" data-name="Path 228577" d="M149.614,162.7c-.254.31.225.338.366.113A.243.243,0,0,0,149.614,162.7Z" transform="translate(-50.658 -33.619)" fill="#f4bc62"/>
    <path id="Path_228578" data-name="Path 228578" d="M130.214,163.331c-.254.31.225.338.366.113A.277.277,0,0,0,130.214,163.331Z" transform="translate(-36.727 -34.082)" fill="#f4bc62"/>
    <path id="Path_228579" data-name="Path 228579" d="M115.414,164.531c-.254.31.225.338.366.113A.277.277,0,0,0,115.414,164.531Z" transform="translate(-26.098 -34.944)" fill="#f4bc62"/>
    <path id="Path_228580" data-name="Path 228580" d="M181.914,149.431c-.254.31.225.338.366.113A.277.277,0,0,0,181.914,149.431Z" transform="translate(-73.854 -24.1)" fill="#f4bc62"/>
  </g>
</svg>
